{
.appVersion = "846";
copyright = "Copyright 2015 KB-Studio (www.k-b-studio.com|tarobish@gmail.com). Copyright 2015 Lasse Fister (lasse@graphicore.de). Copyright 2015 Sorkin Type Co (www.sorkintype.com). Copyright 2010-2015 Khaled Hosny (khaledhosny@eglug.org).";
customParameters = (
{
name = license;
value = "This Font Software is licensed under the SIL Open Font License, Version 1.1. This license is copied below, and is also available with a FAQ at: http://scripts.sil.org/OFL";
},
{
name = licenseURL;
value = "http://scripts.sil.org/OFL";
},
{
name = vendorID;
value = GRCR;
},
{
name = panose;
value = (
0,
0,
5,
0,
0,
0,
0,
0,
0,
0
);
},
{
name = glyphOrder;
value = (
".notdef",
uni0000,
uni000D,
CR,
space,
exclam,
quotedbl,
numbersign,
dollar,
percent,
ampersand,
quotesingle,
parenleft,
parenright,
asterisk,
plus,
comma,
hyphen,
period,
slash,
zero,
one,
two,
three,
four,
five,
six,
seven,
eight,
nine,
colon,
semicolon,
less,
equal,
greater,
question,
at,
A,
B,
C,
D,
E,
F,
G,
H,
I,
J,
K,
L,
M,
N,
O,
P,
Q,
R,
S,
T,
U,
V,
W,
X,
Y,
Z,
bracketleft,
backslash,
bracketright,
asciicircum,
underscore,
grave,
a,
b,
c,
d,
e,
f,
g,
h,
i,
j,
k,
l,
m,
n,
o,
p,
q,
r,
s,
t,
u,
v,
w,
x,
y,
z,
braceleft,
bar,
braceright,
asciitilde,
nbspace,
exclamdown,
cent,
sterling,
currency,
yen,
brokenbar,
section,
dieresis,
copyright,
ordfeminine,
guillemotleft,
logicalnot,
uni00AD,
registered,
overscore,
degree,
plusminus,
uni00B2,
uni00B3,
acute,
mu,
paragraph,
periodcentered,
cedilla,
uni00B9,
ordmasculine,
guillemotright,
onequarter,
onehalf,
threequarters,
questiondown,
Agrave,
Aacute,
Acircumflex,
Atilde,
Adieresis,
Aring,
AE,
Ccedilla,
Egrave,
Eacute,
Ecircumflex,
Edieresis,
Igrave,
Iacute,
Icircumflex,
Idieresis,
Eth,
Ntilde,
Ograve,
Oacute,
Ocircumflex,
Otilde,
Odieresis,
multiply,
Oslash,
Ugrave,
Uacute,
Ucircumflex,
Udieresis,
Yacute,
Thorn,
germandbls,
agrave,
aacute,
acircumflex,
atilde,
adieresis,
aring,
ae,
ccedilla,
egrave,
eacute,
ecircumflex,
edieresis,
igrave,
iacute,

glyphs = (
{
glyphname = .notdef;
layers = (
{
layerId = "03879842-7D6D-4B41-A76D-F99E90B677D3";
paths = (
{
closed = 1;
nodes = (
"800 1740 LINE",
"800 100 LINE",
"200 100 LINE",
"200 1740 LINE"
);
},
{
closed = 1;
nodes = (
"100 0 LINE",
"900 0 LINE",
"900 1840 LINE",
"100 1840 LINE"
);
}
);
width = 1100;
}
);
note = .notdef;
},
{
glyphname = exclam;
layers = (
{
layerId = "03879842-7D6D-4B41-A76D-F99E90B677D3";
paths = (
{
closed = 1;
nodes = (
"270 -19 LINE",
"308 -19 LINE",
"479 146 LINE",
"479 181 LINE",
"308 345 LINE",
"270 345 LINE",
"106 181 LINE",
"106 146 LINE"
);
},
{
closed = 1;
nodes = (
"367 436 LINE",
"370 611 OFFCURVE",
"398 730 OFFCURVE",
"477 943 CURVE SMOOTH",
"486 970 OFFCURVE",
"490 1000 OFFCURVE",
"490 1033 CURVE SMOOTH",
"490 1156 OFFCURVE",
"428 1230 OFFCURVE",
"291 1230 CURVE SMOOTH",
"160 1230 OFFCURVE",
"90 1165 OFFCURVE",
"90 1037 CURVE SMOOTH",
"90 1004 OFFCURVE",
"95 972 OFFCURVE",
"104 943 CURVE",
"183 730 OFFCURVE",
"211 611 OFFCURVE",
"214 436 CURVE"
);
}
);
width = 580;
}
);
note = exclam;
unicode = 0021;
},
{
glyphname = numbersign;
layers = (
{
layerId = "03879842-7D6D-4B41-A76D-F99E90B677D3";
paths = (
{
closed = 1;
nodes = (
"373 0 LINE",
"460 344 LINE",
"681 344 LINE",
"594 0 LINE",
"794 0 LINE",
"881 344 LINE",
"1098 344 LINE",
"1149 546 LINE",
"932 546 LINE",
"982 740 LINE",
"1199 740 LINE",
"1250 942 LINE",
"1033 942 LINE",
"1120 1289 LINE",
"920 1289 LINE",
"832 942 LINE",
"612 942 LINE",
"699 1289 LINE",
"498 1289 LINE",
"411 942 LINE",
"205 942 LINE",
"154 740 LINE",
"360 740 LINE",
"311 546 LINE",
"105 546 LINE",
"54 344 LINE",
"260 344 LINE",
"173 0 LINE"
);
},
{
closed = 1;
nodes = (
"561 740 LINE",
"781 740 LINE",
"732 546 LINE",
"511 546 LINE"
);
}
);
width = 1275;
}
);
note = numbersign;
unicode = 0023;
},
{
glyphname = dollar;
layers = (
{
layerId = "03879842-7D6D-4B41-A76D-F99E90B677D3";
paths = (
{
closed = 1;
nodes = (
"533 -187 LINE",
"533 -9 LINE",
"705 31 OFFCURVE",
"796 165 OFFCURVE",
"796 384 CURVE SMOOTH",
"796 547 OFFCURVE",
"708 655 OFFCURVE",
"513 738 CURVE",
"504 744 OFFCURVE",
"490 752 OFFCURVE",
"472 762 CURVE SMOOTH",
"435 781 OFFCURVE",
"419 791 OFFCURVE",
"395 810 CURVE SMOOTH",
"371 829 OFFCURVE",
"361 851 OFFCURVE",
"361 879 CURVE SMOOTH",
"361 932 OFFCURVE",
"404 959 OFFCURVE",
"489 959 CURVE SMOOTH",
"560 959 OFFCURVE",
"646 929 OFFCURVE",
"698 868 CURVE",
"748 1061 LINE",
"747 1064 OFFCURVE",
"744 1067 OFFCURVE",
"741 1071 CURVE",
"734 1079 OFFCURVE",
"707 1105 OFFCURVE",
"677 1125 CURVE SMOOTH",
"647 1144 OFFCURVE",
"592 1166 OFFCURVE",
"533 1177 CURVE",
"533 1340 LINE",
"282 1340 LINE",
"282 1168 LINE",
"175 1141 OFFCURVE",
"103 1086 OFFCURVE",
"64 993 CURVE SMOOTH",
"44 946 OFFCURVE",
"34 891 OFFCURVE",
"34 828 CURVE SMOOTH",
"34 764 OFFCURVE",
"50 704 OFFCURVE",
"71 661 CURVE SMOOTH",
"91 618 OFFCURVE",
"128 575 OFFCURVE",
"156 550 CURVE SMOOTH",
"184 525 OFFCURVE",
"230 494 OFFCURVE",
"253 482 CURVE SMOOTH",
"264 476 OFFCURVE",
"278 469 OFFCURVE",
"295 460 CURVE",
"361 428 OFFCURVE",
"408 401 OFFCURVE",
"435 378 CURVE SMOOTH",
"462 355 OFFCURVE",
"475 328 OFFCURVE",
"475 296 CURVE SMOOTH",
"475 236 OFFCURVE",
"431 217 OFFCURVE",
"324 217 CURVE SMOOTH",
"217 217 OFFCURVE",
"120 280 OFFCURVE",
"65 353 CURVE",
"40 110 LINE",
"83 63 OFFCURVE",
"163 14 OFFCURVE",
"282 -9 CURVE",
"282 -187 LINE"
);
}
);
width = 834;
}
);
note = dollar;
unicode = 0024;
},
{
glyphname = percent;
layers = (
{
layerId = "03879842-7D6D-4B41-A76D-F99E90B677D3";
paths = (
{
closed = 1;
nodes = (
"1430 80 OFFCURVE",
"1412 93 OFFCURVE",
"1401 119 CURVE SMOOTH",
"1390 144 OFFCURVE",
"1384 184 OFFCURVE",
"1384 239 CURVE SMOOTH",
"1384 515 LINE SMOOTH",
"1384 590 OFFCURVE",
"1408 627 OFFCURVE",
"1455 627 CURVE SMOOTH",
"1481 627 OFFCURVE",
"1499 614 OFFCURVE",
"1510 587 CURVE SMOOTH",
"1521 560 OFFCURVE",
"1526 519 OFFCURVE",
"1526 463 CURVE SMOOTH",
"1526 195 LINE SMOOTH",
"1526 118 OFFCURVE",
"1502 80 OFFCURVE",
"1455 80 CURVE SMOOTH"
);
},
{
closed = 1;
nodes = (
"1721 -22 OFFCURVE",
"1822 94 OFFCURVE",
"1822 359 CURVE SMOOTH",
"1822 486 OFFCURVE",
"1801 572 OFFCURVE",
"1746 637 CURVE SMOOTH",
"1691 701 OFFCURVE",
"1599 732 OFFCURVE",
"1460 732 CURVE SMOOTH",
"1317 732 OFFCURVE",
"1222 699 OFFCURVE",
"1167 631 CURVE SMOOTH",
"1111 562 OFFCURVE",
"1090 475 OFFCURVE",
"1090 347 CURVE SMOOTH",
"1090 86 OFFCURVE",
"1186 -22 OFFCURVE",
"1449 -22 CURVE SMOOTH"
);
},
{
closed = 1;
nodes = (
"400 517 OFFCURVE",
"382 530 OFFCURVE",
"371 556 CURVE SMOOTH",
"360 581 OFFCURVE",
"354 621 OFFCURVE",
"354 676 CURVE SMOOTH",
"354 952 LINE SMOOTH",
"354 1027 OFFCURVE",
"378 1064 OFFCURVE",
"425 1064 CURVE SMOOTH",
"451 1064 OFFCURVE",
"469 1051 OFFCURVE",
"480 1024 CURVE SMOOTH",
"491 997 OFFCURVE",
"496 956 OFFCURVE",
"496 900 CURVE SMOOTH",
"496 632 LINE SMOOTH",
"496 555 OFFCURVE",
"472 517 OFFCURVE",
"425 517 CURVE SMOOTH"
);
},
{
closed = 1;
nodes = (
"691 415 OFFCURVE",
"792 531 OFFCURVE",
"792 796 CURVE SMOOTH",
"792 923 OFFCURVE",
"771 1009 OFFCURVE",
"716 1074 CURVE SMOOTH",
"661 1138 OFFCURVE",
"569 1169 OFFCURVE",
"430 1169 CURVE SMOOTH",
"287 1169 OFFCURVE",
"192 1136 OFFCURVE",
"137 1068 CURVE SMOOTH",
"81 999 OFFCURVE",
"60 912 OFFCURVE",
"60 784 CURVE SMOOTH",
"60 523 OFFCURVE",
"156 415 OFFCURVE",
"419 415 CURVE SMOOTH"
);
},
{
closed = 1;
nodes = (
"419 0 LINE",
"664 0 LINE",
"1471 1170 LINE",
"1227 1170 LINE"
);
}
);
width = 1882;
}
);
note = percent;
unicode = 0025;
},
{
glyphname = ampersand;
layers = (
{
layerId = "03879842-7D6D-4B41-A76D-F99E90B677D3";
paths = (
{
closed = 1;
nodes = (
"837 0 OFFCURVE",
"912 -18 OFFCURVE",
"1010 -18 CURVE SMOOTH",
"1021 -18 OFFCURVE",
"1035 -17 OFFCURVE",
"1053 -15 CURVE",
"1130 160 LINE",
"1083 170 OFFCURVE",
"1036 195 OFFCURVE",
"989 234 CURVE",
"1030 289 OFFCURVE",
"1048 310 OFFCURVE",
"1071 392 CURVE SMOOTH",
"1082 433 OFFCURVE",
"1088 479 OFFCURVE",
"1088 531 CURVE",
"821 539 LINE",
"830 511 OFFCURVE",
"823 466 OFFCURVE",
"816 435 CURVE SMOOTH",
"812 419 OFFCURVE",
"807 403 OFFCURVE",
"801 388 CURVE",
"757 424 OFFCURVE",
"694 503 OFFCURVE",
"674 539 CURVE",
"843 644 OFFCURVE",
"922 756 OFFCURVE",
"922 905 CURVE SMOOTH",
"922 977 OFFCURVE",
"897 1042 OFFCURVE",
"844 1100 CURVE SMOOTH",
"791 1158 OFFCURVE",
"689 1195 OFFCURVE",
"558 1195 CURVE SMOOTH",
"262 1195 OFFCURVE",
"147 1090 OFFCURVE",
"147 886 CURVE SMOOTH",
"147 831 OFFCURVE",
"168 772 OFFCURVE",
"189 737 CURVE SMOOTH",
"200 720 OFFCURVE",
"211 701 OFFCURVE",
"224 681 CURVE",
"236 661 OFFCURVE",
"244 647 OFFCURVE",
"248 638 CURVE",
"124 587 OFFCURVE",
"13 484 OFFCURVE",
"13 349 CURVE SMOOTH",
"13 130 OFFCURVE",
"176 -34 OFFCURVE",
"443 -34 CURVE SMOOTH",
"613 -34 OFFCURVE",
"727 -11 OFFCURVE",
"784 36 CURVE"
);
},
{
closed = 1;
nodes = (
"310 412 OFFCURVE",
"320 438 OFFCURVE",
"352 457 CURVE",
"417 345 OFFCURVE",
"504 251 OFFCURVE",
"612 176 CURVE",
"599 169 OFFCURVE",
"573 156 OFFCURVE",
"562 152 CURVE",
"551 147 OFFCURVE",
"535 140 OFFCURVE",
"522 138 CURVE SMOOTH",
"515 137 OFFCURVE",
"508 136 OFFCURVE",
"500 136 CURVE SMOOTH",
"399 136 OFFCURVE",
"310 222 OFFCURVE",
"310 343 CURVE SMOOTH"
);
},
{
closed = 1;
nodes = (
"610 1055 OFFCURVE",
"638 1006 OFFCURVE",
"638 909 CURVE SMOOTH",
"638 845 OFFCURVE",
"637 820 OFFCURVE",
"612 772 CURVE SMOOTH",
"599 748 OFFCURVE",
"580 725 OFFCURVE",
"554 704 CURVE",
"505 761 OFFCURVE",
"480 823 OFFCURVE",
"480 891 CURVE SMOOTH",
"480 1000 OFFCURVE",
"504 1055 OFFCURVE",
"553 1055 CURVE SMOOTH"
);
}
);
width = 1133;
}
);
note = ampersand;
unicode = 0026;
},
{
glyphname = quotesingle;
layers = (
{
layerId = "03879842-7D6D-4B41-A76D-F99E90B677D3";
paths = (
{
closed = 1;
nodes = (
"100 654 LINE",
"274 654 LINE",
"323 1338 LINE",
"60 1338 LINE"
);
}
);
width = 383;
}
);
leftKerningGroup = quotesingle;
note = quotesingle;
unicode = 0027;
},
{
glyphname = parenleft;
layers = (
{
layerId = "03879842-7D6D-4B41-A76D-F99E90B677D3";
paths = (
{
closed = 1;
nodes = (
"571 -280 LINE",
"442 -81 OFFCURVE",
"363 162 OFFCURVE",
"363 569 CURVE SMOOTH",
"363 976 OFFCURVE",
"442 1219 OFFCURVE",
"571 1418 CURVE",
"383 1418 LINE",
"332 1363 OFFCURVE",
"291 1312 OFFCURVE",
"235 1207 CURVE SMOOTH",
"178 1102 OFFCURVE",
"139 996 OFFCURVE",
"111 830 CURVE SMOOTH",
"97 747 OFFCURVE",
"90 660 OFFCURVE",
"90 569 CURVE SMOOTH",
"90 215 OFFCURVE",
"188 -68 OFFCURVE",
"383 -280 CURVE"
);
}
);
width = 592;
}
);
leftKerningGroup = parenleft;
note = parenleft;
unicode = 0028;
},
{
glyphname = parenright;
layers = (
{
layerId = "03879842-7D6D-4B41-A76D-F99E90B677D3";
paths = (
{
closed = 1;
nodes = (
"209 -280 LINE",
"260 -225 OFFCURVE",
"301 -174 OFFCURVE",
"358 -69 CURVE SMOOTH",
"414 36 OFFCURVE",
"453 143 OFFCURVE",
"481 309 CURVE SMOOTH",
"495 392 OFFCURVE",
"502 478 OFFCURVE",
"502 569 CURVE SMOOTH",
"502 923 OFFCURVE",
"404 1206 OFFCURVE",
"209 1418 CURVE",
"21 1418 LINE",
"82 1323 OFFCURVE",
"126 1232 OFFCURVE",
"167 1097 CURVE SMOOTH",
"207 961 OFFCURVE",
"229 782 OFFCURVE",
"229 569 CURVE SMOOTH",
"229 162 OFFCURVE",
"150 -81 OFFCURVE",
"21 -280 CURVE"
);
}
);
width = 592;
}
);
note = parenright;
unicode = 0029;
},
{
glyphname = asterisk;
layers = (
{
layerId = "03879842-7D6D-4B41-A76D-F99E90B677D3";
paths = (
{
closed = 1;
nodes = (
"507 568 OFFCURVE",
"507 576 OFFCURVE",
"507 591 CURVE",
"506 606 OFFCURVE",
"506 621 OFFCURVE",
"505 638 CURVE SMOOTH",
"504 655 OFFCURVE",
"504 664 OFFCURVE",
"504 667 CURVE SMOOTH",
"504 709 OFFCURVE",
"508 748 OFFCURVE",
"515 785 CURVE",
"542 743 OFFCURVE",
"566 694 OFFCURVE",
"586 638 CURVE SMOOTH",
"619 543 OFFCURVE",
"646 504 OFFCURVE",
"714 504 CURVE SMOOTH",
"778 504 OFFCURVE",
"844 569 OFFCURVE",
"844 632 CURVE SMOOTH",
"844 691 OFFCURVE",
"814 716 OFFCURVE",
"737 757 CURVE SMOOTH",
"672 791 OFFCURVE",
"623 822 OFFCURVE",
"592 851 CURVE",
"600 852 OFFCURVE",
"613 852 OFFCURVE",
"630 852 CURVE SMOOTH",
"674 852 OFFCURVE",
"720 847 OFFCURVE",
"769 838 CURVE SMOOTH",
"799 832 OFFCURVE",
"821 829 OFFCURVE",
"835 829 CURVE SMOOTH",
"900 829 OFFCURVE",
"950 883 OFFCURVE",
"950 944 CURVE SMOOTH",
"950 1012 OFFCURVE",
"898 1077 OFFCURVE",
"833 1077 CURVE SMOOTH",
"816 1077 OFFCURVE",
"774 1059 OFFCURVE",
"709 1022 CURVE SMOOTH",
"643 985 OFFCURVE",
"597 963 OFFCURVE",
"572 954 CURVE",
"595 1001 OFFCURVE",
"627 1048 OFFCURVE",
"670 1095 CURVE SMOOTH",
"710 1139 OFFCURVE",
"728 1169 OFFCURVE",
"728 1210 CURVE SMOOTH",
"728 1275 OFFCURVE",
"674 1325 OFFCURVE",
"601 1325 CURVE SMOOTH",
"532 1325 OFFCURVE",
"483 1274 OFFCURVE",
"483 1202 CURVE",
"483 1203 OFFCURVE",
"483 1195 OFFCURVE",
"484 1180 CURVE",
"484 1165 OFFCURVE",
"484 1149 OFFCURVE",
"485 1133 CURVE SMOOTH",
"486 1117 OFFCURVE",
"486 1108 OFFCURVE",
"486 1105 CURVE SMOOTH",
"486 1067 OFFCURVE",
"482 1028 OFFCURVE",
"474 987 CURVE",
"451 1020 OFFCURVE",
"428 1070 OFFCURVE",
"403 1135 CURVE SMOOTH",
"363 1235 OFFCURVE",
"341 1267 OFFCURVE",
"276 1267 CURVE SMOOTH",
"211 1267 OFFCURVE",
"146 1202 OFFCURVE",
"146 1139 CURVE SMOOTH",
"146 1079 OFFCURVE",
"177 1052 OFFCURVE",
"254 1013 CURVE SMOOTH",
"315 982 OFFCURVE",
"362 951 OFFCURVE",
"397 920 CURVE",
"390 919 OFFCURVE",
"379 919 OFFCURVE",
"364 919 CURVE SMOOTH",
"343 919 OFFCURVE",
"305 923 OFFCURVE",
"251 931 CURVE SMOOTH",
"197 938 OFFCURVE",
"165 942 OFFCURVE",
"155 942 CURVE SMOOTH",
"88 942 OFFCURVE",
"40 889 OFFCURVE",
"40 828 CURVE SMOOTH",
"40 760 OFFCURVE",
"90 694 OFFCURVE",
"157 694 CURVE SMOOTH",
"174 694 OFFCURVE",
"216 713 OFFCURVE",
"285 751 CURVE SMOOTH",
"354 788 OFFCURVE",
"398 810 OFFCURVE",
"418 817 CURVE",
"397 774 OFFCURVE",
"365 727 OFFCURVE",
"322 678 CURVE SMOOTH",
"291 643 OFFCURVE",
"282 632 OFFCURVE",
"271 604 CURVE SMOOTH",
"265 590 OFFCURVE",
"262 576 OFFCURVE",
"262 561 CURVE SMOOTH",
"262 496 OFFCURVE",
"321 446 OFFCURVE",
"389 446 CURVE SMOOTH",
"458 446 OFFCURVE",
"507 497 OFFCURVE",
"507 569 CURVE"
);
}
);
width = 989;
}
);
note = asterisk;
unicode = 002A;
},
{
glyphname = plus;
layers = (
{
layerId = "03879842-7D6D-4B41-A76D-F99E90B677D3";
paths = (
{
closed = 1;
nodes = (
"463 20 LINE",
"685 20 LINE",
"685 414 LINE",
"1038 414 LINE",
"1038 615 LINE",
"685 615 LINE",
"685 1006 LINE",
"463 1006 LINE",
"463 615 LINE",
"110 615 LINE",
"110 414 LINE",
"463 414 LINE"
);
}
);
width = 1148;
}
);
note = plus;
unicode = 002B;
},
{
glyphname = comma;
layers = (
{
layerId = "03879842-7D6D-4B41-A76D-F99E90B677D3";
paths = (
{
closed = 1;
nodes = (
"180 -248 LINE",
"316 -131 OFFCURVE",
"389 34 OFFCURVE",
"389 146 CURVE SMOOTH",
"389 181 LINE",
"218 345 LINE",
"180 345 LINE",
"16 181 LINE",
"16 146 LINE",
"157 4 LINE",
"140 -84 OFFCURVE",
"86 -160 OFFCURVE",
"42 -197 CURVE"
);
}
);
width = 415;
}
);
note = comma;
unicode = 002C;
},
{
glyphname = hyphen;
layers = (
{
layerId = "03879842-7D6D-4B41-A76D-F99E90B677D3";
paths = (
{
closed = 1;
nodes = (
"80 464 LINE",
"678 464 LINE",
"678 715 LINE",
"80 715 LINE"
);
}
);
width = 758;
}
);
note = hyphen;
unicode = 002D;
},
{
glyphname = period;
layers = (
{
layerId = "03879842-7D6D-4B41-A76D-F99E90B677D3";
paths = (
{
closed = 1;
nodes = (
"180 -19 LINE",
"218 -19 LINE",
"389 146 LINE",
"389 181 LINE",
"218 345 LINE",
"180 345 LINE",
"16 181 LINE",
"16 146 LINE"
);
}
);
width = 409;
}
);
note = period;
unicode = 002E;
},
{
glyphname = slash;
layers = (
{
layerId = "03879842-7D6D-4B41-A76D-F99E90B677D3";
paths = (
{
closed = 1;
nodes = (
"27 0 LINE",
"292 0 LINE",
"682 1289 LINE",
"418 1289 LINE"
);
}
);
width = 709;
}
);
note = slash;
unicode = 002F;
},
{
glyphname = zero;
layers = (
{
layerId = "03879842-7D6D-4B41-A76D-F99E90B677D3";
paths = (
{
closed = 1;
nodes = (
"396 704 LINE SMOOTH",
"396 823 OFFCURVE",
"406 905 OFFCURVE",
"426 952 CURVE SMOOTH",
"445 999 OFFCURVE",
"477 1022 OFFCURVE",
"521 1022 CURVE SMOOTH",
"608 1022 OFFCURVE",
"651 928 OFFCURVE",
"651 739 CURVE SMOOTH",
"651 498 LINE SMOOTH",
"651 401 OFFCURVE",
"646 328 OFFCURVE",
"636 278 CURVE SMOOTH",
"616 177 OFFCURVE",
"585 157 OFFCURVE",
"521 157 CURVE SMOOTH",
"478 157 OFFCURVE",
"446 179 OFFCURVE",
"426 224 CURVE SMOOTH",
"406 268 OFFCURVE",
"396 344 OFFCURVE",
"396 453 CURVE SMOOTH"
);
},
{
closed = 1;
nodes = (
"663 -21 OFFCURVE",
"784 17 OFFCURVE",
"862 82 CURVE SMOOTH",
"940 147 OFFCURVE",
"986 255 OFFCURVE",
"1005 375 CURVE SMOOTH",
"1014 435 OFFCURVE",
"1019 505 OFFCURVE",
"1019 584 CURVE SMOOTH",
"1019 736 OFFCURVE",
"1007 842 OFFCURVE",
"966 949 CURVE SMOOTH",
"925 1056 OFFCURVE",
"861 1121 OFFCURVE",
"747 1161 CURVE SMOOTH",
"690 1181 OFFCURVE",
"622 1191 OFFCURVE",
"545 1191 CURVE SMOOTH",
"382 1191 OFFCURVE",
"261 1152 OFFCURVE",
"184 1086 CURVE SMOOTH",
"107 1020 OFFCURVE",
"61 911 OFFCURVE",
"42 791 CURVE SMOOTH",
"33 731 OFFCURVE",
"28 661 OFFCURVE",
"28 582 CURVE SMOOTH",
"28 430 OFFCURVE",
"40 322 OFFCURVE",
"81 217 CURVE SMOOTH",
"121 112 OFFCURVE",
"187 48 OFFCURVE",
"300 9 CURVE SMOOTH",
"356 -11 OFFCURVE",
"423 -21 OFFCURVE",
"500 -21 CURVE SMOOTH"
);
}
);
width = 1047;
}
);
note = zero;
unicode = 0030;
},
{
glyphname = one;
layers = (
{
layerId = "03879842-7D6D-4B41-A76D-F99E90B677D3";
paths = (
{
closed = 1;
nodes = (
"200 0 LINE",
"535 0 LINE",
"535 1171 LINE",
"314 1171 LINE",
"289 1099 OFFCURVE",
"249 1050 OFFCURVE",
"193 1022 CURVE SMOOTH",
"137 994 OFFCURVE",
"94 984 OFFCURVE",
"19 973 CURVE",
"19 760 LINE",
"200 780 LINE"
);
}
);
width = 655;
}
);
note = one;
unicode = 0031;
},
{
glyphname = two;
layers = (
{
layerId = "03879842-7D6D-4B41-A76D-F99E90B677D3";
paths = (
{
closed = 1;
nodes = (
"936 0 LINE",
"936 276 LINE",
"336 231 LINE",
"379 283 OFFCURVE",
"444 338 OFFCURVE",
"505 379 CURVE SMOOTH",
"565 419 OFFCURVE",
"636 467 OFFCURVE",
"696 507 CURVE SMOOTH",
"755 547 OFFCURVE",
"812 600 OFFCURVE",
"852 652 CURVE SMOOTH",
"891 703 OFFCURVE",
"916 772 OFFCURVE",
"916 847 CURVE SMOOTH",
"916 950 OFFCURVE",
"883 1030 OFFCURVE",
"831 1081 CURVE SMOOTH",
"779 1132 OFFCURVE",
"701 1166 OFFCURVE",
"621 1179 CURVE SMOOTH",
"581 1186 OFFCURVE",
"538 1189 OFFCURVE",
"491 1189 CURVE SMOOTH",
"286 1189 OFFCURVE",
"147 1134 OFFCURVE",
"74 1024 CURVE",
"89 789 LINE",
"271 788 LINE",
"319 994 LINE",
"349 1003 OFFCURVE",
"386 1008 OFFCURVE",
"429 1008 CURVE SMOOTH",
"532 1008 OFFCURVE",
"567 901 OFFCURVE",
"567 836 CURVE SMOOTH",
"567 723 OFFCURVE",
"483 619 OFFCURVE",
"267 442 CURVE SMOOTH",
"137 341 OFFCURVE",
"72 242 OFFCURVE",
"72 147 CURVE SMOOTH",
"72 66 OFFCURVE",
"74 21 OFFCURVE",
"77 12 CURVE",
"83 0 LINE"
);
}
);
width = 990;
}
);
note = two;
unicode = 0032;
},
{
glyphname = three;
layers = (
{
layerId = "03879842-7D6D-4B41-A76D-F99E90B677D3";
paths = (
{
closed = 1;
nodes = (
"641 -20 OFFCURVE",
"805 116 OFFCURVE",
"805 292 CURVE SMOOTH",
"805 492 OFFCURVE",
"698 600 OFFCURVE",
"527 613 CURVE",
"686 626 OFFCURVE",
"765 707 OFFCURVE",
"765 855 CURVE SMOOTH",
"765 954 OFFCURVE",
"736 1032 OFFCURVE",
"673 1093 CURVE SMOOTH",
"609 1154 OFFCURVE",
"501 1189 OFFCURVE",
"354 1189 CURVE SMOOTH",
"246 1189 OFFCURVE",
"145 1159 OFFCURVE",
"50 1098 CURVE",
"50 934 LINE",
"97 969 OFFCURVE",
"149 987 OFFCURVE",
"208 987 CURVE SMOOTH",
"329 987 OFFCURVE",
"409 934 OFFCURVE",
"409 814 CURVE SMOOTH",
"409 691 OFFCURVE",
"338 657 OFFCURVE",
"191 657 CURVE SMOOTH",
"178 657 LINE",
"178 520 LINE",
"204 520 LINE SMOOTH",
"341 520 OFFCURVE",
"409 462 OFFCURVE",
"409 347 CURVE SMOOTH",
"409 302 OFFCURVE",
"401 270 OFFCURVE",
"374 235 CURVE SMOOTH",
"347 200 OFFCURVE",
"291 180 OFFCURVE",
"208 180 CURVE SMOOTH",
"149 180 OFFCURVE",
"97 198 OFFCURVE",
"50 233 CURVE",
"50 69 LINE",
"143 10 OFFCURVE",
"245 -20 OFFCURVE",
"354 -20 CURVE SMOOTH"
);
}
);
width = 852;
}
);
note = three;
unicode = 0033;
},
{
glyphname = four;
layers = (
{
layerId = "03879842-7D6D-4B41-A76D-F99E90B677D3";
paths = (
{
closed = 1;
nodes = (
"551 418 LINE",
"257 418 LINE",
"551 860 LINE"
);
},
{
closed = 1;
nodes = (
"551 0 LINE",
"895 0 LINE",
"895 222 LINE",
"1026 222 LINE",
"1026 418 LINE",
"895 418 LINE",
"895 1172 LINE",
"594 1172 LINE",
"12 419 LINE",
"32 222 LINE",
"551 222 LINE"
);
}
);
width = 1073;
}
);
note = four;
unicode = 0034;
},
{
glyphname = five;
layers = (
{
layerId = "03879842-7D6D-4B41-A76D-F99E90B677D3";
paths = (
{
closed = 1;
nodes = (
"703 -20 OFFCURVE",
"866 136 OFFCURVE",
"866 400 CURVE SMOOTH",
"866 527 OFFCURVE",
"823 623 OFFCURVE",
"752 677 CURVE SMOOTH",
"681 731 OFFCURVE",
"597 756 OFFCURVE",
"497 756 CURVE SMOOTH",
"437 756 OFFCURVE",
"355 739 OFFCURVE",
"319 716 CURVE",
"361 925 LINE",
"778 925 LINE",
"847 1172 LINE",
"144 1172 LINE",
"78 504 LINE",
"169 541 OFFCURVE",
"252 559 OFFCURVE",
"326 559 CURVE SMOOTH",
"471 559 OFFCURVE",
"536 493 OFFCURVE",
"536 388 CURVE SMOOTH",
"536 248 OFFCURVE",
"452 193 OFFCURVE",
"273 193 CURVE SMOOTH",
"213 193 OFFCURVE",
"102 224 OFFCURVE",
"61 257 CURVE",
"61 75 LINE",
"161 12 OFFCURVE",
"263 -20 OFFCURVE",
"368 -20 CURVE SMOOTH"
);
}
);
width = 944;
}
);
note = five;
unicode = 0035;
},
{
glyphname = six;
layers = (
{
layerId = "03879842-7D6D-4B41-A76D-F99E90B677D3";
paths = (
{
closed = 1;
nodes = (
"491 181 OFFCURVE",
"445 220 OFFCURVE",
"445 265 CURVE SMOOTH",
"445 562 LINE",
"449 596 OFFCURVE",
"480 613 OFFCURVE",
"539 613 CURVE SMOOTH",
"586 613 OFFCURVE",
"632 574 OFFCURVE",
"632 529 CURVE SMOOTH",
"632 265 LINE SMOOTH",
"632 221 OFFCURVE",
"586 181 OFFCURVE",
"538 181 CURVE SMOOTH"
);
},
{
closed = 1;
nodes = (
"1009 657 OFFCURVE",
"860 812 OFFCURVE",
"659 812 CURVE SMOOTH",
"561 812 OFFCURVE",
"493 798 OFFCURVE",
"456 770 CURVE",
"456 812 LINE SMOOTH",
"456 923 OFFCURVE",
"583 988 OFFCURVE",
"688 988 CURVE SMOOTH",
"771 988 OFFCURVE",
"834 977 OFFCURVE",
"876 954 CURVE",
"933 1099 LINE",
"932 1105 LINE",
"883 1144 OFFCURVE",
"831 1166 OFFCURVE",
"749 1179 CURVE SMOOTH",
"708 1186 OFFCURVE",
"660 1189 OFFCURVE",
"605 1189 CURVE SMOOTH",
"289 1189 OFFCURVE",
"68 927 OFFCURVE",
"68 532 CURVE SMOOTH",
"68 327 OFFCURVE",
"147 152 OFFCURVE",
"291 54 CURVE SMOOTH",
"362 5 OFFCURVE",
"444 -20 OFFCURVE",
"535 -20 CURVE SMOOTH",
"806 -20 OFFCURVE",
"1009 167 OFFCURVE",
"1009 434 CURVE SMOOTH"
);
}
);
width = 1080;
}
);
note = six;
unicode = 0036;
},
{
glyphname = seven;
layers = (
{
layerId = "03879842-7D6D-4B41-A76D-F99E90B677D3";
paths = (
{
closed = 1;
nodes = (
"589 0 LINE",
"587 36 OFFCURVE",
"586 72 OFFCURVE",
"586 107 CURVE SMOOTH",
"586 334 OFFCURVE",
"621 547 OFFCURVE",
"674 692 CURVE SMOOTH",
"726 836 OFFCURVE",
"784 938 OFFCURVE",
"844 990 CURVE",
"787 1171 LINE",
"40 1171 LINE",
"40 906 LINE",
"583 929 LINE",
"435 812 OFFCURVE",
"316 594 OFFCURVE",
"252 363 CURVE SMOOTH",
"219 247 OFFCURVE",
"197 126 OFFCURVE",
"184 0 CURVE"
);
}
);
width = 859;
}
);
note = seven;
unicode = 0037;
},
{
glyphname = eight;
layers = (
{
layerId = "03879842-7D6D-4B41-A76D-F99E90B677D3";
paths = (
{
closed = 1;
nodes = (
"380 181 OFFCURVE",
"333 231 OFFCURVE",
"334 344 CURVE SMOOTH",
"335 393 OFFCURVE",
"354 432 OFFCURVE",
"392 463 CURVE",
"412 450 OFFCURVE",
"435 435 OFFCURVE",
"462 420 CURVE SMOOTH",
"515 389 OFFCURVE",
"537 377 OFFCURVE",
"566 356 CURVE SMOOTH",
"594 335 OFFCURVE",
"604 313 OFFCURVE",
"604 285 CURVE SMOOTH",
"604 217 OFFCURVE",
"551 165 OFFCURVE",
"487 170 CURVE SMOOTH"
);
},
{
closed = 1;
nodes = (
"527 757 OFFCURVE",
"517 763 OFFCURVE",
"502 771 CURVE SMOOTH",
"473 787 OFFCURVE",
"462 793 OFFCURVE",
"439 810 CURVE",
"415 826 OFFCURVE",
"405 840 OFFCURVE",
"397 862 CURVE",
"392 873 OFFCURVE",
"390 884 OFFCURVE",
"390 897 CURVE SMOOTH",
"391 958 OFFCURVE",
"444 1005 OFFCURVE",
"508 1005 CURVE SMOOTH",
"572 1005 OFFCURVE",
"647 946 OFFCURVE",
"647 878 CURVE SMOOTH",
"647 861 OFFCURVE",
"642 840 OFFCURVE",
"634 820 CURVE",
"625 800 OFFCURVE",
"614 779 OFFCURVE",
"599 759 CURVE SMOOTH",
"592 749 OFFCURVE",
"584 739 OFFCURVE",
"575 729 CURVE",
"560 738 OFFCURVE",
"546 746 OFFCURVE",
"534 753 CURVE SMOOTH"
);
},
{
closed = 1;
nodes = (
"668 -21 OFFCURVE",
"808 28 OFFCURVE",
"889 137 CURVE SMOOTH",
"930 192 OFFCURVE",
"950 259 OFFCURVE",
"950 338 CURVE SMOOTH",
"950 411 OFFCURVE",
"925 474 OFFCURVE",
"877 526 CURVE SMOOTH",
"828 577 OFFCURVE",
"781 611 OFFCURVE",
"708 654 CURVE",
"779 690 OFFCURVE",
"830 733 OFFCURVE",
"859 777 CURVE SMOOTH",
"887 821 OFFCURVE",
"899 864 OFFCURVE",
"900 911 CURVE SMOOTH",
"901 980 OFFCURVE",
"865 1047 OFFCURVE",
"801 1099 CURVE SMOOTH",
"737 1151 OFFCURVE",
"632 1185 OFFCURVE",
"509 1185 CURVE SMOOTH",
"238 1185 OFFCURVE",
"83 1065 OFFCURVE",
"79 856 CURVE SMOOTH",
"78 777 OFFCURVE",
"95 712 OFFCURVE",
"130 664 CURVE SMOOTH",
"165 615 OFFCURVE",
"200 584 OFFCURVE",
"252 548 CURVE",
"165 525 OFFCURVE",
"97 460 OFFCURVE",
"68 395 CURVE SMOOTH",
"53 362 OFFCURVE",
"46 330 OFFCURVE",
"46 297 CURVE SMOOTH",
"46 168 OFFCURVE",
"133 65 OFFCURVE",
"266 16 CURVE SMOOTH",
"332 -9 OFFCURVE",
"406 -21 OFFCURVE",
"487 -21 CURVE SMOOTH"
);
}
);
width = 1005;
}
);
note = eight;
unicode = 0038;
},
{
glyphname = nine;
layers = (
{
layerId = "03879842-7D6D-4B41-A76D-F99E90B677D3";
paths = (
{
closed = 1;
nodes = (
"689 -20 OFFCURVE",
"854 105 OFFCURVE",
"939 313 CURVE SMOOTH",
"981 417 OFFCURVE",
"1002 535 OFFCURVE",
"1002 667 CURVE SMOOTH",
"1002 976 OFFCURVE",
"814 1189 OFFCURVE",
"535 1189 CURVE SMOOTH",
"356 1189 OFFCURVE",
"208 1119 OFFCURVE",
"124 986 CURVE SMOOTH",
"82 919 OFFCURVE",
"61 842 OFFCURVE",
"61 755 CURVE SMOOTH",
"61 530 OFFCURVE",
"212 357 OFFCURVE",
"411 357 CURVE SMOOTH",
"480 357 OFFCURVE",
"563 380 OFFCURVE",
"614 419 CURVE",
"614 377 LINE SMOOTH",
"614 309 OFFCURVE",
"562 243 OFFCURVE",
"491 208 CURVE SMOOTH",
"455 190 OFFCURVE",
"419 181 OFFCURVE",
"382 181 CURVE SMOOTH",
"380 181 OFFCURVE",
"375 181 OFFCURVE",
"367 181 CURVE",
"351 180 OFFCURVE",
"345 181 OFFCURVE",
"326 182 CURVE SMOOTH",
"306 183 OFFCURVE",
"291 189 OFFCURVE",
"269 197 CURVE",
"247 204 OFFCURVE",
"221 218 OFFCURVE",
"194 235 CURVE",
"137 90 LINE",
"138 84 LINE",
"227 15 OFFCURVE",
"343 -20 OFFCURVE",
"485 -20 CURVE SMOOTH"
);
},
{
closed = 1;
nodes = (
"579 988 OFFCURVE",
"625 949 OFFCURVE",
"625 904 CURVE SMOOTH",
"625 627 LINE",
"620 588 OFFCURVE",
"574 556 OFFCURVE",
"531 556 CURVE SMOOTH",
"484 556 OFFCURVE",
"438 595 OFFCURVE",
"438 640 CURVE SMOOTH",
"438 904 LINE SMOOTH",
"438 948 OFFCURVE",
"484 988 OFFCURVE",
"532 988 CURVE SMOOTH"
);
}
);
width = 1100;
}
);
note = nine;
unicode = 0039;
},
{
glyphname = colon;
layers = (
{
layerId = "03879842-7D6D-4B41-A76D-F99E90B677D3";
paths = (
{
closed = 1;
nodes = (
"180 -19 LINE",
"218 -19 LINE",
"389 146 LINE",
"389 181 LINE",
"218 345 LINE",
"180 345 LINE",
"16 181 LINE",
"16 146 LINE"
);
},
{
closed = 1;
nodes = (
"180 487 LINE",
"218 487 LINE",
"389 652 LINE",
"389 687 LINE",
"218 851 LINE",
"180 851 LINE",
"16 687 LINE",
"16 652 LINE"
);
}
);
width = 409;
}
);
note = colon;
unicode = 003A;
},
{
glyphname = less;
layers = (
{
layerId = "03879842-7D6D-4B41-A76D-F99E90B677D3";
paths = (
{
closed = 1;
nodes = (
"521 0 LINE",
"838 0 LINE",
"343 494 LINE",
"836 986 LINE",
"522 986 LINE",
"26 494 LINE"
);
}
);
width = 914;
}
);
leftKerningGroup = less;
note = less;
unicode = 003C;
},
{
glyphname = equal;
layers = (
{
layerId = "03879842-7D6D-4B41-A76D-F99E90B677D3";
paths = (
{
closed = 1;
nodes = (
"160 213 LINE",
"988 213 LINE",
"988 414 LINE",
"160 414 LINE"
);
},
{
closed = 1;
nodes = (
"160 617 LINE",
"988 617 LINE",
"988 818 LINE",
"160 818 LINE"
);
}
);
width = 1148;
}
);
note = equal;
unicode = 003D;
},
{
glyphname = greater;
layers = (
{
layerId = "03879842-7D6D-4B41-A76D-F99E90B677D3";
paths = (
{
closed = 1;
nodes = (
"76 0 LINE",
"393 0 LINE",
"888 494 LINE",
"392 986 LINE",
"78 986 LINE",
"571 494 LINE"
);
}
);
width = 914;
}
);
note = greater;
unicode = 003E;
},
{
glyphname = question;
layers = (
{
layerId = "03879842-7D6D-4B41-A76D-F99E90B677D3";
paths = (
{
closed = 1;
nodes = (
"399 -19 LINE",
"437 -19 LINE",
"608 146 LINE",
"608 181 LINE",
"437 345 LINE",
"399 345 LINE",
"235 181 LINE",
"235 146 LINE"
);
},
{
closed = 1;
nodes = (
"502 461 LINE",
"498 474 LINE",
"496 479 OFFCURVE",
"495 485 OFFCURVE",
"495 491 CURVE SMOOTH",
"495 526 OFFCURVE",
"536 580 OFFCURVE",
"588 635 CURVE SMOOTH",
"639 690 OFFCURVE",
"695 747 OFFCURVE",
"731 814 CURVE SMOOTH",
"749 847 OFFCURVE",
"758 878 OFFCURVE",
"758 907 CURVE SMOOTH",
"758 1095 OFFCURVE",
"640 1189 OFFCURVE",
"404 1189 CURVE SMOOTH",
"237 1189 OFFCURVE",
"123 1124 OFFCURVE",
"62 995 CURVE",
"198 913 LINE",
"213 962 OFFCURVE",
"263 995 OFFCURVE",
"311 995 CURVE SMOOTH",
"375 995 OFFCURVE",
"416 961 OFFCURVE",
"416 888 CURVE SMOOTH",
"416 865 OFFCURVE",
"398 812 OFFCURVE",
"363 730 CURVE SMOOTH",
"327 648 OFFCURVE",
"309 595 OFFCURVE",
"309 571 CURVE SMOOTH",
"309 525 OFFCURVE",
"316 489 OFFCURVE",
"331 462 CURVE"
);
}
);
width = 848;
}
);
note = question;
unicode = 003F;
},
{
glyphname = at;
layers = (
{
layerId = "03879842-7D6D-4B41-A76D-F99E90B677D3";
paths = (
{
closed = 1;
nodes = (
"747 157 OFFCURVE",
"721 192 OFFCURVE",
"721 261 CURVE SMOOTH",
"721 360 OFFCURVE",
"769 409 OFFCURVE",
"864 409 CURVE",
"848 181 LINE",
"848 179 LINE",
"842 174 LINE SMOOTH",
"833 166 OFFCURVE",
"815 157 OFFCURVE",
"798 157 CURVE SMOOTH"
);
},
{
closed = 1;
nodes = (
"915 -331 OFFCURVE",
"1000 -327 OFFCURVE",
"1059 -320 CURVE",
"1074 -187 LINE",
"996 -196 OFFCURVE",
"922 -200 OFFCURVE",
"851 -200 CURVE SMOOTH",
"668 -200 OFFCURVE",
"535 -169 OFFCURVE",
"451 -119 CURVE SMOOTH",
"367 -69 OFFCURVE",
"319 16 OFFCURVE",
"300 107 CURVE SMOOTH",
"291 152 OFFCURVE",
"286 206 OFFCURVE",
"286 268 CURVE SMOOTH",
"286 533 OFFCURVE",
"322 718 OFFCURVE",
"411 854 CURVE SMOOTH",
"499 990 OFFCURVE",
"645 1055 OFFCURVE",
"860 1055 CURVE SMOOTH",
"1007 1055 OFFCURVE",
"1106 1036 OFFCURVE",
"1174 998 CURVE SMOOTH",
"1242 960 OFFCURVE",
"1277 889 OFFCURVE",
"1293 805 CURVE SMOOTH",
"1300 762 OFFCURVE",
"1304 710 OFFCURVE",
"1304 648 CURVE SMOOTH",
"1304 644 OFFCURVE",
"1304 638 OFFCURVE",
"1304 629 CURVE SMOOTH",
"1304 600 OFFCURVE",
"1304 577 OFFCURVE",
"1304 562 CURVE SMOOTH",
"1304 530 OFFCURVE",
"1301 456 OFFCURVE",
"1297 420 CURVE SMOOTH",
"1293 383 OFFCURVE",
"1284 319 OFFCURVE",
"1272 286 CURVE SMOOTH",
"1260 253 OFFCURVE",
"1240 209 OFFCURVE",
"1216 188 CURVE SMOOTH",
"1191 167 OFFCURVE",
"1156 150 OFFCURVE",
"1115 150 CURVE",
"1143 599 LINE",
"1143 803 OFFCURVE",
"1080 872 OFFCURVE",
"860 872 CURVE SMOOTH",
"734 872 OFFCURVE",
"612 835 OFFCURVE",
"493 761 CURVE",
"548 625 LINE",
"611 658 OFFCURVE",
"676 674 OFFCURVE",
"745 674 CURVE SMOOTH",
"834 674 OFFCURVE",
"874 639 OFFCURVE",
"874 566 CURVE SMOOTH",
"874 560 OFFCURVE",
"873 550 OFFCURVE",
"872 535 CURVE",
"815 535 OFFCURVE",
"762 530 OFFCURVE",
"690 515 CURVE SMOOTH",
"618 500 OFFCURVE",
"559 469 OFFCURVE",
"507 425 CURVE SMOOTH",
"455 381 OFFCURVE",
"423 309 OFFCURVE",
"423 221 CURVE SMOOTH",
"423 142 OFFCURVE",
"455 79 OFFCURVE",
"503 44 CURVE SMOOTH",
"550 8 OFFCURVE",
"603 -9 OFFCURVE",
"655 -9 CURVE SMOOTH",
"739 -9 OFFCURVE",
"832 33 OFFCURVE",
"872 66 CURVE SMOOTH",
"903 91 LINE",
"904 90 OFFCURVE",
"908 85 OFFCURVE",
"915 74 CURVE SMOOTH",
"922 63 OFFCURVE",
"926 57 OFFCURVE",
"928 55 CURVE SMOOTH",
"930 53 OFFCURVE",
"935 48 OFFCURVE",
"943 40 CURVE",
"950 31 OFFCURVE",
"958 26 OFFCURVE",
"965 24 CURVE",
"972 21 OFFCURVE",
"981 18 OFFCURVE",
"993 13 CURVE SMOOTH",
"1016 4 OFFCURVE",
"1047 2 OFFCURVE",
"1084 2 CURVE SMOOTH",
"1379 2 OFFCURVE",
"1535 220 OFFCURVE",
"1535 575 CURVE SMOOTH",
"1535 994 OFFCURVE",
"1324 1204 OFFCURVE",
"902 1204 CURVE SMOOTH",
"654 1204 OFFCURVE",
"445 1131 OFFCURVE",
"290 990 CURVE SMOOTH",
"134 849 OFFCURVE",
"43 616 OFFCURVE",
"43 320 CURVE SMOOTH",
"43 -100 OFFCURVE",
"299 -331 OFFCURVE",
"804 -331 CURVE SMOOTH"
);
}
);
width = 1571;
}
);
note = at;
unicode = 0040;
},
{
glyphname = A;
layers = (
{
layerId = "03879842-7D6D-4B41-A76D-F99E90B677D3";
paths = (
{
closed = 1;
nodes = (
"642 0 LINE",
"1009 0 LINE",
"675 1172 LINE",
"262 1172 LINE",
"286 1091 LINE",
"-19 0 LINE",
"275 0 LINE",
"313 187 LINE",
"597 187 LINE"
);
},
{
closed = 1;
nodes = (
"442 828 LINE",
"548 391 LINE",
"354 391 LINE"
);
}
);
width = 981;
}
);
note = A;
unicode = 0041;
},
{
glyphname = B;
layers = (
{
layerId = "03879842-7D6D-4B41-A76D-F99E90B677D3";
paths = (
{
closed = 1;
nodes = (
"397 196 LINE",
"397 521 LINE",
"475 521 LINE SMOOTH",
"546 521 OFFCURVE",
"612 488 OFFCURVE",
"612 401 CURVE SMOOTH",
"612 331 LINE SMOOTH",
"612 258 OFFCURVE",
"570 196 OFFCURVE",
"475 196 CURVE SMOOTH"
);
},
{
closed = 1;
nodes = (
"598 847 LINE SMOOTH",
"598 759 OFFCURVE",
"555 690 OFFCURVE",
"478 690 CURVE SMOOTH",
"397 690 LINE",
"397 979 LINE",
"470 979 LINE SMOOTH",
"553 979 OFFCURVE",
"598 952 OFFCURVE",
"598 872 CURVE SMOOTH"
);
},
{
closed = 1;
nodes = (
"688 -9 OFFCURVE",
"798 29 OFFCURVE",
"862 94 CURVE SMOOTH",
"925 158 OFFCURVE",
"955 241 OFFCURVE",
"955 344 CURVE SMOOTH",
"955 515 OFFCURVE",
"876 607 OFFCURVE",
"719 621 CURVE",
"843 646 OFFCURVE",
"910 757 OFFCURVE",
"910 898 CURVE SMOOTH",
"910 990 OFFCURVE",
"886 1054 OFFCURVE",
"825 1105 CURVE SMOOTH",
"764 1156 OFFCURVE",
"657 1181 OFFCURVE",
"501 1181 CURVE SMOOTH",
"477 1181 OFFCURVE",
"438 1180 OFFCURVE",
"384 1177 CURVE SMOOTH",
"330 1174 OFFCURVE",
"282 1172 OFFCURVE",
"240 1172 CURVE SMOOTH",
"67 1172 LINE",
"67 0 LINE",
"163 0 LINE SMOOTH",
"199 -1 OFFCURVE",
"258 -2 OFFCURVE",
"341 -5 CURVE SMOOTH",
"424 -8 OFFCURVE",
"491 -9 OFFCURVE",
"543 -9 CURVE SMOOTH"
);
}
);
width = 981;
}
);
note = B;
unicode = 0042;
},
{
glyphname = C;
layers = (
{
layerId = "03879842-7D6D-4B41-A76D-F99E90B677D3";
paths = (
{
closed = 1;
nodes = (
"807 83 LINE",
"762 241 LINE",
"714 206 OFFCURVE",
"631 190 OFFCURVE",
"563 190 CURVE SMOOTH",
"532 190 OFFCURVE",
"508 195 OFFCURVE",
"475 227 CURVE SMOOTH",
"442 259 OFFCURVE",
"418 305 OFFCURVE",
"402 404 CURVE SMOOTH",
"393 453 OFFCURVE",
"389 511 OFFCURVE",
"389 577 CURVE SMOOTH",
"389 688 OFFCURVE",
"395 773 OFFCURVE",
"408 832 CURVE SMOOTH",
"433 950 OFFCURVE",
"477 981 OFFCURVE",
"566 981 CURVE SMOOTH",
"574 981 OFFCURVE",
"584 979 OFFCURVE",
"596 976 CURVE",
"648 857 LINE",
"800 857 LINE",
"815 1087 LINE",
"813 1090 OFFCURVE",
"810 1093 OFFCURVE",
"806 1098 CURVE",
"797 1107 OFFCURVE",
"759 1136 OFFCURVE",
"717 1155 CURVE SMOOTH",
"675 1174 OFFCURVE",
"597 1191 OFFCURVE",
"514 1191 CURVE SMOOTH",
"334 1191 OFFCURVE",
"209 1136 OFFCURVE",
"138 1028 CURVE SMOOTH",
"66 919 OFFCURVE",
"38 780 OFFCURVE",
"38 583 CURVE SMOOTH",
"38 398 OFFCURVE",
"67 261 OFFCURVE",
"137 150 CURVE SMOOTH",
"207 38 OFFCURVE",
"331 -21 OFFCURVE",
"506 -21 CURVE SMOOTH",
"589 -21 OFFCURVE",
"665 -5 OFFCURVE",
"709 16 CURVE SMOOTH",
"752 36 OFFCURVE",
"785 59 OFFCURVE",
"798 72 CURVE"
);
}
);
width = 830;
}
);
note = C;
unicode = 0043;
},
{
glyphname = D;
layers = (
{
layerId = "03879842-7D6D-4B41-A76D-F99E90B677D3";
paths = (
{
closed = 1;
nodes = (
"398 164 LINE",
"398 999 LINE",
"473 999 LINE SMOOTH",
"520 999 OFFCURVE",
"556 970 OFFCURVE",
"581 913 CURVE SMOOTH",
"606 856 OFFCURVE",
"619 774 OFFCURVE",
"619 669 CURVE SMOOTH",
"619 568 LINE SMOOTH",
"619 424 OFFCURVE",
"606 321 OFFCURVE",
"579 258 CURVE SMOOTH",
"552 195 OFFCURVE",
"513 164 OFFCURVE",
"462 164 CURVE SMOOTH"
);
},
{
closed = 1;
nodes = (
"640 -7 OFFCURVE",
"758 49 OFFCURVE",
"827 130 CURVE SMOOTH",
"896 211 OFFCURVE",
"943 332 OFFCURVE",
"960 444 CURVE SMOOTH",
"968 500 OFFCURVE",
"972 559 OFFCURVE",
"972 621 CURVE SMOOTH",
"972 986 OFFCURVE",
"836 1181 OFFCURVE",
"496 1181 CURVE SMOOTH",
"466 1181 OFFCURVE",
"425 1180 OFFCURVE",
"372 1177 CURVE SMOOTH",
"319 1174 OFFCURVE",
"271 1173 OFFCURVE",
"226 1172 CURVE SMOOTH",
"67 1172 LINE",
"67 0 LINE",
"226 0 LINE SMOOTH",
"279 0 OFFCURVE",
"331 -1 OFFCURVE",
"382 -3 CURVE SMOOTH",
"432 -6 OFFCURVE",
"469 -7 OFFCURVE",
"493 -7 CURVE SMOOTH"
);
}
);
width = 999;
}
);
note = D;
unicode = 0044;
},
{
glyphname = E;
layers = (
{
layerId = "03879842-7D6D-4B41-A76D-F99E90B677D3";
paths = (
{
closed = 1;
nodes = (
"776 0 LINE",
"776 250 LINE",
"398 240 LINE",
"398 506 LINE",
"668 486 LINE",
"668 720 LINE",
"398 720 LINE",
"398 946 LINE",
"741 936 LINE",
"761 1172 LINE",
"67 1172 LINE",
"67 0 LINE"
);
}
);
width = 800;
}
);
note = E;
unicode = 0045;
},
{
glyphname = F;
layers = (
{
layerId = "03879842-7D6D-4B41-A76D-F99E90B677D3";
paths = (
{
closed = 1;
nodes = (
"398 0 LINE",
"398 437 LINE",
"668 417 LINE",
"668 665 LINE",
"398 665 LINE",
"398 937 LINE",
"727 917 LINE",
"727 1172 LINE",
"67 1172 LINE",
"67 0 LINE"
);
}
);
width = 741;
}
);
note = F;
unicode = 0046;
},
{
glyphname = G;
layers = (
{
layerId = "03879842-7D6D-4B41-A76D-F99E90B677D3";
paths = (
{
closed = 1;
nodes = (
"793 0 LINE",
"971 0 LINE",
"972 688 LINE",
"527 688 LINE",
"527 484 LINE",
"659 454 LINE",
"659 352 LINE SMOOTH",
"659 280 OFFCURVE",
"646 235 OFFCURVE",
"618 212 CURVE SMOOTH",
"590 188 OFFCURVE",
"561 181 OFFCURVE",
"514 181 CURVE SMOOTH",
"467 181 OFFCURVE",
"435 216 OFFCURVE",
"420 286 CURVE SMOOTH",
"404 356 OFFCURVE",
"396 463 OFFCURVE",
"396 608 CURVE SMOOTH",
"396 747 OFFCURVE",
"409 843 OFFCURVE",
"429 900 CURVE SMOOTH",
"448 956 OFFCURVE",
"485 985 OFFCURVE",
"520 994 CURVE SMOOTH",
"537 999 OFFCURVE",
"559 1001 OFFCURVE",
"586 1001 CURVE SMOOTH",
"619 1001 OFFCURVE",
"642 997 OFFCURVE",
"657 989 CURVE",
"714 856 LINE",
"896 856 LINE",
"911 1086 LINE",
"910 1087 OFFCURVE",
"908 1089 OFFCURVE",
"906 1092 CURVE",
"901 1097 OFFCURVE",
"880 1115 OFFCURVE",
"858 1128 CURVE SMOOTH",
"836 1140 OFFCURVE",
"795 1159 OFFCURVE",
"752 1171 CURVE SMOOTH",
"709 1182 OFFCURVE",
"646 1191 OFFCURVE",
"579 1191 CURVE SMOOTH",
"431 1191 OFFCURVE",
"314 1165 OFFCURVE",
"233 1113 CURVE SMOOTH",
"152 1061 OFFCURVE",
"96 993 OFFCURVE",
"64 897 CURVE SMOOTH",
"32 801 OFFCURVE",
"19 700 OFFCURVE",
"19 568 CURVE SMOOTH",
"19 391 OFFCURVE",
"50 254 OFFCURVE",
"121 146 CURVE SMOOTH",
"192 38 OFFCURVE",
"314 -21 OFFCURVE",
"479 -21 CURVE SMOOTH",
"596 -21 OFFCURVE",
"696 21 OFFCURVE",
"781 106 CURVE"
);
}
);
width = 1005;
}
);
note = G;
unicode = 0047;
},
{
glyphname = H;
layers = (
{
layerId = "03879842-7D6D-4B41-A76D-F99E90B677D3";
paths = (
{
closed = 1;
nodes = (
"398 0 LINE",
"398 478 LINE",
"655 478 LINE",
"655 0 LINE",
"986 0 LINE",
"986 1172 LINE",
"655 1172 LINE",
"655 708 LINE",
"398 708 LINE",
"398 1172 LINE",
"67 1172 LINE",
"67 0 LINE"
);
}
);
width = 1053;
}
);
note = H;
unicode = 0048;
},
{
glyphname = I;
layers = (
{
layerId = "03879842-7D6D-4B41-A76D-F99E90B677D3";
paths = (
{
closed = 1;
nodes = (
"70 0 LINE",
"411 0 LINE",
"411 1172 LINE",
"70 1172 LINE"
);
}
);
width = 480;
}
);
note = I;
unicode = 0049;
},
{
glyphname = J;
layers = (
{
layerId = "03879842-7D6D-4B41-A76D-F99E90B677D3";
paths = (
{
closed = 1;
nodes = (
"382 -19 OFFCURVE",
"463 12 OFFCURVE",
"511 58 CURVE SMOOTH",
"559 104 OFFCURVE",
"589 179 OFFCURVE",
"599 252 CURVE SMOOTH",
"604 288 OFFCURVE",
"606 329 OFFCURVE",
"606 376 CURVE SMOOTH",
"606 1172 LINE",
"233 1172 LINE",
"281 1084 LINE",
"281 357 LINE SMOOTH",
"281 256 OFFCURVE",
"236 217 OFFCURVE",
"164 217 CURVE SMOOTH",
"121 217 OFFCURVE",
"103 223 OFFCURVE",
"59 247 CURVE",
"62 40 LINE",
"90 13 OFFCURVE",
"177 -19 OFFCURVE",
"274 -19 CURVE SMOOTH"
);
}
);
width = 661;
}
);
note = J;
unicode = 004A;
},
{
glyphname = K;
layers = (
{
layerId = "03879842-7D6D-4B41-A76D-F99E90B677D3";
paths = (
{
closed = 1;
nodes = (
"1002 0 LINE",
"974 41 OFFCURVE",
"905 195 OFFCURVE",
"849 326 CURVE SMOOTH",
"793 457 OFFCURVE",
"721 595 OFFCURVE",
"682 622 CURVE",
"980 1172 LINE",
"647 1172 LINE",
"398 611 LINE",
"398 1172 LINE",
"67 1172 LINE",
"67 0 LINE",
"398 0 LINE",
"398 546 LINE",
"451 457 OFFCURVE",
"530 254 OFFCURVE",
"583 118 CURVE SMOOTH",
"609 49 OFFCURVE",
"626 10 OFFCURVE",
"634 0 CURVE"
);
}
);
width = 986;
}
);
note = K;
unicode = 004B;
},
{
glyphname = L;
layers = (
{
layerId = "03879842-7D6D-4B41-A76D-F99E90B677D3";
paths = (
{
closed = 1;
nodes = (
"67 0 LINE",
"696 0 LINE",
"696 268 LINE",
"398 268 LINE",
"398 1172 LINE",
"67 1172 LINE"
);
}
);
width = 722;
}
);
note = L;
unicode = 004C;
},
{
glyphname = M;
layers = (
{
layerId = "03879842-7D6D-4B41-A76D-F99E90B677D3";
paths = (
{
closed = 1;
nodes = (
"321 0 LINE",
"352 689 LINE",
"358 943 LINE",
"542 117 LINE",
"803 117 LINE",
"956 943 LINE",
"968 689 LINE",
"1019 0 LINE",
"1330 0 LINE",
"1244 1172 LINE",
"826 1172 LINE",
"748 778 LINE",
"710 580 LINE",
"670 779 LINE",
"582 1172 LINE",
"113 1172 LINE",
"20 0 LINE"
);
}
);
width = 1350;
}
);
note = M;
unicode = 004D;
},
{
glyphname = N;
layers = (
{
layerId = "03879842-7D6D-4B41-A76D-F99E90B677D3";
paths = (
{
closed = 1;
nodes = (
"385 0 LINE",
"385 369 LINE",
"326 753 LINE",
"473 463 LINE",
"711 0 LINE",
"1016 0 LINE",
"1016 1172 LINE",
"697 1172 LINE",
"697 858 LINE",
"746 413 LINE",
"570 792 LINE",
"386 1172 LINE",
"18 1172 LINE",
"67 1078 LINE",
"67 0 LINE"
);
}
);
width = 1083;
}
);
note = N;
unicode = 004E;
},
{
glyphname = O;
layers = (
{
layerId = "03879842-7D6D-4B41-A76D-F99E90B677D3";
paths = (
{
closed = 1;
nodes = (
"406 704 LINE SMOOTH",
"406 825 OFFCURVE",
"415 908 OFFCURVE",
"432 954 CURVE SMOOTH",
"449 999 OFFCURVE",
"478 1022 OFFCURVE",
"521 1022 CURVE SMOOTH",
"564 1022 OFFCURVE",
"594 999 OFFCURVE",
"613 952 CURVE SMOOTH",
"632 905 OFFCURVE",
"641 834 OFFCURVE",
"641 739 CURVE SMOOTH",
"641 498 LINE SMOOTH",
"641 400 OFFCURVE",
"637 327 OFFCURVE",
"629 278 CURVE SMOOTH",
"612 180 OFFCURVE",
"584 157 OFFCURVE",
"521 157 CURVE SMOOTH",
"478 157 OFFCURVE",
"449 179 OFFCURVE",
"432 222 CURVE SMOOTH",
"415 265 OFFCURVE",
"406 342 OFFCURVE",
"406 453 CURVE SMOOTH"
);
},
{
closed = 1;
nodes = (
"663 -21 OFFCURVE",
"782 18 OFFCURVE",
"858 83 CURVE SMOOTH",
"934 147 OFFCURVE",
"979 256 OFFCURVE",
"996 375 CURVE SMOOTH",
"1005 434 OFFCURVE",
"1009 504 OFFCURVE",
"1009 584 CURVE SMOOTH",
"1009 692 OFFCURVE",
"1003 771 OFFCURVE",
"986 858 CURVE SMOOTH",
"969 945 OFFCURVE",
"942 1006 OFFCURVE",
"895 1063 CURVE SMOOTH",
"847 1120 OFFCURVE",
"785 1155 OFFCURVE",
"696 1176 CURVE SMOOTH",
"651 1186 OFFCURVE",
"601 1191 OFFCURVE",
"545 1191 CURVE SMOOTH",
"382 1191 OFFCURVE",
"263 1151 OFFCURVE",
"188 1086 CURVE SMOOTH",
"112 1021 OFFCURVE",
"67 910 OFFCURVE",
"51 791 CURVE SMOOTH",
"42 732 OFFCURVE",
"38 662 OFFCURVE",
"38 582 CURVE SMOOTH",
"38 474 OFFCURVE",
"44 394 OFFCURVE",
"61 308 CURVE SMOOTH",
"78 222 OFFCURVE",
"105 161 OFFCURVE",
"153 105 CURVE SMOOTH",
"200 49 OFFCURVE",
"262 14 OFFCURVE",
"351 -6 CURVE SMOOTH",
"395 -16 OFFCURVE",
"445 -21 OFFCURVE",
"500 -21 CURVE SMOOTH"
);
}
);
width = 1047;
}
);
note = O;
unicode = 004F;
},
{
glyphname = P;
layers = (
{
layerId = "03879842-7D6D-4B41-A76D-F99E90B677D3";
paths = (
{
closed = 1;
nodes = (
"398 0 LINE",
"398 248 LINE",
"399 248 OFFCURVE",
"403 248 OFFCURVE",
"410 247 CURVE SMOOTH",
"417 246 OFFCURVE",
"422 246 OFFCURVE",
"425 246 CURVE SMOOTH",
"430 246 OFFCURVE",
"450 245 OFFCURVE",
"459 245 CURVE",
"463 244 OFFCURVE",
"469 244 OFFCURVE",
"477 244 CURVE",
"484 243 OFFCURVE",
"491 243 OFFCURVE",
"497 243 CURVE",
"502 242 OFFCURVE",
"509 242 OFFCURVE",
"516 242 CURVE SMOOTH",
"523 242 OFFCURVE",
"529 242 OFFCURVE",
"536 242 CURVE SMOOTH",
"640 242 OFFCURVE",
"736 290 OFFCURVE",
"809 377 CURVE SMOOTH",
"882 464 OFFCURVE",
"929 604 OFFCURVE",
"929 769 CURVE SMOOTH",
"929 1044 OFFCURVE",
"794 1181 OFFCURVE",
"535 1181 CURVE SMOOTH",
"489 1181 OFFCURVE",
"430 1180 OFFCURVE",
"359 1177 CURVE SMOOTH",
"288 1174 OFFCURVE",
"234 1172 OFFCURVE",
"199 1172 CURVE SMOOTH",
"67 1172 LINE",
"67 0 LINE"
);
},
{
closed = 1;
nodes = (
"601 665 LINE SMOOTH",
"601 532 OFFCURVE",
"540 459 OFFCURVE",
"435 459 CURVE SMOOTH",
"398 459 LINE",
"398 979 LINE",
"446 979 LINE SMOOTH",
"546 979 OFFCURVE",
"601 912 OFFCURVE",
"601 813 CURVE SMOOTH"
);
}
);
width = 938;
}
);
note = P;
unicode = 0050;
},
{
glyphname = Q;
layers = (
{
layerId = "03879842-7D6D-4B41-A76D-F99E90B677D3";
paths = (
{
closed = 1;
nodes = (
"478 147 OFFCURVE",
"449 169 OFFCURVE",
"432 212 CURVE SMOOTH",
"415 255 OFFCURVE",
"406 332 OFFCURVE",
"406 443 CURVE SMOOTH",
"406 704 LINE SMOOTH",
"406 856 OFFCURVE",
"421 951 OFFCURVE",
"451 990 CURVE SMOOTH",
"468 1011 OFFCURVE",
"491 1022 OFFCURVE",
"521 1022 CURVE SMOOTH",
"564 1022 OFFCURVE",
"594 999 OFFCURVE",
"613 952 CURVE SMOOTH",
"632 905 OFFCURVE",
"641 834 OFFCURVE",
"641 739 CURVE SMOOTH",
"641 488 LINE SMOOTH",
"641 328 OFFCURVE",
"629 228 OFFCURVE",
"604 187 CURVE SMOOTH",
"587 160 OFFCURVE",
"560 147 OFFCURVE",
"521 147 CURVE SMOOTH"
);
},
{
closed = 1;
nodes = (
"733 -324 OFFCURVE",
"814 -300 OFFCURVE",
"869 -253 CURVE",
"870 -252 OFFCURVE",
"871 -251 OFFCURVE",
"872 -250 CURVE",
"872 -114 LINE",
"860 -122 OFFCURVE",
"847 -127 OFFCURVE",
"831 -130 CURVE SMOOTH",
"822 -132 OFFCURVE",
"813 -133 OFFCURVE",
"804 -133 CURVE SMOOTH",
"739 -133 OFFCURVE",
"708 -108 OFFCURVE",
"708 -1 CURVE SMOOTH",
"708 4 LINE",
"803 32 OFFCURVE",
"873 83 OFFCURVE",
"918 150 CURVE SMOOTH",
"962 217 OFFCURVE",
"990 312 OFFCURVE",
"1001 413 CURVE SMOOTH",
"1006 463 OFFCURVE",
"1009 520 OFFCURVE",
"1009 584 CURVE SMOOTH",
"1009 692 OFFCURVE",
"1003 771 OFFCURVE",
"986 858 CURVE SMOOTH",
"969 945 OFFCURVE",
"942 1006 OFFCURVE",
"895 1063 CURVE SMOOTH",
"847 1120 OFFCURVE",
"785 1155 OFFCURVE",
"696 1176 CURVE SMOOTH",
"651 1186 OFFCURVE",
"601 1191 OFFCURVE",
"545 1191 CURVE SMOOTH",
"382 1191 OFFCURVE",
"263 1151 OFFCURVE",
"188 1086 CURVE SMOOTH",
"112 1021 OFFCURVE",
"67 910 OFFCURVE",
"51 791 CURVE SMOOTH",
"42 732 OFFCURVE",
"38 662 OFFCURVE",
"38 582 CURVE SMOOTH",
"38 486 OFFCURVE",
"42 414 OFFCURVE",
"55 336 CURVE SMOOTH",
"68 258 OFFCURVE",
"89 199 OFFCURVE",
"124 143 CURVE SMOOTH",
"159 87 OFFCURVE",
"204 49 OFFCURVE",
"269 20 CURVE SMOOTH",
"302 5 OFFCURVE",
"338 -5 OFFCURVE",
"379 -12 CURVE",
"386 -237 OFFCURVE",
"451 -324 OFFCURVE",
"624 -324 CURVE SMOOTH"
);
}
);
width = 1047;
}
);
note = Q;
unicode = 0051;
},
{
glyphname = R;
layers = (
{
layerId = "03879842-7D6D-4B41-A76D-F99E90B677D3";
paths = (
{
closed = 1;
nodes = (
"396 390 LINE",
"407 390 OFFCURVE",
"434 388 OFFCURVE",
"455 387 CURVE SMOOTH",
"476 386 OFFCURVE",
"508 385 OFFCURVE",
"533 385 CURVE SMOOTH",
"535 385 OFFCURVE",
"537 385 OFFCURVE",
"538 385 CURVE",
"563 304 OFFCURVE",
"576 165 OFFCURVE",
"584 79 CURVE SMOOTH",
"588 36 OFFCURVE",
"594 9 OFFCURVE",
"601 0 CURVE",
"970 0 LINE",
"942 36 OFFCURVE",
"919 117 OFFCURVE",
"901 191 CURVE SMOOTH",
"883 265 OFFCURVE",
"862 342 OFFCURVE",
"819 395 CURVE SMOOTH",
"797 422 OFFCURVE",
"771 439 OFFCURVE",
"741 446 CURVE",
"852 517 OFFCURVE",
"925 640 OFFCURVE",
"925 795 CURVE SMOOTH",
"925 1056 OFFCURVE",
"784 1181 OFFCURVE",
"496 1181 CURVE SMOOTH",
"455 1181 OFFCURVE",
"402 1180 OFFCURVE",
"339 1177 CURVE SMOOTH",
"276 1174 OFFCURVE",
"228 1172 OFFCURVE",
"196 1172 CURVE SMOOTH",
"64 1172 LINE",
"64 0 LINE",
"396 0 LINE"
);
},
{
closed = 1;
nodes = (
"396 576 LINE",
"396 988 LINE",
"415 988 LINE SMOOTH",
"528 988 OFFCURVE",
"591 948 OFFCURVE",
"591 832 CURVE SMOOTH",
"591 753 LINE SMOOTH",
"591 700 OFFCURVE",
"583 659 OFFCURVE",
"567 634 CURVE SMOOTH",
"551 609 OFFCURVE",
"535 593 OFFCURVE",
"508 586 CURVE SMOOTH",
"480 578 OFFCURVE",
"461 576 OFFCURVE",
"428 576 CURVE SMOOTH"
);
}
);
width = 967;
}
);
note = R;
unicode = 0052;
},
{
glyphname = S;
layers = (
{
layerId = "03879842-7D6D-4B41-A76D-F99E90B677D3";
paths = (
{
closed = 1;
nodes = (
"663 -21 OFFCURVE",
"796 120 OFFCURVE",
"796 384 CURVE SMOOTH",
"796 547 OFFCURVE",
"708 655 OFFCURVE",
"513 738 CURVE",
"504 744 OFFCURVE",
"490 752 OFFCURVE",
"472 762 CURVE SMOOTH",
"435 781 OFFCURVE",
"419 791 OFFCURVE",
"395 810 CURVE SMOOTH",
"371 829 OFFCURVE",
"361 851 OFFCURVE",
"361 879 CURVE SMOOTH",
"361 932 OFFCURVE",
"404 959 OFFCURVE",
"489 959 CURVE SMOOTH",
"560 959 OFFCURVE",
"646 929 OFFCURVE",
"698 868 CURVE",
"748 1061 LINE",
"746 1064 OFFCURVE",
"743 1069 OFFCURVE",
"738 1075 CURVE SMOOTH",
"729 1086 OFFCURVE",
"689 1121 OFFCURVE",
"646 1142 CURVE SMOOTH",
"603 1163 OFFCURVE",
"522 1185 OFFCURVE",
"437 1185 CURVE SMOOTH",
"168 1185 OFFCURVE",
"34 1066 OFFCURVE",
"34 828 CURVE SMOOTH",
"34 740 OFFCURVE",
"65 659 OFFCURVE",
"100 611 CURVE SMOOTH",
"135 562 OFFCURVE",
"201 512 OFFCURVE",
"234 493 CURVE SMOOTH",
"251 483 OFFCURVE",
"271 472 OFFCURVE",
"295 460 CURVE SMOOTH",
"361 428 OFFCURVE",
"408 401 OFFCURVE",
"435 378 CURVE SMOOTH",
"462 355 OFFCURVE",
"475 328 OFFCURVE",
"475 296 CURVE SMOOTH",
"475 236 OFFCURVE",
"431 217 OFFCURVE",
"324 217 CURVE SMOOTH",
"217 217 OFFCURVE",
"120 280 OFFCURVE",
"65 353 CURVE",
"40 110 LINE",
"65 83 OFFCURVE",
"101 57 OFFCURVE",
"161 28 CURVE SMOOTH",
"221 -1 OFFCURVE",
"313 -21 OFFCURVE",
"416 -21 CURVE SMOOTH"
);
}
);
width = 834;
}
);
note = S;
unicode = 0053;
},
{
glyphname = T;
layers = (
{
layerId = "03879842-7D6D-4B41-A76D-F99E90B677D3";
paths = (
{
closed = 1;
nodes = (
"253 0 LINE",
"591 0 LINE",
"591 907 LINE",
"825 907 LINE",
"825 1172 LINE",
"19 1172 LINE",
"19 907 LINE",
"253 907 LINE"
);
}
);
width = 846;
}
);
note = T;
unicode = 0054;
},
{
glyphname = U;
layers = (
{
layerId = "03879842-7D6D-4B41-A76D-F99E90B677D3";
paths = (
{
closed = 1;
nodes = (
"660 -21 OFFCURVE",
"768 8 OFFCURVE",
"834 53 CURVE SMOOTH",
"900 97 OFFCURVE",
"940 169 OFFCURVE",
"956 241 CURVE SMOOTH",
"963 277 OFFCURVE",
"967 317 OFFCURVE",
"967 362 CURVE SMOOTH",
"967 1172 LINE",
"651 1172 LINE",
"651 410 LINE SMOOTH",
"651 325 OFFCURVE",
"638 265 OFFCURVE",
"614 234 CURVE SMOOTH",
"590 202 OFFCURVE",
"563 191 OFFCURVE",
"526 191 CURVE SMOOTH",
"492 191 OFFCURVE",
"466 207 OFFCURVE",
"449 239 CURVE",
"431 270 OFFCURVE",
"422 328 OFFCURVE",
"422 413 CURVE SMOOTH",
"422 1172 LINE",
"66 1172 LINE",
"66 368 LINE SMOOTH",
"66 277 OFFCURVE",
"81 205 OFFCURVE",
"125 138 CURVE SMOOTH",
"168 70 OFFCURVE",
"232 26 OFFCURVE",
"338 -1 CURVE SMOOTH",
"391 -14 OFFCURVE",
"451 -21 OFFCURVE",
"520 -21 CURVE SMOOTH"
);
}
);
width = 1033;
}
);
note = U;
unicode = 0055;
},
{
glyphname = V;
layers = (
{
layerId = "03879842-7D6D-4B41-A76D-F99E90B677D3";
paths = (
{
closed = 1;
nodes = (
"265 0 LINE",
"628 0 LINE",
"918 1172 LINE",
"655 1172 LINE",
"565 768 LINE",
"480 344 LINE",
"390 768 LINE",
"303 1172 LINE",
"-66 1172 LINE"
);
}
);
width = 853;
}
);
note = V;
unicode = 0056;
},
{
glyphname = W;
layers = (
{
layerId = "03879842-7D6D-4B41-A76D-F99E90B677D3";
paths = (
{
closed = 1;
nodes = (
"551 0 LINE",
"654 471 LINE",
"777 0 LINE",
"1118 0 LINE",
"1376 1172 LINE",
"1072 1172 LINE",
"1013 768 LINE",
"958 376 LINE",
"870 768 LINE",
"798 1172 LINE",
"471 1172 LINE",
"548 875 LINE",
"522 768 LINE",
"421 376 LINE",
"342 768 LINE",
"289 1172 LINE",
"-44 1172 LINE",
"235 0 LINE"
);
}
);
width = 1330;
}
);
note = W;
unicode = 0057;
},
{
glyphname = X;
layers = (
{
layerId = "03879842-7D6D-4B41-A76D-F99E90B677D3";
paths = (
{
closed = 1;
nodes = (
"262 0 LINE",
"376 270 LINE",
"425 392 LINE",
"463 270 LINE",
"571 0 LINE",
"959 0 LINE",
"634 643 LINE",
"945 1172 LINE",
"618 1172 LINE",
"523 949 LINE",
"475 824 LINE",
"431 951 LINE",
"343 1172 LINE",
"-51 1172 LINE",
"261 582 LINE",
"-66 0 LINE"
);
}
);
width = 908;
}
);
note = X;
unicode = 0058;
},
{
glyphname = Y;
layers = (
{
layerId = "03879842-7D6D-4B41-A76D-F99E90B677D3";
paths = (
{
closed = 1;
nodes = (
"282 0 LINE",
"641 0 LINE",
"641 372 LINE",
"934 1172 LINE",
"636 1172 LINE",
"558 870 LINE",
"501 623 LINE",
"432 870 LINE",
"329 1172 LINE",
"-50 1172 LINE",
"282 366 LINE"
);
}
);
width = 883;
}
);
note = Y;
unicode = 0059;
},
{
glyphname = Z;
layers = (
{
layerId = "03879842-7D6D-4B41-A76D-F99E90B677D3";
paths = (
{
closed = 1;
nodes = (
"42 0 LINE",
"853 0 LINE",
"853 252 LINE",
"395 230 LINE",
"464 308 LINE",
"841 1001 LINE",
"841 1172 LINE",
"75 1172 LINE",
"75 917 LINE",
"471 939 LINE",
"391 845 LINE",
"42 207 LINE"
);
}
);
width = 876;
}
);
note = Z;
unicode = 005A;
},
{
glyphname = bracketleft;
layers = (
{
layerId = "03879842-7D6D-4B41-A76D-F99E90B677D3";
paths = (
{
closed = 1;
nodes = (
"100 -283 LINE",
"557 -283 LINE",
"557 -99 LINE",
"383 -99 LINE",
"383 1233 LINE",
"557 1233 LINE",
"557 1417 LINE",
"100 1417 LINE"
);
}
);
width = 627;
}
);
leftKerningGroup = bracketleft;
note = bracketleft;
unicode = 005B;
},
{
glyphname = backslash;
layers = (
{
layerId = "03879842-7D6D-4B41-A76D-F99E90B677D3";
paths = (
{
closed = 1;
nodes = (
"417 0 LINE",
"682 0 LINE",
"291 1289 LINE",
"27 1289 LINE"
);
}
);
width = 709;
}
);
note = backslash;
unicode = 005C;
},
{
glyphname = bracketright;
layers = (
{
layerId = "03879842-7D6D-4B41-A76D-F99E90B677D3";
paths = (
{
closed = 1;
nodes = (
"70 -283 LINE",
"527 -283 LINE",
"527 1417 LINE",
"70 1417 LINE",
"70 1233 LINE",
"244 1233 LINE",
"244 -99 LINE",
"70 -99 LINE"
);
}
);
width = 627;
}
);
note = bracketright;
unicode = 005D;
},
{
glyphname = asciicircum;
layers = (
{
layerId = "03879842-7D6D-4B41-A76D-F99E90B677D3";
paths = (
{
closed = 1;
nodes = (
"283 220 LINE",
"383 524 LINE",
"478 828 LINE",
"558 524 LINE",
"635 220 LINE",
"1004 220 LINE",
"693 1172 LINE",
"330 1172 LINE",
"20 220 LINE"
);
}
);
width = 1024;
}
);
note = asciicircum;
unicode = 005E;
},
{
glyphname = underscore;
layers = (
{
layerId = "03879842-7D6D-4B41-A76D-F99E90B677D3";
paths = (
{
closed = 1;
nodes = (
"-10 -265 LINE",
"968 -265 LINE",
"968 -130 LINE",
"-10 -130 LINE"
);
}
);
width = 958;
}
);
note = underscore;
unicode = 005F;
},
{
glyphname = grave;
layers = (
{
layerId = "03879842-7D6D-4B41-A76D-F99E90B677D3";
paths = (
{
closed = 1;
nodes = (
"289 966 LINE",
"453 966 LINE",
"313 1296 LINE",
"50 1296 LINE"
);
}
);
width = 503;
}
);
note = grave;
unicode = 0060;
},
{
glyphname = a;
layers = (
{
layerId = "03879842-7D6D-4B41-A76D-F99E90B677D3";
paths = (
{
closed = 1;
nodes = (
"510 89 LINE",
"542 0 LINE",
"816 0 LINE",
"788 78 LINE",
"788 485 LINE SMOOTH",
"788 632 OFFCURVE",
"768 723 OFFCURVE",
"714 785 CURVE SMOOTH",
"660 847 OFFCURVE",
"576 870 OFFCURVE",
"443 870 CURVE SMOOTH",
"292 870 OFFCURVE",
"135 818 OFFCURVE",
"44 759 CURVE",
"108 623 LINE",
"159 650 OFFCURVE",
"259 672 OFFCURVE",
"342 672 CURVE SMOOTH",
"438 672 OFFCURVE",
"479 642 OFFCURVE",
"479 561 CURVE SMOOTH",
"479 543 LINE",
"434 543 OFFCURVE",
"387 540 OFFCURVE",
"324 528 CURVE SMOOTH",
"261 516 OFFCURVE",
"206 500 OFFCURVE",
"150 469 CURVE SMOOTH",
"94 437 OFFCURVE",
"54 400 OFFCURVE",
"29 342 CURVE SMOOTH",
"16 313 OFFCURVE",
"10 281 OFFCURVE",
"10 246 CURVE SMOOTH",
"10 68 OFFCURVE",
"100 -21 OFFCURVE",
"280 -21 CURVE SMOOTH",
"333 -21 OFFCURVE",
"387 -3 OFFCURVE",
"423 18 CURVE SMOOTH",
"458 39 OFFCURVE",
"487 62 OFFCURVE",
"500 78 CURVE"
);
},
{
closed = 1;
nodes = (
"374 155 OFFCURVE",
"346 197 OFFCURVE",
"346 280 CURVE SMOOTH",
"346 373 OFFCURVE",
"398 417 OFFCURVE",
"479 417 CURVE",
"479 177 LINE",
"479 177 OFFCURVE",
"477 175 OFFCURVE",
"473 172 CURVE",
"465 164 OFFCURVE",
"448 155 OFFCURVE",
"431 155 CURVE SMOOTH"
);
}
);
width = 837;
}
);
note = a;
unicode = 0061;
},
{
glyphname = b;
layers = (
{
layerId = "03879842-7D6D-4B41-A76D-F99E90B677D3";
paths = (
{
closed = 1;
nodes = (
"701 0 OFFCURVE",
"788 49 OFFCURVE",
"843 130 CURVE SMOOTH",
"898 211 OFFCURVE",
"926 319 OFFCURVE",
"926 444 CURVE SMOOTH",
"926 711 OFFCURVE",
"826 870 OFFCURVE",
"606 870 CURVE SMOOTH",
"554 870 OFFCURVE",
"507 857 OFFCURVE",
"471 837 CURVE SMOOTH",
"435 817 OFFCURVE",
"411 796 OFFCURVE",
"390 772 CURVE",
"390 1310 LINE",
"325 1310 LINE",
"4 1260 LINE",
"4 1167 LINE",
"64 1131 LINE",
"64 0 LINE",
"390 0 LINE",
"390 47 LINE",
"449 16 OFFCURVE",
"515 0 OFFCURVE",
"590 0 CURVE SMOOTH"
);
},
{
closed = 1;
nodes = (
"427 139 OFFCURVE",
"410 141 OFFCURVE",
"390 146 CURVE",
"390 666 LINE",
"415 684 OFFCURVE",
"440 693 OFFCURVE",
"465 693 CURVE SMOOTH",
"530 693 OFFCURVE",
"577 629 OFFCURVE",
"577 514 CURVE SMOOTH",
"577 344 LINE SMOOTH",
"577 207 OFFCURVE",
"532 139 OFFCURVE",
"443 139 CURVE SMOOTH"
);
}
);
width = 951;
}
);
note = b;
unicode = 0062;
},
{
glyphname = c;
layers = (
{
layerId = "03879842-7D6D-4B41-A76D-F99E90B677D3";
paths = (
{
closed = 1;
nodes = (
"747 83 LINE",
"697 219 LINE",
"652 183 OFFCURVE",
"575 168 OFFCURVE",
"508 168 CURVE SMOOTH",
"479 168 OFFCURVE",
"464 168 OFFCURVE",
"433 185 CURVE SMOOTH",
"401 202 OFFCURVE",
"385 229 OFFCURVE",
"370 293 CURVE SMOOTH",
"363 324 OFFCURVE",
"359 362 OFFCURVE",
"359 407 CURVE SMOOTH",
"359 612 OFFCURVE",
"398 686 OFFCURVE",
"519 686 CURVE SMOOTH",
"528 686 OFFCURVE",
"536 685 OFFCURVE",
"541 684 CURVE",
"598 531 LINE",
"740 532 LINE",
"755 767 LINE",
"755 767 OFFCURVE",
"748 774 OFFCURVE",
"734 788 CURVE",
"670 843 OFFCURVE",
"580 871 OFFCURVE",
"464 871 CURVE SMOOTH",
"344 871 OFFCURVE",
"238 827 OFFCURVE",
"162 751 CURVE SMOOTH",
"85 674 OFFCURVE",
"38 554 OFFCURVE",
"38 413 CURVE SMOOTH",
"38 152 OFFCURVE",
"185 -21 OFFCURVE",
"456 -21 CURVE SMOOTH",
"536 -21 OFFCURVE",
"611 -5 OFFCURVE",
"653 16 CURVE SMOOTH",
"695 36 OFFCURVE",
"726 59 OFFCURVE",
"738 72 CURVE"
);
}
);
width = 777;
}
);
note = c;
unicode = 0063;
},
{
glyphname = d;
layers = (
{
layerId = "03879842-7D6D-4B41-A76D-F99E90B677D3";
paths = (
{
closed = 1;
nodes = (
"637 0 LINE",
"892 0 LINE",
"892 1310 LINE",
"814 1310 LINE",
"460 1260 LINE",
"460 1150 LINE",
"570 1113 LINE",
"570 810 LINE",
"521 837 OFFCURVE",
"453 858 OFFCURVE",
"366 858 CURVE SMOOTH",
"221 858 OFFCURVE",
"115 771 OFFCURVE",
"67 640 CURVE SMOOTH",
"43 574 OFFCURVE",
"31 499 OFFCURVE",
"31 415 CURVE SMOOTH",
"31 147 OFFCURVE",
"130 -12 OFFCURVE",
"350 -12 CURVE SMOOTH",
"407 -12 OFFCURVE",
"462 7 OFFCURVE",
"497 28 CURVE SMOOTH",
"532 49 OFFCURVE",
"566 82 OFFCURVE",
"580 101 CURVE SMOOTH",
"587 110 OFFCURVE",
"593 120 OFFCURVE",
"598 129 CURVE"
);
},
{
closed = 1;
nodes = (
"428 184 OFFCURVE",
"379 249 OFFCURVE",
"379 374 CURVE SMOOTH",
"379 514 LINE SMOOTH",
"380 650 OFFCURVE",
"424 718 OFFCURVE",
"513 719 CURVE SMOOTH",
"530 719 OFFCURVE",
"549 717 OFFCURVE",
"570 712 CURVE",
"570 209 LINE",
"546 193 OFFCURVE",
"520 184 OFFCURVE",
"496 184 CURVE SMOOTH"
);
}
);
width = 948;
}
);
note = d;
unicode = 0064;
},
{
glyphname = e;
layers = (
{
layerId = "03879842-7D6D-4B41-A76D-F99E90B677D3";
paths = (
{
closed = 1;
nodes = (
"375 517 LINE",
"375 601 LINE SMOOTH",
"375 649 OFFCURVE",
"377 677 OFFCURVE",
"389 707 CURVE SMOOTH",
"401 737 OFFCURVE",
"426 750 OFFCURVE",
"466 750 CURVE SMOOTH",
"489 750 OFFCURVE",
"505 732 OFFCURVE",
"514 697 CURVE SMOOTH",
"523 662 OFFCURVE",
"527 602 OFFCURVE",
"527 517 CURVE"
);
},
{
closed = 1;
nodes = (
"527 -21 OFFCURVE",
"615 -6 OFFCURVE",
"711 48 CURVE SMOOTH",
"758 75 OFFCURVE",
"794 108 OFFCURVE",
"819 148 CURVE",
"760 249 LINE",
"723 214 OFFCURVE",
"663 188 OFFCURVE",
"609 176 CURVE SMOOTH",
"582 170 OFFCURVE",
"556 167 OFFCURVE",
"533 167 CURVE SMOOTH",
"485 167 OFFCURVE",
"455 173 OFFCURVE",
"423 197 CURVE SMOOTH",
"391 221 OFFCURVE",
"374 271 OFFCURVE",
"374 350 CURVE SMOOTH",
"374 369 LINE",
"831 369 LINE",
"831 480 LINE SMOOTH",
"831 753 OFFCURVE",
"727 870 OFFCURVE",
"464 870 CURVE SMOOTH",
"191 870 OFFCURVE",
"31 715 OFFCURVE",
"31 416 CURVE SMOOTH",
"31 291 OFFCURVE",
"59 189 OFFCURVE",
"123 108 CURVE SMOOTH",
"186 27 OFFCURVE",
"298 -21 OFFCURVE",
"447 -21 CURVE SMOOTH"
);
}
);
width = 861;
}
);
note = e;
unicode = 0065;
},
{
glyphname = f;
layers = (
{
layerId = "03879842-7D6D-4B41-A76D-F99E90B677D3";
paths = (
{
closed = 1;
nodes = (
"426 0 LINE",
"426 674 LINE",
"555 674 LINE",
"555 850 LINE",
"426 850 LINE",
"426 993 LINE SMOOTH",
"426 1072 OFFCURVE",
"452 1116 OFFCURVE",
"503 1124 CURVE SMOOTH",
"510 1125 OFFCURVE",
"518 1126 OFFCURVE",
"527 1126 CURVE SMOOTH",
"561 1126 OFFCURVE",
"594 1118 OFFCURVE",
"626 1102 CURVE",
"664 1254 LINE",
"644 1274 OFFCURVE",
"552 1305 OFFCURVE",
"461 1305 CURVE SMOOTH",
"360 1305 OFFCURVE",
"279 1282 OFFCURVE",
"212 1227 CURVE SMOOTH",
"144 1172 OFFCURVE",
"105 1072 OFFCURVE",
"105 937 CURVE SMOOTH",
"105 850 LINE",
"4 807 LINE",
"4 674 LINE",
"101 674 LINE",
"101 0 LINE"
);
}
);
width = 562;
}
);
note = f;
unicode = 0066;
},
{
glyphname = g;
layers = (
{
layerId = "03879842-7D6D-4B41-A76D-F99E90B677D3";
paths = (
{
closed = 1;
nodes = (
"740 -353 OFFCURVE",
"879 -223 OFFCURVE",
"879 37 CURVE SMOOTH",
"879 705 LINE",
"939 747 LINE",
"939 841 LINE",
"751 850 LINE",
"598 850 LINE",
"581 803 LINE",
"520 840 OFFCURVE",
"449 858 OFFCURVE",
"366 858 CURVE SMOOTH",
"257 858 OFFCURVE",
"168 809 OFFCURVE",
"114 729 CURVE SMOOTH",
"60 648 OFFCURVE",
"31 540 OFFCURVE",
"31 415 CURVE SMOOTH",
"31 147 OFFCURVE",
"130 -12 OFFCURVE",
"350 -12 CURVE SMOOTH",
"431 -12 OFFCURVE",
"500 17 OFFCURVE",
"557 76 CURVE",
"557 -9 LINE SMOOTH",
"556 -38 OFFCURVE",
"554 -59 OFFCURVE",
"541 -89 CURVE SMOOTH",
"528 -119 OFFCURVE",
"509 -139 OFFCURVE",
"470 -153 CURVE SMOOTH",
"450 -160 OFFCURVE",
"427 -164 OFFCURVE",
"400 -164 CURVE SMOOTH",
"347 -164 OFFCURVE",
"256 -138 OFFCURVE",
"223 -113 CURVE",
"160 -250 LINE",
"199 -293 OFFCURVE",
"359 -353 OFFCURVE",
"463 -353 CURVE SMOOTH"
);
},
{
closed = 1;
nodes = (
"403 170 OFFCURVE",
"379 274 OFFCURVE",
"379 359 CURVE SMOOTH",
"379 514 LINE SMOOTH",
"380 650 OFFCURVE",
"424 718 OFFCURVE",
"513 719 CURVE SMOOTH",
"526 719 OFFCURVE",
"541 717 OFFCURVE",
"557 714 CURVE",
"557 187 LINE",
"536 176 OFFCURVE",
"515 170 OFFCURVE",
"495 170 CURVE SMOOTH"
);
}
);
width = 939;
}
);
note = g;
unicode = 0067;
},
{
glyphname = h;
layers = (
{
layerId = "03879842-7D6D-4B41-A76D-F99E90B677D3";
paths = (
{
closed = 1;
nodes = (
"388 0 LINE",
"388 583 LINE",
"389 584 OFFCURVE",
"407 599 OFFCURVE",
"411 602 CURVE",
"414 605 OFFCURVE",
"429 615 OFFCURVE",
"435 618 CURVE",
"438 619 OFFCURVE",
"442 621 OFFCURVE",
"447 624 CURVE",
"458 629 OFFCURVE",
"467 630 OFFCURVE",
"478 630 CURVE SMOOTH",
"533 630 OFFCURVE",
"560 599 OFFCURVE",
"558 536 CURVE SMOOTH",
"558 0 LINE",
"888 0 LINE",
"888 507 LINE SMOOTH",
"888 512 OFFCURVE",
"888 518 OFFCURVE",
"889 526 CURVE",
"889 534 OFFCURVE",
"889 540 OFFCURVE",
"889 544 CURVE SMOOTH",
"889 779 OFFCURVE",
"822 870 OFFCURVE",
"639 870 CURVE SMOOTH",
"587 870 OFFCURVE",
"529 846 OFFCURVE",
"490 818 CURVE SMOOTH",
"451 789 OFFCURVE",
"418 757 OFFCURVE",
"402 736 CURVE SMOOTH",
"390 721 LINE",
"390 1310 LINE",
"325 1310 LINE",
"4 1260 LINE",
"4 1167 LINE",
"64 1131 LINE",
"64 0 LINE"
);
}
);
width = 936;
}
);
note = h;
unicode = 0068;
},
{
glyphname = i;
layers = (
{
layerId = "03879842-7D6D-4B41-A76D-F99E90B677D3";
paths = (
{
closed = 1;
nodes = (
"78 0 LINE",
"400 0 LINE",
"400 850 LINE",
"233 850 LINE",
"18 791 LINE",
"18 684 LINE",
"78 647 LINE"
);
},
{
closed = 1;
nodes = (
"223 942 LINE",
"261 942 LINE",
"432 1107 LINE",
"432 1142 LINE",
"261 1306 LINE",
"223 1306 LINE",
"59 1142 LINE",
"59 1107 LINE"
);
}
);
width = 461;
}
);
note = i;
unicode = 0069;
},
{
glyphname = j;
layers = (
{
layerId = "03879842-7D6D-4B41-A76D-F99E90B677D3";
paths = (
{
closed = 1;
nodes = (
"353 -344 OFFCURVE",
"447 -176 OFFCURVE",
"447 117 CURVE SMOOTH",
"447 850 LINE",
"290 850 LINE",
"60 797 LINE",
"60 690 LINE",
"133 650 LINE",
"133 47 LINE SMOOTH",
"133 -24 OFFCURVE",
"127 -76 OFFCURVE",
"120 -104 CURVE SMOOTH",
"112 -133 OFFCURVE",
"99 -150 OFFCURVE",
"89 -154 CURVE",
"84 -157 OFFCURVE",
"78 -158 OFFCURVE",
"71 -158 CURVE SMOOTH",
"42 -158 OFFCURVE",
"12 -149 OFFCURVE",
"-17 -130 CURVE",
"-68 -238 LINE",
"-11 -309 OFFCURVE",
"64 -344 OFFCURVE",
"157 -344 CURVE SMOOTH"
);
},
{
closed = 1;
nodes = (
"283 942 LINE",
"321 942 LINE",
"492 1107 LINE",
"492 1142 LINE",
"321 1306 LINE",
"283 1306 LINE",
"119 1142 LINE",
"119 1107 LINE"
);
}
);
width = 488;
}
);
note = j;
unicode = 006A;
},
{
glyphname = k;
layers = (
{
layerId = "03879842-7D6D-4B41-A76D-F99E90B677D3";
paths = (
{
closed = 1;
nodes = (
"565 0 LINE",
"955 0 LINE",
"687 457 LINE",
"949 850 LINE",
"574 850 LINE",
"410 409 LINE"
);
},
{
closed = 1;
nodes = (
"64 0 LINE",
"390 0 LINE",
"390 1310 LINE",
"325 1310 LINE",
"4 1260 LINE",
"4 1167 LINE",
"64 1131 LINE"
);
}
);
width = 913;
}
);
note = k;
unicode = 006B;
},
{
glyphname = l;
layers = (
{
layerId = "03879842-7D6D-4B41-A76D-F99E90B677D3";
paths = (
{
closed = 1;
nodes = (
"67 0 LINE",
"393 0 LINE",
"393 1310 LINE",
"328 1310 LINE",
"7 1260 LINE",
"7 1167 LINE",
"67 1131 LINE"
);
}
);
width = 447;
}
);
note = l;
unicode = 006C;
},
{
glyphname = m;
layers = (
{
layerId = "03879842-7D6D-4B41-A76D-F99E90B677D3";
paths = (
{
closed = 1;
nodes = (
"401 0 LINE",
"401 583 LINE",
"404 586 OFFCURVE",
"413 593 OFFCURVE",
"417 596 CURVE",
"418 597 OFFCURVE",
"421 600 OFFCURVE",
"425 603 CURVE",
"428 606 OFFCURVE",
"431 608 OFFCURVE",
"433 609 CURVE SMOOTH",
"435 610 OFFCURVE",
"438 612 OFFCURVE",
"441 615 CURVE",
"444 617 OFFCURVE",
"447 619 OFFCURVE",
"450 620 CURVE SMOOTH",
"453 621 OFFCURVE",
"456 622 OFFCURVE",
"460 624 CURVE",
"467 627 OFFCURVE",
"472 628 OFFCURVE",
"480 629 CURVE",
"483 630 OFFCURVE",
"487 630 OFFCURVE",
"491 630 CURVE SMOOTH",
"546 630 OFFCURVE",
"573 599 OFFCURVE",
"571 536 CURVE SMOOTH",
"571 0 LINE",
"901 0 LINE",
"901 478 LINE SMOOTH",
"901 515 OFFCURVE",
"900 550 OFFCURVE",
"898 582 CURVE",
"931 614 OFFCURVE",
"958 630 OFFCURVE",
"977 630 CURVE SMOOTH",
"1034 630 OFFCURVE",
"1062 595 OFFCURVE",
"1062 536 CURVE SMOOTH",
"1062 0 LINE",
"1387 0 LINE",
"1387 507 LINE SMOOTH",
"1387 696 OFFCURVE",
"1357 794 OFFCURVE",
"1287 838 CURVE SMOOTH",
"1252 859 OFFCURVE",
"1203 870 OFFCURVE",
"1140 870 CURVE SMOOTH",
"1027 870 OFFCURVE",
"925 787 OFFCURVE",
"880 708 CURVE",
"851 823 OFFCURVE",
"785 870 OFFCURVE",
"652 870 CURVE SMOOTH",
"600 870 OFFCURVE",
"543 845 OFFCURVE",
"507 820 CURVE SMOOTH",
"470 795 OFFCURVE",
"430 755 OFFCURVE",
"418 740 CURVE",
"411 732 OFFCURVE",
"406 726 OFFCURVE",
"403 721 CURVE",
"403 850 LINE",
"233 850 LINE",
"18 791 LINE",
"18 684 LINE",
"78 647 LINE",
"78 0 LINE"
);
}
);
width = 1436;
}
);
note = m;
unicode = 006D;
},
{
glyphname = n;
layers = (
{
layerId = "03879842-7D6D-4B41-A76D-F99E90B677D3";
paths = (
{
closed = 1;
nodes = (
"401 0 LINE",
"401 583 LINE",
"404 586 OFFCURVE",
"413 593 OFFCURVE",
"417 596 CURVE",
"418 597 OFFCURVE",
"421 600 OFFCURVE",
"425 603 CURVE",
"428 606 OFFCURVE",
"431 608 OFFCURVE",
"433 609 CURVE SMOOTH",
"435 610 OFFCURVE",
"438 612 OFFCURVE",
"441 615 CURVE",
"444 617 OFFCURVE",
"447 619 OFFCURVE",
"450 620 CURVE SMOOTH",
"453 621 OFFCURVE",
"456 622 OFFCURVE",
"460 624 CURVE",
"467 627 OFFCURVE",
"472 628 OFFCURVE",
"480 629 CURVE",
"483 630 OFFCURVE",
"487 630 OFFCURVE",
"491 630 CURVE SMOOTH",
"546 630 OFFCURVE",
"573 599 OFFCURVE",
"571 536 CURVE SMOOTH",
"571 0 LINE",
"901 0 LINE",
"901 507 LINE SMOOTH",
"901 512 OFFCURVE",
"901 518 OFFCURVE",
"902 526 CURVE",
"902 534 OFFCURVE",
"902 540 OFFCURVE",
"902 544 CURVE SMOOTH",
"902 779 OFFCURVE",
"835 870 OFFCURVE",
"652 870 CURVE SMOOTH",
"600 870 OFFCURVE",
"542 846 OFFCURVE",
"503 818 CURVE SMOOTH",
"464 789 OFFCURVE",
"431 757 OFFCURVE",
"415 736 CURVE SMOOTH",
"403 721 LINE",
"403 850 LINE",
"233 850 LINE",
"18 791 LINE",
"18 684 LINE",
"78 647 LINE",
"78 0 LINE"
);
}
);
width = 949;
}
);
note = n;
unicode = 006E;
},
{
glyphname = o;
layers = (
{
layerId = "03879842-7D6D-4B41-A76D-F99E90B677D3";
paths = (
{
closed = 1;
nodes = (
"419 99 OFFCURVE",
"388 162 OFFCURVE",
"388 288 CURVE SMOOTH",
"388 613 LINE SMOOTH",
"388 698 OFFCURVE",
"422 747 OFFCURVE",
"479 747 CURVE SMOOTH",
"540 747 OFFCURVE",
"571 682 OFFCURVE",
"571 552 CURVE SMOOTH",
"571 236 LINE SMOOTH",
"571 151 OFFCURVE",
"539 99 OFFCURVE",
"480 99 CURVE SMOOTH"
);
},
{
closed = 1;
nodes = (
"788 -21 OFFCURVE",
"930 122 OFFCURVE",
"930 429 CURVE SMOOTH",
"930 725 OFFCURVE",
"799 870 OFFCURVE",
"486 870 CURVE SMOOTH",
"165 870 OFFCURVE",
"31 716 OFFCURVE",
"31 415 CURVE SMOOTH",
"31 111 OFFCURVE",
"167 -21 OFFCURVE",
"472 -21 CURVE SMOOTH"
);
}
);
width = 961;
}
);
note = o;
unicode = 006F;
},
{
glyphname = p;
layers = (
{
layerId = "03879842-7D6D-4B41-A76D-F99E90B677D3";
paths = (
{
closed = 1;
nodes = (
"701 0 OFFCURVE",
"788 49 OFFCURVE",
"843 130 CURVE SMOOTH",
"898 211 OFFCURVE",
"926 319 OFFCURVE",
"926 444 CURVE SMOOTH",
"926 711 OFFCURVE",
"826 870 OFFCURVE",
"606 870 CURVE SMOOTH",
"515 870 OFFCURVE",
"448 832 OFFCURVE",
"400 783 CURVE",
"400 850 LINE",
"233 850 LINE",
"18 791 LINE",
"18 684 LINE",
"78 647 LINE",
"78 -302 LINE",
"400 -302 LINE",
"400 42 LINE",
"448 18 OFFCURVE",
"513 0 OFFCURVE",
"590 0 CURVE SMOOTH"
);
},
{
closed = 1;
nodes = (
"430 139 OFFCURVE",
"416 140 OFFCURVE",
"400 144 CURVE",
"400 672 LINE",
"423 685 OFFCURVE",
"446 692 OFFCURVE",
"468 692 CURVE SMOOTH",
"532 692 OFFCURVE",
"577 634 OFFCURVE",
"577 514 CURVE SMOOTH",
"577 344 LINE SMOOTH",
"577 207 OFFCURVE",
"532 139 OFFCURVE",
"443 139 CURVE SMOOTH"
);
}
);
width = 965;
}
);
note = p;
unicode = 0070;
},
{
glyphname = q;
layers = (
{
layerId = "03879842-7D6D-4B41-A76D-F99E90B677D3";
paths = (
{
closed = 1;
nodes = (
"403 170 OFFCURVE",
"379 274 OFFCURVE",
"379 359 CURVE SMOOTH",
"379 514 LINE SMOOTH",
"380 650 OFFCURVE",
"424 718 OFFCURVE",
"513 719 CURVE SMOOTH",
"526 719 OFFCURVE",
"540 718 OFFCURVE",
"555 715 CURVE",
"555 186 LINE",
"535 175 OFFCURVE",
"514 170 OFFCURVE",
"495 170 CURVE SMOOTH"
);
},
{
closed = 1;
nodes = (
"877 -302 LINE",
"877 850 LINE",
"647 850 LINE",
"603 789 LINE",
"598 793 OFFCURVE",
"590 798 OFFCURVE",
"581 804 CURVE",
"562 815 OFFCURVE",
"521 837 OFFCURVE",
"461 849 CURVE SMOOTH",
"431 855 OFFCURVE",
"399 858 OFFCURVE",
"366 858 CURVE SMOOTH",
"221 858 OFFCURVE",
"115 771 OFFCURVE",
"67 640 CURVE SMOOTH",
"43 574 OFFCURVE",
"31 499 OFFCURVE",
"31 415 CURVE SMOOTH",
"31 147 OFFCURVE",
"130 -12 OFFCURVE",
"350 -12 CURVE SMOOTH",
"430 -12 OFFCURVE",
"498 17 OFFCURVE",
"555 74 CURVE",
"555 -302 LINE"
);
}
);
width = 910;
}
);
note = q;
unicode = 0071;
},
{
glyphname = r;
layers = (
{
layerId = "03879842-7D6D-4B41-A76D-F99E90B677D3";
paths = (
{
closed = 1;
nodes = (
"401 0 LINE",
"401 457 LINE",
"420 493 OFFCURVE",
"464 511 OFFCURVE",
"532 511 CURVE SMOOTH",
"579 511 OFFCURVE",
"610 505 OFFCURVE",
"624 492 CURVE",
"658 848 LINE",
"640 854 OFFCURVE",
"623 857 OFFCURVE",
"606 857 CURVE SMOOTH",
"458 857 OFFCURVE",
"370 775 OFFCURVE",
"343 612 CURVE",
"314 850 LINE",
"233 850 LINE",
"18 797 LINE",
"18 684 LINE",
"78 647 LINE",
"78 0 LINE"
);
}
);
width = 658;
}
);
note = r;
unicode = 0072;
},
{
glyphname = s;
layers = (
{
layerId = "03879842-7D6D-4B41-A76D-F99E90B677D3";
paths = (
{
closed = 1;
nodes = (
"599 -21 OFFCURVE",
"728 82 OFFCURVE",
"728 287 CURVE SMOOTH",
"728 428 OFFCURVE",
"661 522 OFFCURVE",
"505 574 CURVE",
"491 578 OFFCURVE",
"474 583 OFFCURVE",
"455 588 CURVE SMOOTH",
"416 598 OFFCURVE",
"400 602 OFFCURVE",
"378 612 CURVE SMOOTH",
"356 622 OFFCURVE",
"347 635 OFFCURVE",
"347 656 CURVE SMOOTH",
"347 693 OFFCURVE",
"379 712 OFFCURVE",
"442 712 CURVE SMOOTH",
"519 712 OFFCURVE",
"580 690 OFFCURVE",
"624 647 CURVE",
"668 790 LINE",
"668 790 OFFCURVE",
"662 796 OFFCURVE",
"650 807 CURVE",
"596 849 OFFCURVE",
"512 870 OFFCURVE",
"398 870 CURVE SMOOTH",
"265 870 OFFCURVE",
"153 834 OFFCURVE",
"84 748 CURVE SMOOTH",
"49 705 OFFCURVE",
"32 653 OFFCURVE",
"32 593 CURVE SMOOTH",
"32 446 OFFCURVE",
"110 350 OFFCURVE",
"265 303 CURVE SMOOTH",
"325 285 OFFCURVE",
"368 269 OFFCURVE",
"395 256 CURVE SMOOTH",
"422 242 OFFCURVE",
"435 226 OFFCURVE",
"435 209 CURVE SMOOTH",
"435 191 OFFCURVE",
"428 177 OFFCURVE",
"413 167 CURVE SMOOTH",
"398 157 OFFCURVE",
"370 152 OFFCURVE",
"330 152 CURVE SMOOTH",
"219 152 OFFCURVE",
"99 189 OFFCURVE",
"54 233 CURVE",
"28 72 LINE",
"64 32 OFFCURVE",
"216 -21 OFFCURVE",
"341 -21 CURVE SMOOTH"
);
}
);
width = 735;
}
);
note = s;
unicode = 0073;
},
{
glyphname = t;
layers = (
{
layerId = "03879842-7D6D-4B41-A76D-F99E90B677D3";
paths = (
{
closed = 1;
nodes = (
"403 -21 OFFCURVE",
"483 4 OFFCURVE",
"515 24 CURVE",
"531 33 OFFCURVE",
"544 43 OFFCURVE",
"554 53 CURVE",
"554 189 LINE",
"539 177 OFFCURVE",
"516 170 OFFCURVE",
"488 170 CURVE SMOOTH",
"424 170 OFFCURVE",
"394 195 OFFCURVE",
"394 302 CURVE SMOOTH",
"394 674 LINE",
"561 674 LINE",
"561 850 LINE",
"397 850 LINE",
"397 1083 LINE",
"221 1083 LINE",
"119 850 LINE",
"1 813 LINE",
"1 674 LINE",
"70 674 LINE",
"70 334 LINE SMOOTH",
"70 77 OFFCURVE",
"132 -21 OFFCURVE",
"312 -21 CURVE SMOOTH"
);
}
);
width = 570;
}
);
note = t;
unicode = 0074;
},
{
glyphname = u;
layers = (
{
layerId = "03879842-7D6D-4B41-A76D-F99E90B677D3";
paths = (
{
closed = 1;
nodes = (
"598 0 LINE",
"875 0 LINE",
"875 850 LINE",
"494 850 LINE",
"494 735 LINE",
"548 699 LINE",
"548 229 LINE",
"546 228 OFFCURVE",
"543 226 OFFCURVE",
"540 223 CURVE",
"532 217 OFFCURVE",
"531 215 OFFCURVE",
"524 211 CURVE",
"517 206 OFFCURVE",
"515 204 OFFCURVE",
"508 201 CURVE",
"505 199 OFFCURVE",
"502 198 OFFCURVE",
"500 197 CURVE",
"497 196 OFFCURVE",
"494 196 OFFCURVE",
"491 195 CURVE",
"484 193 OFFCURVE",
"478 192 OFFCURVE",
"470 192 CURVE SMOOTH",
"414 192 OFFCURVE",
"396 220 OFFCURVE",
"397 280 CURVE SMOOTH",
"397 850 LINE",
"34 850 LINE",
"34 735 LINE",
"69 699 LINE",
"69 343 LINE SMOOTH",
"69 82 OFFCURVE",
"143 -21 OFFCURVE",
"331 -21 CURVE SMOOTH",
"391 -21 OFFCURVE",
"454 9 OFFCURVE",
"494 46 CURVE SMOOTH",
"534 82 OFFCURVE",
"559 114 OFFCURVE",
"567 133 CURVE"
);
}
);
width = 936;
}
);
note = u;
unicode = 0075;
},
{
glyphname = v;
layers = (
{
layerId = "03879842-7D6D-4B41-A76D-F99E90B677D3";
paths = (
{
closed = 1;
nodes = (
"272 0 LINE",
"587 0 LINE",
"842 850 LINE",
"572 850 LINE",
"498 543 LINE",
"447 278 LINE",
"401 543 LINE",
"337 850 LINE",
"-22 850 LINE"
);
}
);
width = 820;
}
);
note = v;
unicode = 0076;
},
{
glyphname = w;
layers = (
{
layerId = "03879842-7D6D-4B41-A76D-F99E90B677D3";
paths = (
{
closed = 1;
nodes = (
"539 0 LINE",
"644 350 LINE",
"742 0 LINE",
"1046 0 LINE",
"1302 850 LINE",
"1088 850 LINE",
"953 308 LINE",
"851 850 LINE",
"505 850 LINE",
"552 680 LINE",
"461 308 LINE",
"340 850 LINE",
"-21 850 LINE",
"234 0 LINE"
);
}
);
width = 1279;
}
);
note = w;
unicode = 0077;
},
{
glyphname = x;
layers = (
{
layerId = "03879842-7D6D-4B41-A76D-F99E90B677D3";
paths = (
{
closed = 1;
nodes = (
"266 0 LINE",
"364 237 LINE",
"464 0 LINE",
"843 0 LINE",
"605 444 LINE",
"829 850 LINE",
"556 850 LINE",
"452 624 LINE",
"364 850 LINE",
"-21 850 LINE",
"211 417 LINE",
"-6 0 LINE"
);
}
);
width = 820;
}
);
note = x;
unicode = 0078;
},
{
glyphname = y;
layers = (
{
layerId = "03879842-7D6D-4B41-A76D-F99E90B677D3";
paths = (
{
closed = 1;
nodes = (
"751 -344 OFFCURVE",
"873 -178 OFFCURVE",
"873 117 CURVE SMOOTH",
"873 850 LINE",
"492 850 LINE",
"492 735 LINE",
"547 699 LINE",
"547 229 LINE",
"528 213 OFFCURVE",
"512 203 OFFCURVE",
"495 197 CURVE SMOOTH",
"486 194 OFFCURVE",
"478 192 OFFCURVE",
"469 192 CURVE SMOOTH",
"410 192 OFFCURVE",
"396 220 OFFCURVE",
"396 281 CURVE SMOOTH",
"396 850 LINE",
"32 850 LINE",
"32 735 LINE",
"68 699 LINE",
"68 344 LINE SMOOTH",
"68 80 OFFCURVE",
"140 -21 OFFCURVE",
"339 -21 CURVE SMOOTH",
"391 -21 OFFCURVE",
"444 4 OFFCURVE",
"479 34 CURVE SMOOTH",
"514 64 OFFCURVE",
"543 96 OFFCURVE",
"556 117 CURVE SMOOTH",
"566 133 LINE",
"566 47 LINE SMOOTH",
"565 -33 OFFCURVE",
"549 -87 OFFCURVE",
"518 -117 CURVE SMOOTH",
"487 -147 OFFCURVE",
"450 -158 OFFCURVE",
"397 -158 CURVE SMOOTH",
"313 -158 OFFCURVE",
"252 -147 OFFCURVE",
"213 -125 CURVE",
"161 -233 LINE",
"217 -301 OFFCURVE",
"351 -344 OFFCURVE",
"488 -344 CURVE SMOOTH"
);
}
);
width = 930;
}
);
note = y;
unicode = 0079;
},
{
glyphname = z;
layers = (
{
layerId = "03879842-7D6D-4B41-A76D-F99E90B677D3";
paths = (
{
closed = 1;
nodes = (
"767 0 LINE",
"767 302 LINE",
"650 302 LINE",
"626 213 OFFCURVE",
"625 182 OFFCURVE",
"514 166 CURVE SMOOTH",
"477 161 OFFCURVE",
"427 158 OFFCURVE",
"363 158 CURVE",
"486 249 LINE",
"783 689 LINE",
"762 741 OFFCURVE",
"744 805 OFFCURVE",
"737 850 CURVE",
"68 850 LINE",
"68 557 LINE",
"206 557 LINE",
"209 565 OFFCURVE",
"221 598 OFFCURVE",
"226 610 CURVE",
"230 621 OFFCURVE",
"247 649 OFFCURVE",
"262 661 CURVE",
"277 672 OFFCURVE",
"307 692 OFFCURVE",
"340 700 CURVE SMOOTH",
"373 708 OFFCURVE",
"423 715 OFFCURVE",
"483 715 CURVE",
"371 632 LINE",
"15 176 LINE",
"31 132 OFFCURVE",
"52 45 OFFCURVE",
"56 0 CURVE"
);
}
);
width = 800;
}
);
note = z;
unicode = 007A;
},
{
glyphname = braceleft;
layers = (
{
layerId = "03879842-7D6D-4B41-A76D-F99E90B677D3";
paths = (
{
closed = 1;
nodes = (
"628 -280 LINE",
"628 -136 LINE",
"515 -136 OFFCURVE",
"465 -61 OFFCURVE",
"465 54 CURVE SMOOTH",
"465 308 LINE SMOOTH",
"465 379 OFFCURVE",
"436 442 OFFCURVE",
"398 481 CURVE SMOOTH",
"360 520 OFFCURVE",
"308 551 OFFCURVE",
"269 565 CURVE SMOOTH",
"250 572 OFFCURVE",
"232 576 OFFCURVE",
"216 578 CURVE",
"248 583 OFFCURVE",
"286 596 OFFCURVE",
"334 625 CURVE SMOOTH",
"382 653 OFFCURVE",
"420 689 OFFCURVE",
"446 750 CURVE SMOOTH",
"459 781 OFFCURVE",
"465 814 OFFCURVE",
"465 850 CURVE SMOOTH",
"465 1084 LINE SMOOTH",
"465 1187 OFFCURVE",
"502 1249 OFFCURVE",
"577 1268 CURVE SMOOTH",
"593 1272 OFFCURVE",
"610 1274 OFFCURVE",
"628 1274 CURVE",
"628 1418 LINE",
"535 1418 LINE SMOOTH",
"407 1418 OFFCURVE",
"296 1349 OFFCURVE",
"237 1239 CURVE SMOOTH",
"208 1184 OFFCURVE",
"193 1123 OFFCURVE",
"193 1057 CURVE SMOOTH",
"193 797 LINE SMOOTH",
"193 769 OFFCURVE",
"188 742 OFFCURVE",
"174 714 CURVE SMOOTH",
"160 685 OFFCURVE",
"132 666 OFFCURVE",
"96 666 CURVE SMOOTH",
"31 666 LINE",
"31 491 LINE",
"96 491 LINE SMOOTH",
"132 491 OFFCURVE",
"159 472 OFFCURVE",
"173 445 CURVE SMOOTH",
"187 417 OFFCURVE",
"193 388 OFFCURVE",
"193 360 CURVE SMOOTH",
"193 81 LINE SMOOTH",
"193 -51 OFFCURVE",
"255 -167 OFFCURVE",
"360 -231 CURVE SMOOTH",
"413 -264 OFFCURVE",
"471 -280 OFFCURVE",
"535 -280 CURVE SMOOTH"
);
}
);
width = 670;
}
);
leftKerningGroup = braceleft;
note = braceleft;
unicode = 007B;
},
{
glyphname = bar;
layers = (
{
layerId = "03879842-7D6D-4B41-A76D-F99E90B677D3";
paths = (
{
closed = 1;
nodes = (
"110 -363 LINE",
"363 -363 LINE",
"363 1577 LINE",
"110 1577 LINE"
);
}
);
width = 473;
}
);
note = bar;
unicode = 007C;
},
{
glyphname = braceright;
layers = (
{
layerId = "03879842-7D6D-4B41-A76D-F99E90B677D3";
paths = (
{
closed = 1;
nodes = (
"42 -280 LINE",
"135 -280 LINE SMOOTH",
"330 -280 OFFCURVE",
"477 -120 OFFCURVE",
"477 81 CURVE SMOOTH",
"477 360 LINE SMOOTH",
"477 409 OFFCURVE",
"490 445 OFFCURVE",
"517 470 CURVE SMOOTH",
"533 484 OFFCURVE",
"552 491 OFFCURVE",
"574 491 CURVE SMOOTH",
"639 491 LINE",
"639 666 LINE",
"574 666 LINE SMOOTH",
"506 666 OFFCURVE",
"477 733 OFFCURVE",
"477 797 CURVE SMOOTH",
"477 1057 LINE SMOOTH",
"477 1156 OFFCURVE",
"440 1248 OFFCURVE",
"380 1313 CURVE SMOOTH",
"320 1377 OFFCURVE",
"231 1418 OFFCURVE",
"135 1418 CURVE SMOOTH",
"42 1418 LINE",
"42 1274 LINE",
"155 1274 OFFCURVE",
"205 1199 OFFCURVE",
"205 1084 CURVE SMOOTH",
"205 850 LINE SMOOTH",
"205 790 OFFCURVE",
"225 734 OFFCURVE",
"255 698 CURVE SMOOTH",
"285 661 OFFCURVE",
"319 630 OFFCURVE",
"359 611 CURVE SMOOTH",
"398 592 OFFCURVE",
"427 582 OFFCURVE",
"454 578 CURVE",
"422 574 OFFCURVE",
"384 561 OFFCURVE",
"337 532 CURVE SMOOTH",
"289 503 OFFCURVE",
"251 467 OFFCURVE",
"225 407 CURVE SMOOTH",
"212 376 OFFCURVE",
"205 343 OFFCURVE",
"205 308 CURVE SMOOTH",
"205 54 LINE SMOOTH",
"205 -61 OFFCURVE",
"155 -136 OFFCURVE",
"42 -136 CURVE"
);
}
);
width = 670;
}
);
note = braceright;
unicode = 007D;
},
{
glyphname = asciitilde;
layers = (
{
layerId = "03879842-7D6D-4B41-A76D-F99E90B677D3";
paths = (
{
closed = 1;
nodes = (
"243 298 LINE",
"243 328 LINE SMOOTH",
"243 371 OFFCURVE",
"257 401 OFFCURVE",
"285 416 CURVE",
"296 421 OFFCURVE",
"307 424 OFFCURVE",
"320 424 CURVE SMOOTH",
"345 424 OFFCURVE",
"385 414 OFFCURVE",
"439 393 CURVE SMOOTH",
"546 352 OFFCURVE",
"675 299 OFFCURVE",
"746 299 CURVE SMOOTH",
"931 299 OFFCURVE",
"1025 395 OFFCURVE",
"1025 614 CURVE SMOOTH",
"1025 683 LINE",
"822 683 LINE",
"822 654 LINE SMOOTH",
"822 589 OFFCURVE",
"794 557 OFFCURVE",
"737 557 CURVE SMOOTH",
"693 557 OFFCURVE",
"620 588 OFFCURVE",
"560 620 CURVE SMOOTH",
"499 652 OFFCURVE",
"403 683 OFFCURVE",
"320 683 CURVE SMOOTH",
"248 683 OFFCURVE",
"184 661 OFFCURVE",
"129 614 CURVE SMOOTH",
"74 567 OFFCURVE",
"40 480 OFFCURVE",
"40 368 CURVE SMOOTH",
"40 298 LINE"
);
}
);
width = 1065;
}
);
note = asciitilde;
unicode = 007E;
},
{
glyphname = exclamdown;
layers = (
{
layerId = "03879842-7D6D-4B41-A76D-F99E90B677D3";
paths = (
{
closed = 1;
nodes = (
"411 -59 OFFCURVE",
"481 6 OFFCURVE",
"481 134 CURVE SMOOTH",
"481 167 OFFCURVE",
"476 199 OFFCURVE",
"467 228 CURVE",
"388 441 OFFCURVE",
"360 560 OFFCURVE",
"357 735 CURVE",
"204 735 LINE",
"201 560 OFFCURVE",
"173 441 OFFCURVE",
"94 228 CURVE SMOOTH",
"85 201 OFFCURVE",
"81 171 OFFCURVE",
"81 138 CURVE SMOOTH",
"81 15 OFFCURVE",
"143 -59 OFFCURVE",
"280 -59 CURVE SMOOTH"
);
},
{
closed = 1;
nodes = (
"263 826 LINE",
"301 826 LINE",
"465 990 LINE",
"465 1025 LINE",
"301 1190 LINE",
"263 1190 LINE",
"92 1025 LINE",
"92 990 LINE"
);
}
);
width = 580;
}
);
note = exclamdown;
unicode = 00A1;
},
{
glyphname = cent;
layers = (
{
layerId = "03879842-7D6D-4B41-A76D-F99E90B677D3";
paths = (
{
closed = 1;
nodes = (
"697 219 LINE",
"652 183 OFFCURVE",
"575 168 OFFCURVE",
"508 168 CURVE SMOOTH",
"479 168 OFFCURVE",
"464 168 OFFCURVE",
"433 185 CURVE SMOOTH",
"401 202 OFFCURVE",
"385 229 OFFCURVE",
"370 293 CURVE SMOOTH",
"363 324 OFFCURVE",
"359 362 OFFCURVE",
"359 407 CURVE SMOOTH",
"359 612 OFFCURVE",
"398 686 OFFCURVE",
"519 686 CURVE SMOOTH",
"520 686 OFFCURVE",
"522 686 OFFCURVE",
"523 686 CURVE SMOOTH",
"524 686 OFFCURVE",
"525 686 OFFCURVE",
"526 686 CURVE SMOOTH",
"527 686 OFFCURVE",
"529 686 OFFCURVE",
"530 686 CURVE SMOOTH",
"531 686 OFFCURVE",
"532 686 OFFCURVE",
"533 686 CURVE SMOOTH",
"534 686 OFFCURVE",
"536 686 OFFCURVE",
"537 686 CURVE SMOOTH",
"538 686 OFFCURVE",
"539 686 OFFCURVE",
"540 685 CURVE",
"598 531 LINE",
"740 532 LINE",
"755 767 LINE",
"755 767 OFFCURVE",
"748 774 OFFCURVE",
"734 788 CURVE",
"691 825 OFFCURVE",
"635 849 OFFCURVE",
"566 862 CURVE",
"566 1044 LINE",
"315 1044 LINE",
"315 847 LINE",
"232 818 OFFCURVE",
"164 765 OFFCURVE",
"115 693 CURVE SMOOTH",
"66 621 OFFCURVE",
"38 524 OFFCURVE",
"38 413 CURVE SMOOTH",
"38 262 OFFCURVE",
"83 148 OFFCURVE",
"173 71 CURVE SMOOTH",
"210 40 OFFCURVE",
"253 16 OFFCURVE",
"302 1 CURVE",
"302 -187 LINE",
"553 -187 LINE",
"553 -13 LINE",
"636 1 OFFCURVE",
"698 30 OFFCURVE",
"740 75 CURVE SMOOTH",
"745 80 OFFCURVE",
"747 82 OFFCURVE",
"747 83 CURVE"
);
}
);
width = 847;
}
);
note = cent;
unicode = 00A2;
},
{
glyphname = sterling;
layers = (
{
layerId = "03879842-7D6D-4B41-A76D-F99E90B677D3";
paths = (
{
closed = 1;
nodes = (
"142 -15 LINE SMOOTH",
"182 20 OFFCURVE",
"259 63 OFFCURVE",
"336 63 CURVE SMOOTH",
"361 63 OFFCURVE",
"416 53 OFFCURVE",
"501 32 CURVE SMOOTH",
"586 11 OFFCURVE",
"643 0 OFFCURVE",
"673 0 CURVE SMOOTH",
"736 0 OFFCURVE",
"804 9 OFFCURVE",
"882 37 CURVE SMOOTH",
"960 65 OFFCURVE",
"1021 104 OFFCURVE",
"1062 174 CURVE SMOOTH",
"1082 209 OFFCURVE",
"1092 248 OFFCURVE",
"1092 291 CURVE SMOOTH",
"1092 430 LINE",
"792 430 LINE",
"793 401 LINE SMOOTH",
"796 321 OFFCURVE",
"782 264 OFFCURVE",
"754 234 CURVE SMOOTH",
"725 204 OFFCURVE",
"691 191 OFFCURVE",
"644 191 CURVE SMOOTH",
"640 191 OFFCURVE",
"624 193 OFFCURVE",
"597 196 CURVE SMOOTH",
"542 202 OFFCURVE",
"497 208 OFFCURVE",
"427 199 CURVE SMOOTH",
"392 194 OFFCURVE",
"361 186 OFFCURVE",
"336 173 CURVE",
"385 197 OFFCURVE",
"424 230 OFFCURVE",
"449 257 CURVE SMOOTH",
"473 284 OFFCURVE",
"491 327 OFFCURVE",
"500 354 CURVE SMOOTH",
"508 381 OFFCURVE",
"512 433 OFFCURVE",
"513 457 CURVE",
"513 468 OFFCURVE",
"513 485 OFFCURVE",
"513 508 CURVE SMOOTH",
"513 514 OFFCURVE",
"513 518 OFFCURVE",
"513 521 CURVE",
"711 521 LINE",
"711 722 LINE",
"517 722 LINE",
"518 879 LINE SMOOTH",
"518 934 OFFCURVE",
"582 959 OFFCURVE",
"686 959 CURVE SMOOTH",
"757 959 OFFCURVE",
"843 929 OFFCURVE",
"895 868 CURVE",
"945 1061 LINE",
"943 1064 OFFCURVE",
"940 1069 OFFCURVE",
"935 1075 CURVE SMOOTH",
"926 1086 OFFCURVE",
"886 1121 OFFCURVE",
"843 1142 CURVE SMOOTH",
"800 1163 OFFCURVE",
"719 1185 OFFCURVE",
"634 1185 CURVE SMOOTH",
"345 1185 OFFCURVE",
"171 1068 OFFCURVE",
"171 828 CURVE SMOOTH",
"171 722 LINE",
"40 722 LINE",
"40 521 LINE",
"161 521 LINE",
"162 510 OFFCURVE",
"163 502 OFFCURVE",
"164 497 CURVE SMOOTH",
"165 491 OFFCURVE",
"165 488 OFFCURVE",
"166 488 CURVE",
"166 487 OFFCURVE",
"166 487 OFFCURVE",
"167 487 CURVE SMOOTH",
"168 487 OFFCURVE",
"169 478 OFFCURVE",
"169 461 CURVE SMOOTH",
"169 324 OFFCURVE",
"132 228 OFFCURVE",
"58 173 CURVE SMOOTH",
"35 156 OFFCURVE",
"17 147 OFFCURVE",
"3 146 CURVE",
"132 -24 LINE"
);
}
);
width = 1141;
}
);
note = sterling;
unicode = 00A3;
},
{
glyphname = currency;
layers = (
{
layerId = "03879842-7D6D-4B41-A76D-F99E90B677D3";
paths = (
{
closed = 1;
nodes = (
"808 73 OFFCURVE",
"872 88 OFFCURVE",
"933 117 CURVE",
"1051 -45 LINE",
"1324 -45 LINE",
"1104 262 LINE",
"1157 338 OFFCURVE",
"1184 423 OFFCURVE",
"1184 517 CURVE SMOOTH",
"1184 617 OFFCURVE",
"1152 710 OFFCURVE",
"1093 787 CURVE",
"1314 1094 LINE",
"1041 1094 LINE",
"918 925 LINE",
"861 950 OFFCURVE",
"802 962 OFFCURVE",
"739 962 CURVE SMOOTH",
"672 962 OFFCURVE",
"609 948 OFFCURVE",
"550 920 CURVE",
"424 1094 LINE",
"151 1094 LINE",
"378 777 LINE",
"361 753 OFFCURVE",
"346 727 OFFCURVE",
"334 699 CURVE SMOOTH",
"321 671 OFFCURVE",
"312 642 OFFCURVE",
"305 612 CURVE SMOOTH",
"298 582 OFFCURVE",
"295 549 OFFCURVE",
"295 517 CURVE SMOOTH",
"295 421 OFFCURVE",
"323 335 OFFCURVE",
"378 258 CURVE",
"161 -45 LINE",
"434 -45 LINE",
"550 115 LINE",
"609 87 OFFCURVE",
"672 73 OFFCURVE",
"739 73 CURVE SMOOTH"
);
},
{
closed = 1;
nodes = (
"855 295 OFFCURVE",
"803 271 OFFCURVE",
"739 271 CURVE SMOOTH",
"611 271 OFFCURVE",
"523 381 OFFCURVE",
"523 517 CURVE SMOOTH",
"523 653 OFFCURVE",
"612 764 OFFCURVE",
"739 764 CURVE SMOOTH",
"867 764 OFFCURVE",
"956 652 OFFCURVE",
"956 517 CURVE SMOOTH",
"956 450 OFFCURVE",
"936 392 OFFCURVE",
"896 344 CURVE SMOOTH"
);
}
);
width = 1434;
}
);
note = currency;
unicode = 00A4;
},
{
glyphname = yen;
layers = (
{
layerId = "03879842-7D6D-4B41-A76D-F99E90B677D3";
paths = (
{
closed = 1;
nodes = (
"990 334 LINE",
"990 585 LINE",
"792 585 LINE",
"1007 1172 LINE",
"709 1172 LINE",
"631 870 LINE",
"574 623 LINE",
"505 870 LINE",
"402 1172 LINE",
"23 1172 LINE",
"265 585 LINE",
"74 585 LINE",
"74 334 LINE",
"355 334 LINE",
"355 0 LINE",
"714 0 LINE",
"714 334 LINE"
);
}
);
width = 1041;
}
);
note = yen;
unicode = 00A5;
},
{
glyphname = brokenbar;
layers = (
{
layerId = "03879842-7D6D-4B41-A76D-F99E90B677D3";
paths = (
{
closed = 1;
nodes = (
"110 -363 LINE",
"364 -363 LINE",
"363 511 LINE",
"110 511 LINE"
);
},
{
closed = 1;
nodes = (
"110 703 LINE",
"363 703 LINE",
"363 1577 LINE",
"110 1577 LINE"
);
}
);
width = 473;
}
);
note = brokenbar;
unicode = 00A6;
},
{
glyphname = section;
layers = (
{
layerId = "03879842-7D6D-4B41-A76D-F99E90B677D3";
paths = (
{
closed = 1;
nodes = (
"635 -41 OFFCURVE",
"738 -10 OFFCURVE",
"799 38 CURVE SMOOTH",
"860 85 OFFCURVE",
"896 142 OFFCURVE",
"896 199 CURVE SMOOTH",
"896 255 OFFCURVE",
"875 304 OFFCURVE",
"838 348 CURVE",
"883 372 OFFCURVE",
"917 409 OFFCURVE",
"933 446 CURVE SMOOTH",
"949 482 OFFCURVE",
"956 513 OFFCURVE",
"956 544 CURVE SMOOTH",
"956 593 OFFCURVE",
"935 643 OFFCURVE",
"908 677 CURVE SMOOTH",
"880 711 OFFCURVE",
"835 747 OFFCURVE",
"802 767 CURVE SMOOTH",
"769 787 OFFCURVE",
"736 806 OFFCURVE",
"682 831 CURVE SMOOTH",
"628 855 OFFCURVE",
"597 870 OFFCURVE",
"562 891 CURVE SMOOTH",
"526 912 OFFCURVE",
"508 935 OFFCURVE",
"508 962 CURVE SMOOTH",
"508 1027 OFFCURVE",
"501 1038 OFFCURVE",
"580 1041 CURVE",
"586 1041 OFFCURVE",
"592 1041 OFFCURVE",
"599 1041 CURVE SMOOTH",
"706 1041 OFFCURVE",
"803 978 OFFCURVE",
"858 905 CURVE",
"883 1148 LINE",
"858 1175 OFFCURVE",
"822 1201 OFFCURVE",
"762 1230 CURVE SMOOTH",
"702 1259 OFFCURVE",
"610 1279 OFFCURVE",
"507 1279 CURVE SMOOTH",
"388 1279 OFFCURVE",
"285 1248 OFFCURVE",
"224 1201 CURVE SMOOTH",
"163 1153 OFFCURVE",
"127 1096 OFFCURVE",
"127 1039 CURVE SMOOTH",
"127 985 OFFCURVE",
"146 935 OFFCURVE",
"185 890 CURVE",
"118 855 OFFCURVE",
"80 800 OFFCURVE",
"69 725 CURVE",
"68 714 OFFCURVE",
"67 704 OFFCURVE",
"67 694 CURVE SMOOTH",
"67 598 OFFCURVE",
"136 513 OFFCURVE",
"275 440 CURVE SMOOTH",
"292 431 OFFCURVE",
"315 420 OFFCURVE",
"342 408 CURVE SMOOTH",
"396 383 OFFCURVE",
"426 368 OFFCURVE",
"462 347 CURVE SMOOTH",
"497 326 OFFCURVE",
"515 303 OFFCURVE",
"515 276 CURVE SMOOTH",
"515 211 OFFCURVE",
"522 200 OFFCURVE",
"443 197 CURVE",
"437 197 OFFCURVE",
"431 197 OFFCURVE",
"424 197 CURVE SMOOTH",
"317 197 OFFCURVE",
"220 260 OFFCURVE",
"165 333 CURVE",
"140 90 LINE",
"165 63 OFFCURVE",
"201 37 OFFCURVE",
"261 8 CURVE SMOOTH",
"321 -21 OFFCURVE",
"413 -41 OFFCURVE",
"516 -41 CURVE SMOOTH"
);
},
{
closed = 1;
nodes = (
"484 558 OFFCURVE",
"471 564 OFFCURVE",
"453 573 CURVE SMOOTH",
"416 590 OFFCURVE",
"393 600 OFFCURVE",
"360 621 CURVE SMOOTH",
"327 641 OFFCURVE",
"307 656 OFFCURVE",
"292 680 CURVE SMOOTH",
"285 691 OFFCURVE",
"281 703 OFFCURVE",
"281 714 CURVE SMOOTH",
"281 735 OFFCURVE",
"290 753 OFFCURVE",
"303 765 CURVE",
"310 771 OFFCURVE",
"318 776 OFFCURVE",
"328 781 CURVE",
"377 754 OFFCURVE",
"444 722 OFFCURVE",
"530 685 CURVE",
"538 681 OFFCURVE",
"554 673 OFFCURVE",
"579 662 CURVE",
"627 638 OFFCURVE",
"651 626 OFFCURVE",
"688 602 CURVE SMOOTH",
"724 577 OFFCURVE",
"742 551 OFFCURVE",
"742 524 CURVE SMOOTH",
"742 493 OFFCURVE",
"726 470 OFFCURVE",
"695 457 CURVE",
"646 484 OFFCURVE",
"579 516 OFFCURVE",
"493 553 CURVE"
);
}
);
width = 1051;
}
);
note = section;
unicode = 00A7;
},
{
glyphname = dieresis;
layers = (
{
layerId = "03879842-7D6D-4B41-A76D-F99E90B677D3";
paths = (
{
closed = 1;
nodes = (
"196 977 LINE",
"229 977 LINE",
"381 1123 LINE",
"381 1154 LINE",
"229 1300 LINE",
"196 1300 LINE",
"50 1154 LINE",
"50 1123 LINE"
);
},
{
closed = 1;
nodes = (
"581 977 LINE",
"615 977 LINE",
"767 1123 LINE",
"767 1154 LINE",
"615 1300 LINE",
"581 1300 LINE",
"435 1154 LINE",
"435 1123 LINE"
);
}
);
width = 817;
}
);
note = dieresis;
unicode = 00A8;
},
{
glyphname = copyright;
layers = (
{
layerId = "03879842-7D6D-4B41-A76D-F99E90B677D3";
paths = (
{
closed = 1;
nodes = (
"724 536 LINE",
"698 628 LINE",
"670 608 OFFCURVE",
"622 598 OFFCURVE",
"582 598 CURVE SMOOTH",
"515 598 OFFCURVE",
"481 673 OFFCURVE",
"481 823 CURVE SMOOTH",
"481 888 OFFCURVE",
"485 937 OFFCURVE",
"492 972 CURVE SMOOTH",
"507 1040 OFFCURVE",
"532 1058 OFFCURVE",
"584 1058 CURVE SMOOTH",
"585 1058 OFFCURVE",
"587 1058 OFFCURVE",
"589 1058 CURVE SMOOTH",
"590 1058 OFFCURVE",
"592 1058 OFFCURVE",
"593 1058 CURVE",
"594 1057 OFFCURVE",
"596 1057 OFFCURVE",
"598 1057 CURVE",
"599 1056 OFFCURVE",
"601 1056 OFFCURVE",
"602 1055 CURVE",
"632 986 LINE",
"720 986 LINE",
"729 1120 LINE",
"728 1121 OFFCURVE",
"726 1124 OFFCURVE",
"723 1127 CURVE",
"718 1133 OFFCURVE",
"696 1149 OFFCURVE",
"672 1160 CURVE SMOOTH",
"647 1171 OFFCURVE",
"602 1181 OFFCURVE",
"554 1181 CURVE SMOOTH",
"350 1181 OFFCURVE",
"277 1062 OFFCURVE",
"277 827 CURVE SMOOTH",
"277 719 OFFCURVE",
"294 639 OFFCURVE",
"334 575 CURVE SMOOTH",
"374 510 OFFCURVE",
"446 475 OFFCURVE",
"549 475 CURVE SMOOTH",
"625 475 OFFCURVE",
"689 501 OFFCURVE",
"709 521 CURVE SMOOTH"
);
},
{
closed = 1;
nodes = (
"382 343 OFFCURVE",
"292 378 OFFCURVE",
"239 431 CURVE SMOOTH",
"186 483 OFFCURVE",
"155 575 OFFCURVE",
"144 666 CURVE SMOOTH",
"139 711 OFFCURVE",
"136 765 OFFCURVE",
"136 826 CURVE SMOOTH",
"136 987 OFFCURVE",
"155 1092 OFFCURVE",
"214 1181 CURVE SMOOTH",
"273 1270 OFFCURVE",
"379 1313 OFFCURVE",
"542 1313 CURVE SMOOTH",
"666 1313 OFFCURVE",
"756 1279 OFFCURVE",
"810 1225 CURVE SMOOTH",
"864 1171 OFFCURVE",
"894 1078 OFFCURVE",
"905 987 CURVE SMOOTH",
"910 942 OFFCURVE",
"913 888 OFFCURVE",
"913 827 CURVE SMOOTH",
"913 699 OFFCURVE",
"901 609 OFFCURVE",
"865 526 CURVE SMOOTH",
"829 443 OFFCURVE",
"771 394 OFFCURVE",
"676 365 CURVE SMOOTH",
"628 350 OFFCURVE",
"571 343 OFFCURVE",
"506 343 CURVE SMOOTH"
);
},
{
closed = 1;
nodes = (
"622 247 OFFCURVE",
"715 266 OFFCURVE",
"785 299 CURVE SMOOTH",
"855 331 OFFCURVE",
"906 385 OFFCURVE",
"940 446 CURVE SMOOTH",
"974 507 OFFCURVE",
"994 593 OFFCURVE",
"1003 681 CURVE SMOOTH",
"1007 724 OFFCURVE",
"1009 773 OFFCURVE",
"1009 827 CURVE SMOOTH",
"1009 931 OFFCURVE",
"1003 1007 OFFCURVE",
"986 1090 CURVE SMOOTH",
"969 1173 OFFCURVE",
"941 1231 OFFCURVE",
"894 1286 CURVE SMOOTH",
"846 1341 OFFCURVE",
"784 1374 OFFCURVE",
"694 1394 CURVE SMOOTH",
"649 1404 OFFCURVE",
"598 1409 OFFCURVE",
"542 1409 CURVE SMOOTH",
"381 1409 OFFCURVE",
"262 1371 OFFCURVE",
"188 1308 CURVE SMOOTH",
"114 1245 OFFCURVE",
"69 1140 OFFCURVE",
"53 1026 CURVE SMOOTH",
"44 969 OFFCURVE",
"40 902 OFFCURVE",
"40 826 CURVE SMOOTH",
"40 678 OFFCURVE",
"50 579 OFFCURVE",
"90 476 CURVE SMOOTH",
"129 373 OFFCURVE",
"192 314 OFFCURVE",
"305 276 CURVE SMOOTH",
"361 257 OFFCURVE",
"428 247 OFFCURVE",
"506 247 CURVE SMOOTH"
);
}
);
width = 1049;
}
);
note = copyright;
unicode = 00A9;
},
{
glyphname = ordfeminine;
layers = (
{
layerId = "03879842-7D6D-4B41-A76D-F99E90B677D3";
paths = (
{
closed = 1;
nodes = (
"459 580 LINE",
"488 499 LINE",
"716 499 LINE",
"691 570 LINE",
"691 936 LINE SMOOTH",
"691 1069 OFFCURVE",
"677 1148 OFFCURVE",
"633 1205 CURVE SMOOTH",
"589 1262 OFFCURVE",
"518 1282 OFFCURVE",
"399 1282 CURVE SMOOTH",
"264 1282 OFFCURVE",
"123 1235 OFFCURVE",
"40 1183 CURVE",
"97 1060 LINE",
"142 1084 OFFCURVE",
"232 1104 OFFCURVE",
"308 1104 CURVE SMOOTH",
"395 1104 OFFCURVE",
"431 1077 OFFCURVE",
"431 1004 CURVE SMOOTH",
"431 988 LINE",
"386 988 OFFCURVE",
"354 987 OFFCURVE",
"296 980 CURVE SMOOTH",
"238 973 OFFCURVE",
"195 962 OFFCURVE",
"146 938 CURVE SMOOTH",
"97 914 OFFCURVE",
"64 883 OFFCURVE",
"43 833 CURVE SMOOTH",
"32 808 OFFCURVE",
"27 779 OFFCURVE",
"27 748 CURVE SMOOTH",
"27 583 OFFCURVE",
"115 481 OFFCURVE",
"252 481 CURVE SMOOTH",
"300 481 OFFCURVE",
"349 496 OFFCURVE",
"381 516 CURVE SMOOTH",
"412 535 OFFCURVE",
"438 557 OFFCURVE",
"450 570 CURVE SMOOTH"
);
},
{
closed = 1;
nodes = (
"337 639 OFFCURVE",
"311 676 OFFCURVE",
"311 751 CURVE SMOOTH",
"311 835 OFFCURVE",
"358 875 OFFCURVE",
"431 875 CURVE",
"431 659 LINE",
"430 659 OFFCURVE",
"428 657 OFFCURVE",
"425 654 CURVE SMOOTH",
"418 647 OFFCURVE",
"404 639 OFFCURVE",
"388 639 CURVE SMOOTH"
);
}
);
width = 753;
}
);
note = ordfeminine;
unicode = 00AA;
},
{
glyphname = guillemotleft;
layers = (
{
layerId = "03879842-7D6D-4B41-A76D-F99E90B677D3";
paths = (
{
closed = 1;
nodes = (
"411 122 LINE",
"695 122 LINE",
"471 492 LINE",
"695 854 LINE",
"411 854 LINE",
"80 492 LINE"
);
},
{
closed = 1;
nodes = (
"904 122 LINE",
"1188 122 LINE",
"994 492 LINE",
"1188 854 LINE",
"904 854 LINE",
"603 492 LINE"
);
}
);
width = 1288;
}
);
note = guillemotleft;
unicode = 00AB;
},
{
glyphname = logicalnot;
layers = (
{
layerId = "03879842-7D6D-4B41-A76D-F99E90B677D3";
paths = (
{
closed = 1;
nodes = (
"837 0 LINE",
"1038 0 LINE",
"1038 615 LINE",
"110 615 LINE",
"110 414 LINE",
"837 414 LINE"
);
}
);
width = 1148;
}
);
note = logicalnot;
unicode = 00AC;
},
{
glyphname = uni00AD;
layers = (
{
layerId = "03879842-7D6D-4B41-A76D-F99E90B677D3";
paths = (
{
closed = 1;
nodes = (
"80 464 LINE",
"678 464 LINE",
"678 715 LINE",
"80 715 LINE"
);
}
);
width = 758;
}
);
note = uni00AD;
unicode = 00AD;
},
{
glyphname = registered;
layers = (
{
layerId = "03879842-7D6D-4B41-A76D-F99E90B677D3";
paths = (
{
closed = 1;
nodes = (
"484 710 LINE",
"487 710 OFFCURVE",
"497 710 OFFCURVE",
"514 709 CURVE SMOOTH",
"531 708 OFFCURVE",
"544 707 OFFCURVE",
"555 707 CURVE SMOOTH",
"558 707 LINE",
"569 668 OFFCURVE",
"575 608 OFFCURVE",
"578 568 CURVE SMOOTH",
"581 527 OFFCURVE",
"585 487 OFFCURVE",
"590 478 CURVE",
"784 478 LINE",
"772 497 OFFCURVE",
"760 534 OFFCURVE",
"753 570 CURVE SMOOTH",
"746 605 OFFCURVE",
"735 646 OFFCURVE",
"724 678 CURVE SMOOTH",
"712 710 OFFCURVE",
"691 736 OFFCURVE",
"663 744 CURVE",
"702 771 OFFCURVE",
"730 809 OFFCURVE",
"747 864 CURVE SMOOTH",
"756 891 OFFCURVE",
"760 921 OFFCURVE",
"760 952 CURVE SMOOTH",
"760 1108 OFFCURVE",
"687 1182 OFFCURVE",
"536 1182 CURVE SMOOTH",
"514 1182 OFFCURVE",
"486 1181 OFFCURVE",
"453 1180 CURVE SMOOTH",
"420 1178 OFFCURVE",
"395 1177 OFFCURVE",
"378 1177 CURVE SMOOTH",
"310 1177 LINE",
"310 478 LINE",
"484 478 LINE"
);
},
{
closed = 1;
nodes = (
"484 821 LINE",
"484 1067 LINE",
"494 1067 LINE SMOOTH",
"531 1067 OFFCURVE",
"557 1059 OFFCURVE",
"574 1031 CURVE",
"582 1016 OFFCURVE",
"586 997 OFFCURVE",
"586 974 CURVE SMOOTH",
"586 926 LINE SMOOTH",
"586 879 OFFCURVE",
"578 850 OFFCURVE",
"560 837 CURVE SMOOTH",
"542 824 OFFCURVE",
"527 821 OFFCURVE",
"500 821 CURVE SMOOTH"
);
},
{
closed = 1;
nodes = (
"382 343 OFFCURVE",
"292 378 OFFCURVE",
"239 431 CURVE SMOOTH",
"186 483 OFFCURVE",
"155 575 OFFCURVE",
"144 666 CURVE SMOOTH",
"139 711 OFFCURVE",
"136 765 OFFCURVE",
"136 826 CURVE SMOOTH",
"136 987 OFFCURVE",
"155 1092 OFFCURVE",
"214 1181 CURVE SMOOTH",
"273 1270 OFFCURVE",
"379 1313 OFFCURVE",
"542 1313 CURVE SMOOTH",
"666 1313 OFFCURVE",
"756 1279 OFFCURVE",
"810 1225 CURVE SMOOTH",
"864 1171 OFFCURVE",
"894 1078 OFFCURVE",
"905 987 CURVE SMOOTH",
"910 942 OFFCURVE",
"913 888 OFFCURVE",
"913 827 CURVE SMOOTH",
"913 699 OFFCURVE",
"901 609 OFFCURVE",
"865 526 CURVE SMOOTH",
"829 443 OFFCURVE",
"771 394 OFFCURVE",
"676 365 CURVE SMOOTH",
"628 350 OFFCURVE",
"571 343 OFFCURVE",
"506 343 CURVE SMOOTH"
);
},
{
closed = 1;
nodes = (
"622 247 OFFCURVE",
"715 266 OFFCURVE",
"785 299 CURVE SMOOTH",
"855 331 OFFCURVE",
"906 385 OFFCURVE",
"940 446 CURVE SMOOTH",
"974 507 OFFCURVE",
"994 593 OFFCURVE",
"1003 681 CURVE SMOOTH",
"1007 724 OFFCURVE",
"1009 773 OFFCURVE",
"1009 827 CURVE SMOOTH",
"1009 931 OFFCURVE",
"1003 1007 OFFCURVE",
"986 1090 CURVE SMOOTH",
"969 1173 OFFCURVE",
"941 1231 OFFCURVE",
"894 1286 CURVE SMOOTH",
"846 1341 OFFCURVE",
"784 1374 OFFCURVE",
"694 1394 CURVE SMOOTH",
"649 1404 OFFCURVE",
"598 1409 OFFCURVE",
"542 1409 CURVE SMOOTH",
"381 1409 OFFCURVE",
"262 1371 OFFCURVE",
"188 1308 CURVE SMOOTH",
"114 1245 OFFCURVE",
"69 1140 OFFCURVE",
"53 1026 CURVE SMOOTH",
"44 969 OFFCURVE",
"40 902 OFFCURVE",
"40 826 CURVE SMOOTH",
"40 678 OFFCURVE",
"50 579 OFFCURVE",
"90 476 CURVE SMOOTH",
"129 373 OFFCURVE",
"192 314 OFFCURVE",
"305 276 CURVE SMOOTH",
"361 257 OFFCURVE",
"428 247 OFFCURVE",
"506 247 CURVE SMOOTH"
);
}
);
width = 1049;
}
);
note = registered;
unicode = 00AE;
},
{
glyphname = degree;
layers = (
{
layerId = "03879842-7D6D-4B41-A76D-F99E90B677D3";
paths = (
{
closed = 1;
nodes = (
"319 1305 OFFCURVE",
"350 1320 OFFCURVE",
"389 1320 CURVE SMOOTH",
"466 1320 OFFCURVE",
"522 1252 OFFCURVE",
"522 1169 CURVE SMOOTH",
"522 1086 OFFCURVE",
"466 1019 OFFCURVE",
"389 1019 CURVE SMOOTH",
"312 1019 OFFCURVE",
"257 1086 OFFCURVE",
"257 1169 CURVE SMOOTH",
"257 1210 OFFCURVE",
"269 1246 OFFCURVE",
"294 1276 CURVE SMOOTH"
);
},
{
closed = 1;
nodes = (
"557 867 OFFCURVE",
"692 1003 OFFCURVE",
"692 1170 CURVE SMOOTH",
"692 1338 OFFCURVE",
"557 1473 OFFCURVE",
"390 1473 CURVE SMOOTH",
"222 1473 OFFCURVE",
"87 1338 OFFCURVE",
"87 1170 CURVE SMOOTH",
"87 1003 OFFCURVE",
"222 867 OFFCURVE",
"390 867 CURVE SMOOTH"
);
}
);
width = 779;
}
);
note = degree;
unicode = 00B0;
},
{
glyphname = plusminus;
layers = (
{
layerId = "03879842-7D6D-4B41-A76D-F99E90B677D3";
paths = (
{
closed = 1;
nodes = (
"1038 0 LINE",
"1038 201 LINE",
"685 201 LINE",
"685 534 LINE",
"1038 534 LINE",
"1038 735 LINE",
"685 735 LINE",
"685 1126 LINE",
"463 1126 LINE",
"463 735 LINE",
"110 735 LINE",
"110 534 LINE",
"463 534 LINE",
"463 201 LINE",
"110 201 LINE",
"110 0 LINE"
);
}
);
width = 1148;
}
);
note = plusminus;
unicode = 00B1;
},
{
glyphname = uni00B2;
layers = (
{
layerId = "03879842-7D6D-4B41-A76D-F99E90B677D3";
paths = (
{
closed = 1;
nodes = (
"749 980 LINE",
"749 1173 LINE",
"269 1142 LINE",
"313 1189 OFFCURVE",
"390 1240 OFFCURVE",
"455 1276 CURVE SMOOTH",
"520 1311 OFFCURVE",
"595 1357 OFFCURVE",
"646 1400 CURVE SMOOTH",
"697 1443 OFFCURVE",
"733 1504 OFFCURVE",
"733 1573 CURVE SMOOTH",
"733 1661 OFFCURVE",
"694 1727 OFFCURVE",
"629 1762 CURVE SMOOTH",
"564 1797 OFFCURVE",
"488 1812 OFFCURVE",
"393 1812 CURVE SMOOTH",
"229 1812 OFFCURVE",
"118 1774 OFFCURVE",
"59 1697 CURVE",
"71 1532 LINE",
"217 1532 LINE",
"255 1676 LINE",
"279 1683 OFFCURVE",
"308 1686 OFFCURVE",
"343 1686 CURVE SMOOTH",
"412 1686 OFFCURVE",
"454 1625 OFFCURVE",
"454 1565 CURVE SMOOTH",
"454 1526 OFFCURVE",
"436 1486 OFFCURVE",
"399 1445 CURVE SMOOTH",
"362 1404 OFFCURVE",
"301 1352 OFFCURVE",
"214 1289 CURVE SMOOTH",
"110 1218 OFFCURVE",
"58 1150 OFFCURVE",
"58 1083 CURVE SMOOTH",
"58 1025 OFFCURVE",
"59 993 OFFCURVE",
"62 988 CURVE",
"66 980 LINE"
);
}
);
width = 792;
}
);
note = uni00B2;
unicode = 00B2;
},
{
glyphname = uni00B3;
layers = (
{
layerId = "03879842-7D6D-4B41-A76D-F99E90B677D3";
paths = (
{
closed = 1;
nodes = (
"512 966 OFFCURVE",
"644 1060 OFFCURVE",
"644 1184 CURVE SMOOTH",
"644 1324 OFFCURVE",
"559 1400 OFFCURVE",
"422 1409 CURVE",
"549 1418 OFFCURVE",
"612 1475 OFFCURVE",
"612 1578 CURVE SMOOTH",
"612 1722 OFFCURVE",
"511 1812 OFFCURVE",
"283 1812 CURVE SMOOTH",
"197 1812 OFFCURVE",
"116 1791 OFFCURVE",
"40 1749 CURVE",
"40 1634 LINE",
"78 1659 OFFCURVE",
"120 1671 OFFCURVE",
"166 1671 CURVE SMOOTH",
"263 1671 OFFCURVE",
"327 1634 OFFCURVE",
"327 1550 CURVE SMOOTH",
"327 1463 OFFCURVE",
"270 1440 OFFCURVE",
"153 1440 CURVE SMOOTH",
"142 1440 LINE",
"142 1344 LINE",
"163 1344 LINE SMOOTH",
"272 1344 OFFCURVE",
"327 1304 OFFCURVE",
"327 1223 CURVE SMOOTH",
"327 1155 OFFCURVE",
"291 1106 OFFCURVE",
"166 1106 CURVE SMOOTH",
"120 1106 OFFCURVE",
"78 1118 OFFCURVE",
"40 1143 CURVE",
"40 1028 LINE",
"115 987 OFFCURVE",
"196 966 OFFCURVE",
"283 966 CURVE SMOOTH"
);
}
);
width = 682;
}
);
note = uni00B3;
unicode = 00B3;
},
{
glyphname = acute;
layers = (
{
layerId = "03879842-7D6D-4B41-A76D-F99E90B677D3";
paths = (
{
closed = 1;
nodes = (
"50 966 LINE",
"214 966 LINE",
"453 1296 LINE",
"190 1296 LINE"
);
}
);
width = 503;
}
);
note = acute;
unicode = 00B4;
},
{
glyphname = mu;
layers = (
{
layerId = "03879842-7D6D-4B41-A76D-F99E90B677D3";
paths = (
{
closed = 1;
nodes = (
"227 -297 LINE",
"315 157 LINE",
"323 90 OFFCURVE",
"399 0 OFFCURVE",
"499 0 CURVE SMOOTH",
"634 0 OFFCURVE",
"716 36 OFFCURVE",
"824 167 CURVE",
"841 0 LINE",
"1108 0 LINE",
"1140 182 LINE",
"1034 182 LINE",
"1174 986 LINE",
"804 986 LINE",
"700 359 LINE SMOOTH",
"693 319 OFFCURVE",
"645 280 OFFCURVE",
"601 280 CURVE SMOOTH",
"532 280 OFFCURVE",
"507 333 OFFCURVE",
"520 412 CURVE SMOOTH",
"620 986 LINE",
"251 986 LINE",
"20 -297 LINE"
);
}
);
width = 1223;
}
);
note = mu;
unicode = 00B5;
},
{
glyphname = paragraph;
layers = (
{
layerId = "03879842-7D6D-4B41-A76D-F99E90B677D3";
paths = (
{
closed = 1;
nodes = (
"728 0 LINE",
"728 975 LINE",
"889 975 LINE",
"889 0 LINE",
"1130 0 LINE",
"1130 1170 LINE",
"489 1170 LINE SMOOTH",
"357 1169 OFFCURVE",
"245 1125 OFFCURVE",
"176 1057 CURVE SMOOTH",
"107 988 OFFCURVE",
"68 897 OFFCURVE",
"68 797 CURVE SMOOTH",
"68 544 OFFCURVE",
"218 382 OFFCURVE",
"489 382 CURVE",
"491 0 LINE"
);
}
);
width = 1294;
}
);
note = paragraph;
unicode = 00B6;
},
{
glyphname = periodcentered;
layers = (
{
layerId = "03879842-7D6D-4B41-A76D-F99E90B677D3";
paths = (
{
closed = 1;
nodes = (
"180 220 LINE",
"218 220 LINE",
"389 385 LINE",
"389 420 LINE",
"218 584 LINE",
"180 584 LINE",
"16 420 LINE",
"16 385 LINE"
);
}
);
width = 409;
}
);
note = periodcentered;
unicode = 00B7;
},
{
glyphname = cedilla;
layers = (
{
layerId = "03879842-7D6D-4B41-A76D-F99E90B677D3";
paths = (
{
closed = 1;
nodes = (
"298 -564 OFFCURVE",
"370 -547 OFFCURVE",
"433 -511 CURVE SMOOTH",
"496 -475 OFFCURVE",
"537 -409 OFFCURVE",
"537 -325 CURVE SMOOTH",
"537 -293 OFFCURVE",
"536 -265 OFFCURVE",
"526 -241 CURVE SMOOTH",
"521 -229 OFFCURVE",
"517 -219 OFFCURVE",
"514 -210 CURVE",
"511 -202 OFFCURVE",
"506 -193 OFFCURVE",
"497 -183 CURVE",
"488 -174 OFFCURVE",
"482 -167 OFFCURVE",
"479 -163 CURVE SMOOTH",
"476 -159 OFFCURVE",
"469 -153 OFFCURVE",
"456 -144 CURVE SMOOTH",
"443 -135 OFFCURVE",
"436 -130 OFFCURVE",
"435 -129 CURVE",
"431 -126 OFFCURVE",
"388 -101 OFFCURVE",
"387 -101 CURVE",
"423 24 LINE",
"246 24 LINE",
"141 -170 LINE",
"174 -170 LINE",
"221 -174 OFFCURVE",
"270 -203 OFFCURVE",
"270 -252 CURVE SMOOTH",
"270 -315 OFFCURVE",
"224 -345 OFFCURVE",
"157 -345 CURVE SMOOTH",
"135 -345 OFFCURVE",
"113 -342 OFFCURVE",
"91 -335 CURVE",
"50 -517 LINE",
"104 -548 OFFCURVE",
"161 -564 OFFCURVE",
"221 -564 CURVE SMOOTH"
);
}
);
width = 587;
}
);
note = cedilla;
unicode = 00B8;
},
{
glyphname = uni00B9;
layers = (
{
layerId = "03879842-7D6D-4B41-A76D-F99E90B677D3";
paths = (
{
closed = 1;
nodes = (
"160 980 LINE",
"428 980 LINE",
"428 1800 LINE",
"251 1800 LINE",
"235 1759 OFFCURVE",
"207 1728 OFFCURVE",
"180 1709 CURVE SMOOTH",
"152 1690 OFFCURVE",
"108 1677 OFFCURVE",
"75 1670 CURVE SMOOTH",
"58 1667 OFFCURVE",
"38 1664 OFFCURVE",
"15 1661 CURVE",
"15 1512 LINE",
"160 1526 LINE"
);
}
);
width = 524;
}
);
note = uni00B9;
unicode = 00B9;
},
{
glyphname = ordmasculine;
layers = (
{
layerId = "03879842-7D6D-4B41-A76D-F99E90B677D3";
paths = (
{
closed = 1;
nodes = (
"397 582 OFFCURVE",
"378 596 OFFCURVE",
"367 623 CURVE SMOOTH",
"355 650 OFFCURVE",
"349 693 OFFCURVE",
"349 752 CURVE SMOOTH",
"349 1045 LINE SMOOTH",
"349 1125 OFFCURVE",
"373 1165 OFFCURVE",
"422 1165 CURVE SMOOTH",
"449 1165 OFFCURVE",
"468 1151 OFFCURVE",
"479 1122 CURVE SMOOTH",
"490 1093 OFFCURVE",
"496 1049 OFFCURVE",
"496 990 CURVE SMOOTH",
"496 706 LINE SMOOTH",
"496 623 OFFCURVE",
"472 582 OFFCURVE",
"423 582 CURVE SMOOTH"
);
},
{
closed = 1;
nodes = (
"696 474 OFFCURVE",
"801 598 OFFCURVE",
"801 879 CURVE SMOOTH",
"801 1014 OFFCURVE",
"779 1105 OFFCURVE",
"723 1174 CURVE SMOOTH",
"666 1243 OFFCURVE",
"571 1276 OFFCURVE",
"428 1276 CURVE SMOOTH",
"281 1276 OFFCURVE",
"182 1241 OFFCURVE",
"125 1169 CURVE SMOOTH",
"68 1096 OFFCURVE",
"46 1003 OFFCURVE",
"46 867 CURVE SMOOTH",
"46 588 OFFCURVE",
"145 474 OFFCURVE",
"416 474 CURVE SMOOTH"
);
}
);
width = 847;
}
);
note = ordmasculine;
unicode = 00BA;
},
{
glyphname = guillemotright;
layers = (
{
layerId = "03879842-7D6D-4B41-A76D-F99E90B677D3";
paths = (
{
closed = 1;
nodes = (
"593 122 LINE",
"877 122 LINE",
"1208 492 LINE",
"877 854 LINE",
"593 854 LINE",
"817 492 LINE"
);
},
{
closed = 1;
nodes = (
"100 122 LINE",
"384 122 LINE",
"685 492 LINE",
"384 854 LINE",
"100 854 LINE",
"294 492 LINE"
);
}
);
width = 1288;
}
);
note = guillemotright;
unicode = 00BB;
},
{
glyphname = questiondown;
layers = (
{
layerId = "03879842-7D6D-4B41-A76D-F99E90B677D3";
paths = (
{
closed = 1;
nodes = (
"611 -199 OFFCURVE",
"725 -134 OFFCURVE",
"786 -5 CURVE",
"650 77 LINE",
"635 28 OFFCURVE",
"585 -5 OFFCURVE",
"537 -5 CURVE SMOOTH",
"473 -5 OFFCURVE",
"432 29 OFFCURVE",
"432 102 CURVE SMOOTH",
"432 125 OFFCURVE",
"450 178 OFFCURVE",
"486 260 CURVE SMOOTH",
"521 342 OFFCURVE",
"539 395 OFFCURVE",
"539 419 CURVE SMOOTH",
"539 465 OFFCURVE",
"532 501 OFFCURVE",
"517 528 CURVE",
"346 529 LINE",
"350 516 LINE SMOOTH",
"352 509 OFFCURVE",
"353 504 OFFCURVE",
"353 499 CURVE SMOOTH",
"353 464 OFFCURVE",
"312 410 OFFCURVE",
"260 355 CURVE SMOOTH",
"208 299 OFFCURVE",
"153 242 OFFCURVE",
"117 176 CURVE SMOOTH",
"99 143 OFFCURVE",
"90 112 OFFCURVE",
"90 83 CURVE SMOOTH",
"90 -105 OFFCURVE",
"208 -199 OFFCURVE",
"444 -199 CURVE SMOOTH"
);
},
{
closed = 1;
nodes = (
"411 645 LINE",
"449 645 LINE",
"613 809 LINE",
"613 844 LINE",
"449 1009 LINE",
"411 1009 LINE",
"240 844 LINE",
"240 809 LINE"
);
}
);
width = 848;
}
);
note = questiondown;
unicode = 00BF;
},
{
glyphname = AE;
layers = (
{
layerId = "03879842-7D6D-4B41-A76D-F99E90B677D3";
paths = (
{
closed = 1;
nodes = (
"608 0 LINE",
"1318 0 LINE",
"1318 250 LINE",
"940 240 LINE",
"940 506 LINE",
"1210 486 LINE",
"1210 720 LINE",
"940 720 LINE",
"940 946 LINE",
"1283 936 LINE",
"1303 1172 LINE",
"428 1172 LINE",
"452 1091 LINE",
"-19 0 LINE",
"275 0 LINE",
"350 187 LINE",
"608 187 LINE"
);
},
{
closed = 1;
nodes = (
"608 828 LINE",
"608 391 LINE",
"432 391 LINE"
);
}
);
width = 1342;
}
);
note = AE;
unicode = 00C6;
},
{
glyphname = Eth;
layers = (
{
layerId = "03879842-7D6D-4B41-A76D-F99E90B677D3";
paths = (
{
closed = 1;
nodes = (
"399 164 LINE",
"399 495 LINE",
"540 495 LINE",
"540 719 LINE",
"399 719 LINE",
"399 999 LINE",
"474 999 LINE SMOOTH",
"521 999 OFFCURVE",
"557 970 OFFCURVE",
"582 913 CURVE SMOOTH",
"607 856 OFFCURVE",
"620 774 OFFCURVE",
"620 669 CURVE SMOOTH",
"620 568 LINE SMOOTH",
"620 424 OFFCURVE",
"607 321 OFFCURVE",
"580 258 CURVE SMOOTH",
"553 195 OFFCURVE",
"514 164 OFFCURVE",
"463 164 CURVE SMOOTH"
);
},
{
closed = 1;
nodes = (
"641 -7 OFFCURVE",
"759 49 OFFCURVE",
"828 130 CURVE SMOOTH",
"897 211 OFFCURVE",
"944 332 OFFCURVE",
"961 444 CURVE SMOOTH",
"969 500 OFFCURVE",
"973 559 OFFCURVE",
"973 621 CURVE SMOOTH",
"973 986 OFFCURVE",
"837 1181 OFFCURVE",
"497 1181 CURVE SMOOTH",
"467 1181 OFFCURVE",
"426 1180 OFFCURVE",
"373 1177 CURVE SMOOTH",
"320 1174 OFFCURVE",
"272 1173 OFFCURVE",
"227 1172 CURVE SMOOTH",
"68 1172 LINE",
"68 719 LINE",
"-30 719 LINE",
"-30 495 LINE",
"68 495 LINE",
"68 0 LINE",
"227 0 LINE SMOOTH",
"280 0 OFFCURVE",
"332 -1 OFFCURVE",
"383 -3 CURVE SMOOTH",
"433 -6 OFFCURVE",
"470 -7 OFFCURVE",
"494 -7 CURVE SMOOTH"
);
}
);
width = 999;
}
);
note = Eth;
unicode = 00D0;
},
{
glyphname = multiply;
layers = (
{
layerId = "03879842-7D6D-4B41-A76D-F99E90B677D3";
paths = (
{
closed = 1;
nodes = (
"831 89 LINE",
"985 243 LINE",
"720 508 LINE",
"985 772 LINE",
"831 926 LINE",
"566 661 LINE",
"302 926 LINE",
"148 772 LINE",
"413 508 LINE",
"148 243 LINE",
"302 89 LINE",
"566 354 LINE"
);
}
);
width = 1125;
}
);
note = multiply;
unicode = 00D7;
},
{
glyphname = Oslash;
layers = (
{
layerId = "03879842-7D6D-4B41-A76D-F99E90B677D3";
paths = (
{
closed = 1;
nodes = (
"478 157 OFFCURVE",
"449 179 OFFCURVE",
"432 222 CURVE SMOOTH",
"415 265 OFFCURVE",
"406 342 OFFCURVE",
"406 453 CURVE SMOOTH",
"406 704 LINE SMOOTH",
"406 856 OFFCURVE",
"421 951 OFFCURVE",
"451 990 CURVE SMOOTH",
"468 1011 OFFCURVE",
"491 1022 OFFCURVE",
"521 1022 CURVE SMOOTH",
"564 1022 OFFCURVE",
"594 999 OFFCURVE",
"613 952 CURVE SMOOTH",
"632 905 OFFCURVE",
"641 834 OFFCURVE",
"641 739 CURVE SMOOTH",
"641 498 LINE SMOOTH",
"641 338 OFFCURVE",
"629 238 OFFCURVE",
"604 197 CURVE SMOOTH",
"587 170 OFFCURVE",
"560 157 OFFCURVE",
"521 157 CURVE SMOOTH"
);
},
{
closed = 1;
nodes = (
"468 -123 LINE",
"528 -21 LINE",
"681 -17 OFFCURVE",
"794 24 OFFCURVE",
"866 89 CURVE SMOOTH",
"938 154 OFFCURVE",
"980 262 OFFCURVE",
"997 379 CURVE SMOOTH",
"1005 438 OFFCURVE",
"1009 506 OFFCURVE",
"1009 584 CURVE SMOOTH",
"1009 673 OFFCURVE",
"1005 743 OFFCURVE",
"994 818 CURVE SMOOTH",
"983 893 OFFCURVE",
"963 951 OFFCURVE",
"934 1006 CURVE SMOOTH",
"905 1061 OFFCURVE",
"862 1104 OFFCURVE",
"807 1135 CURVE",
"885 1276 LINE",
"621 1276 LINE",
"571 1191 LINE",
"562 1191 OFFCURVE",
"554 1191 OFFCURVE",
"545 1191 CURVE SMOOTH",
"148 1191 OFFCURVE",
"41 985 OFFCURVE",
"38 598 CURVE SMOOTH",
"38 593 OFFCURVE",
"38 587 OFFCURVE",
"38 582 CURVE SMOOTH",
"38 463 OFFCURVE",
"44 378 OFFCURVE",
"65 287 CURVE SMOOTH",
"86 196 OFFCURVE",
"120 134 OFFCURVE",
"178 80 CURVE SMOOTH",
"207 53 OFFCURVE",
"241 31 OFFCURVE",
"280 15 CURVE",
"204 -123 LINE"
);
}
);
width = 1047;
}
);
note = Oslash;
unicode = 00D8;
},
{
glyphname = Thorn;
layers = (
{
layerId = "03879842-7D6D-4B41-A76D-F99E90B677D3";
paths = (
{
closed = 1;
nodes = (
"398 0 LINE",
"398 118 LINE",
"401 118 OFFCURVE",
"416 117 OFFCURVE",
"422 117 CURVE",
"425 116 OFFCURVE",
"429 116 OFFCURVE",
"435 116 CURVE",
"441 115 OFFCURVE",
"446 115 OFFCURVE",
"450 115 CURVE",
"458 114 OFFCURVE",
"472 113 OFFCURVE",
"483 113 CURVE SMOOTH",
"488 113 OFFCURVE",
"494 113 OFFCURVE",
"500 113 CURVE",
"506 112 OFFCURVE",
"512 112 OFFCURVE",
"518 112 CURVE SMOOTH",
"524 112 OFFCURVE",
"530 112 OFFCURVE",
"536 112 CURVE SMOOTH",
"640 112 OFFCURVE",
"736 160 OFFCURVE",
"809 247 CURVE SMOOTH",
"882 334 OFFCURVE",
"929 474 OFFCURVE",
"929 639 CURVE SMOOTH",
"929 914 OFFCURVE",
"794 1051 OFFCURVE",
"535 1051 CURVE SMOOTH",
"496 1051 OFFCURVE",
"445 1050 OFFCURVE",
"384 1047 CURVE",
"384 1171 LINE",
"67 1171 LINE",
"67 0 LINE"
);
},
{
closed = 1;
nodes = (
"601 535 LINE SMOOTH",
"601 402 OFFCURVE",
"540 329 OFFCURVE",
"435 329 CURVE SMOOTH",
"398 329 LINE",
"398 849 LINE",
"446 849 LINE SMOOTH",
"546 849 OFFCURVE",
"601 782 OFFCURVE",
"601 683 CURVE SMOOTH"
);
}
);
width = 938;
}
);
note = Thorn;
unicode = 00DE;
},
{
glyphname = germandbls;
layers = (
{
layerId = "03879842-7D6D-4B41-A76D-F99E90B677D3";
paths = (
{
closed = 1;
nodes = (
"403 0 LINE",
"403 583 LINE SMOOTH",
"403 844 OFFCURVE",
"424 1013 OFFCURVE",
"465 1088 CURVE SMOOTH",
"509 1164 OFFCURVE",
"590 1160 OFFCURVE",
"623 1106 CURVE SMOOTH",
"639 1079 OFFCURVE",
"647 1049 OFFCURVE",
"647 1016 CURVE SMOOTH",
"647 954 LINE SMOOTH",
"647 891 OFFCURVE",
"639 845 OFFCURVE",
"623 818 CURVE SMOOTH",
"606 790 OFFCURVE",
"584 776 OFFCURVE",
"557 776 CURVE SMOOTH",
"526 776 LINE",
"526 593 LINE",
"568 593 LINE SMOOTH",
"627 593 OFFCURVE",
"674 539 OFFCURVE",
"674 475 CURVE SMOOTH",
"674 386 LINE SMOOTH",
"674 317 OFFCURVE",
"665 268 OFFCURVE",
"644 228 CURVE SMOOTH",
"623 188 OFFCURVE",
"583 168 OFFCURVE",
"526 168 CURVE",
"526 0 LINE",
"685 0 OFFCURVE",
"805 35 OFFCURVE",
"873 84 CURVE SMOOTH",
"941 133 OFFCURVE",
"983 213 OFFCURVE",
"996 285 CURVE SMOOTH",
"1003 320 OFFCURVE",
"1006 360 OFFCURVE",
"1006 405 CURVE SMOOTH",
"1006 564 OFFCURVE",
"889 723 OFFCURVE",
"760 723 CURVE",
"816 752 OFFCURVE",
"855 781 OFFCURVE",
"898 827 CURVE SMOOTH",
"941 873 OFFCURVE",
"965 937 OFFCURVE",
"965 1013 CURVE SMOOTH",
"965 1201 OFFCURVE",
"875 1304 OFFCURVE",
"624 1304 CURVE SMOOTH",
"492 1304 OFFCURVE",
"391 1286 OFFCURVE",
"300 1238 CURVE SMOOTH",
"209 1190 OFFCURVE",
"150 1116 OFFCURVE",
"116 998 CURVE SMOOTH",
"99 939 OFFCURVE",
"90 870 OFFCURVE",
"89 792 CURVE SMOOTH",
"88 168 LINE",
"18 0 LINE"
);
}
);
width = 1066;
}
);
note = germandbls;
unicode = 00DF;
},
{
glyphname = ae;
layers = (
{
layerId = "03879842-7D6D-4B41-A76D-F99E90B677D3";
paths = (
{
closed = 1;
nodes = (
"374 155 OFFCURVE",
"346 197 OFFCURVE",
"346 280 CURVE SMOOTH",
"346 373 OFFCURVE",
"398 417 OFFCURVE",
"479 417 CURVE",
"479 177 LINE",
"478 177 OFFCURVE",
"476 175 OFFCURVE",
"473 172 CURVE SMOOTH",
"465 164 OFFCURVE",
"448 155 OFFCURVE",
"431 155 CURVE SMOOTH"
);
},
{
closed = 1;
nodes = (
"828 517 LINE",
"828 527 OFFCURVE",
"828 541 OFFCURVE",
"828 560 CURVE",
"827 579 OFFCURVE",
"827 592 OFFCURVE",
"827 601 CURVE SMOOTH",
"827 701 OFFCURVE",
"844 750 OFFCURVE",
"920 750 CURVE SMOOTH",
"943 750 OFFCURVE",
"959 732 OFFCURVE",
"968 697 CURVE SMOOTH",
"977 662 OFFCURVE",
"981 602 OFFCURVE",
"981 517 CURVE"
);
},
{
closed = 1;
nodes = (
"981 -21 OFFCURVE",
"1069 -6 OFFCURVE",
"1165 48 CURVE SMOOTH",
"1212 75 OFFCURVE",
"1248 108 OFFCURVE",
"1273 148 CURVE",
"1214 249 LINE",
"1177 214 OFFCURVE",
"1117 188 OFFCURVE",
"1063 176 CURVE SMOOTH",
"1036 170 OFFCURVE",
"1010 167 OFFCURVE",
"987 167 CURVE SMOOTH",
"940 167 OFFCURVE",
"909 173 OFFCURVE",
"877 197 CURVE SMOOTH",
"844 221 OFFCURVE",
"827 273 OFFCURVE",
"828 350 CURVE SMOOTH",
"828 369 LINE",
"1285 369 LINE",
"1285 480 LINE SMOOTH",
"1285 753 OFFCURVE",
"1181 870 OFFCURVE",
"918 870 CURVE SMOOTH",
"823 870 OFFCURVE",
"744 852 OFFCURVE",
"679 816 CURVE",
"628 852 OFFCURVE",
"549 870 OFFCURVE",
"443 870 CURVE SMOOTH",
"292 870 OFFCURVE",
"135 818 OFFCURVE",
"44 759 CURVE",
"108 623 LINE",
"159 650 OFFCURVE",
"259 672 OFFCURVE",
"342 672 CURVE SMOOTH",
"438 672 OFFCURVE",
"479 642 OFFCURVE",
"479 561 CURVE SMOOTH",
"479 543 LINE",
"434 543 OFFCURVE",
"387 540 OFFCURVE",
"324 528 CURVE SMOOTH",
"261 516 OFFCURVE",
"206 500 OFFCURVE",
"150 469 CURVE SMOOTH",
"94 437 OFFCURVE",
"54 400 OFFCURVE",
"29 342 CURVE SMOOTH",
"16 313 OFFCURVE",
"10 281 OFFCURVE",
"10 246 CURVE SMOOTH",
"10 68 OFFCURVE",
"100 -21 OFFCURVE",
"280 -21 CURVE SMOOTH",
"400 -21 OFFCURVE",
"508 67 OFFCURVE",
"551 143 CURVE",
"620 34 OFFCURVE",
"736 -21 OFFCURVE",
"901 -21 CURVE SMOOTH"
);
}
);
width = 1315;
}
);
note = ae;
unicode = 00E6;
},
{
glyphname = eth;
layers = (
{
layerId = "03879842-7D6D-4B41-A76D-F99E90B677D3";
paths = (
{
closed = 1;
nodes = (
"486 178 OFFCURVE",
"429 273 OFFCURVE",
"429 374 CURVE SMOOTH",
"429 514 LINE SMOOTH",
"430 650 OFFCURVE",
"475 718 OFFCURVE",
"565 719 CURVE SMOOTH",
"584 719 OFFCURVE",
"605 716 OFFCURVE",
"628 710 CURVE",
"631 718 LINE",
"632 612 LINE",
"630 424 LINE SMOOTH",
"630 340 OFFCURVE",
"622 278 OFFCURVE",
"605 238 CURVE SMOOTH",
"588 198 OFFCURVE",
"567 178 OFFCURVE",
"542 178 CURVE SMOOTH"
);
},
{
closed = 1;
nodes = (
"745 -20 OFFCURVE",
"856 43 OFFCURVE",
"921 151 CURVE SMOOTH",
"986 259 OFFCURVE",
"1019 400 OFFCURVE",
"1019 571 CURVE SMOOTH",
"1019 826 OFFCURVE",
"910 1050 OFFCURVE",
"737 1193 CURVE",
"897 1304 LINE",
"831 1394 LINE",
"644 1257 LINE",
"545 1315 OFFCURVE",
"440 1344 OFFCURVE",
"330 1344 CURVE SMOOTH",
"305 1344 OFFCURVE",
"283 1343 OFFCURVE",
"262 1340 CURVE",
"249 1207 LINE",
"258 1204 OFFCURVE",
"275 1200 OFFCURVE",
"298 1195 CURVE SMOOTH",
"345 1184 OFFCURVE",
"368 1180 OFFCURVE",
"409 1165 CURVE SMOOTH",
"430 1157 OFFCURVE",
"448 1148 OFFCURVE",
"465 1139 CURVE",
"308 1034 LINE",
"374 946 LINE",
"547 1070 LINE",
"566 1047 OFFCURVE",
"581 1022 OFFCURVE",
"594 989 CURVE SMOOTH",
"607 956 OFFCURVE",
"616 920 OFFCURVE",
"623 876 CURVE SMOOTH",
"626 853 OFFCURVE",
"628 830 OFFCURVE",
"629 805 CURVE",
"568 840 OFFCURVE",
"497 858 OFFCURVE",
"416 858 CURVE SMOOTH",
"271 858 OFFCURVE",
"165 771 OFFCURVE",
"117 640 CURVE SMOOTH",
"93 574 OFFCURVE",
"81 499 OFFCURVE",
"81 415 CURVE SMOOTH",
"81 155 OFFCURVE",
"277 -20 OFFCURVE",
"602 -20 CURVE SMOOTH"
);
}
);
width = 1106;
}
);
note = eth;
unicode = 00F0;
},
{
glyphname = divide;
layers = (
{
layerId = "03879842-7D6D-4B41-A76D-F99E90B677D3";
paths = (
{
closed = 1;
nodes = (
"551 -19 LINE",
"589 -19 LINE",
"760 146 LINE",
"760 181 LINE",
"589 345 LINE",
"551 345 LINE",
"387 181 LINE",
"387 146 LINE"
);
},
{
closed = 1;
nodes = (
"110 414 LINE",
"1038 414 LINE",
"1038 615 LINE",
"110 615 LINE"
);
},
{
closed = 1;
nodes = (
"551 677 LINE",
"589 677 LINE",
"760 842 LINE",
"760 877 LINE",
"589 1041 LINE",
"551 1041 LINE",
"387 877 LINE",
"387 842 LINE"
);
}
);
width = 1148;
}
);
note = divide;
unicode = 00F7;
},
{
glyphname = oslash;
layers = (
{
layerId = "03879842-7D6D-4B41-A76D-F99E90B677D3";
paths = (
{
closed = 1;
nodes = (
"419 99 OFFCURVE",
"388 162 OFFCURVE",
"388 288 CURVE SMOOTH",
"388 613 LINE SMOOTH",
"388 686 OFFCURVE",
"409 729 OFFCURVE",
"452 743 CURVE SMOOTH",
"461 746 OFFCURVE",
"470 747 OFFCURVE",
"479 747 CURVE SMOOTH",
"540 747 OFFCURVE",
"571 682 OFFCURVE",
"571 552 CURVE SMOOTH",
"571 236 LINE SMOOTH",
"571 151 OFFCURVE",
"539 99 OFFCURVE",
"480 99 CURVE SMOOTH"
);
},
{
closed = 1;
nodes = (
"428 -206 LINE",
"484 -21 LINE",
"792 -17 OFFCURVE",
"930 126 OFFCURVE",
"930 429 CURVE SMOOTH",
"930 619 OFFCURVE",
"873 747 OFFCURVE",
"758 812 CURVE SMOOTH",
"743 821 OFFCURVE",
"727 828 OFFCURVE",
"711 834 CURVE",
"775 1046 LINE",
"511 1046 LINE",
"457 870 LINE",
"156 861 OFFCURVE",
"31 707 OFFCURVE",
"31 415 CURVE SMOOTH",
"31 230 OFFCURVE",
"85 105 OFFCURVE",
"193 40 CURVE",
"206 33 OFFCURVE",
"219 26 OFFCURVE",
"232 20 CURVE",
"163 -206 LINE"
);
}
);
width = 961;
}
);
note = oslash;
unicode = 00F8;
},
{
glyphname = thorn;
layers = (
{
layerId = "03879842-7D6D-4B41-A76D-F99E90B677D3";
paths = (
{
closed = 1;
nodes = (
"701 0 OFFCURVE",
"788 49 OFFCURVE",
"843 130 CURVE SMOOTH",
"898 211 OFFCURVE",
"926 319 OFFCURVE",
"926 444 CURVE SMOOTH",
"926 711 OFFCURVE",
"826 870 OFFCURVE",
"606 870 CURVE SMOOTH",
"554 870 OFFCURVE",
"507 857 OFFCURVE",
"471 837 CURVE SMOOTH",
"435 817 OFFCURVE",
"411 796 OFFCURVE",
"390 772 CURVE",
"390 1310 LINE",
"325 1310 LINE",
"4 1260 LINE",
"4 1167 LINE",
"64 1131 LINE",
"64 -304 LINE",
"390 -304 LINE",
"390 47 LINE",
"449 16 OFFCURVE",
"515 0 OFFCURVE",
"590 0 CURVE SMOOTH"
);
},
{
closed = 1;
nodes = (
"427 139 OFFCURVE",
"410 141 OFFCURVE",
"390 146 CURVE",
"390 666 LINE",
"413 679 OFFCURVE",
"437 686 OFFCURVE",
"461 686 CURVE SMOOTH",
"529 686 OFFCURVE",
"577 627 OFFCURVE",
"577 514 CURVE SMOOTH",
"577 344 LINE SMOOTH",
"577 207 OFFCURVE",
"532 139 OFFCURVE",
"443 139 CURVE SMOOTH"
);
}
);
width = 951;
}
);
note = thorn;
unicode = 00FE;
},
{
glyphname = Hbar;
layers = (
{
layerId = "03879842-7D6D-4B41-A76D-F99E90B677D3";
paths = (
{
closed = 1;
nodes = (
"399 324 LINE",
"656 324 LINE",
"656 0 LINE",
"987 0 LINE",
"987 683 LINE",
"1086 683 LINE",
"1086 824 LINE",
"987 824 LINE",
"987 1172 LINE",
"656 1172 LINE",
"656 824 LINE",
"399 824 LINE",
"399 1172 LINE",
"68 1172 LINE",
"68 824 LINE",
"-28 824 LINE",
"-28 683 LINE",
"68 683 LINE",
"68 0 LINE",
"399 0 LINE"
);
},
{
closed = 1;
nodes = (
"399 534 LINE",
"399 683 LINE",
"656 683 LINE",
"656 534 LINE"
);
}
);
width = 1053;
}
);
note = Hbar;
unicode = 0126;
},
{
glyphname = dotlessi;
layers = (
{
layerId = "03879842-7D6D-4B41-A76D-F99E90B677D3";
paths = (
{
closed = 1;
nodes = (
"78 0 LINE",
"400 0 LINE",
"400 850 LINE",
"233 850 LINE",
"18 791 LINE",
"18 684 LINE",
"78 647 LINE"
);
}
);
width = 461;
}
);
note = dotlessi;
unicode = 0131;
},
{
glyphname = kgreenlandic;
layers = (
{
layerId = "03879842-7D6D-4B41-A76D-F99E90B677D3";
paths = (
{
closed = 1;
nodes = (
"565 0 LINE",
"955 0 LINE",
"687 457 LINE",
"949 850 LINE",
"574 850 LINE",
"410 409 LINE"
);
},
{
closed = 1;
nodes = (
"75 0 LINE",
"384 0 LINE",
"384 850 LINE",
"229 850 LINE",
"-1 797 LINE",
"-1 690 LINE",
"75 650 LINE"
);
}
);
width = 943;
}
);
note = kgreenlandic;
unicode = 0138;
},
{
glyphname = Eng;
layers = (
{
layerId = "03879842-7D6D-4B41-A76D-F99E90B677D3";
paths = (
{
closed = 1;
nodes = (
"792 -452 OFFCURVE",
"873 -421 OFFCURVE",
"921 -375 CURVE SMOOTH",
"969 -329 OFFCURVE",
"999 -254 OFFCURVE",
"1009 -181 CURVE SMOOTH",
"1014 -145 OFFCURVE",
"1016 -104 OFFCURVE",
"1016 -57 CURVE SMOOTH",
"1016 1172 LINE",
"697 1172 LINE",
"697 858 LINE",
"746 413 LINE",
"570 792 LINE",
"386 1172 LINE",
"18 1172 LINE",
"67 1078 LINE",
"67 0 LINE",
"385 0 LINE",
"385 369 LINE",
"326 753 LINE",
"473 463 LINE",
"711 0 LINE",
"761 0 LINE",
"761 -16 LINE SMOOTH",
"761 -69 OFFCURVE",
"741 -114 OFFCURVE",
"714 -140 CURVE SMOOTH",
"687 -166 OFFCURVE",
"650 -184 OFFCURVE",
"619 -191 CURVE",
"603 -194 OFFCURVE",
"588 -196 OFFCURVE",
"574 -196 CURVE SMOOTH",
"531 -196 OFFCURVE",
"513 -190 OFFCURVE",
"469 -166 CURVE",
"472 -393 LINE",
"500 -420 OFFCURVE",
"587 -452 OFFCURVE",
"684 -452 CURVE SMOOTH"
);
}
);
width = 1083;
}
);
note = Eng;
unicode = 014A;
},
{
glyphname = eng;
layers = (
{
layerId = "03879842-7D6D-4B41-A76D-F99E90B677D3";
paths = (
{
closed = 1;
nodes = (
"761 -344 OFFCURVE",
"867 -220 OFFCURVE",
"892 3 CURVE",
"901 0 LINE",
"901 507 LINE SMOOTH",
"908 770 OFFCURVE",
"843 870 OFFCURVE",
"652 870 CURVE SMOOTH",
"600 870 OFFCURVE",
"543 845 OFFCURVE",
"507 820 CURVE SMOOTH",
"470 795 OFFCURVE",
"430 755 OFFCURVE",
"418 740 CURVE",
"411 732 OFFCURVE",
"406 726 OFFCURVE",
"403 721 CURVE",
"403 850 LINE",
"233 850 LINE",
"18 791 LINE",
"18 684 LINE",
"78 647 LINE",
"78 0 LINE",
"401 0 LINE",
"401 583 LINE",
"404 586 OFFCURVE",
"413 593 OFFCURVE",
"417 596 CURVE",
"418 597 OFFCURVE",
"421 600 OFFCURVE",
"425 603 CURVE",
"428 606 OFFCURVE",
"431 608 OFFCURVE",
"433 609 CURVE SMOOTH",
"435 610 OFFCURVE",
"438 612 OFFCURVE",
"441 615 CURVE",
"444 617 OFFCURVE",
"447 619 OFFCURVE",
"450 620 CURVE SMOOTH",
"453 621 OFFCURVE",
"456 622 OFFCURVE",
"460 624 CURVE",
"467 627 OFFCURVE",
"472 628 OFFCURVE",
"480 629 CURVE",
"483 630 OFFCURVE",
"487 630 OFFCURVE",
"491 630 CURVE SMOOTH",
"541 630 OFFCURVE",
"568 602 OFFCURVE",
"571 547 CURVE",
"570 127 LINE",
"570 47 LINE SMOOTH",
"570 -90 OFFCURVE",
"546 -158 OFFCURVE",
"497 -158 CURVE SMOOTH",
"452 -158 OFFCURVE",
"413 -139 OFFCURVE",
"380 -100 CURVE",
"329 -208 LINE",
"389 -299 OFFCURVE",
"469 -344 OFFCURVE",
"569 -344 CURVE SMOOTH"
);
}
);
width = 949;
}
);
note = eng;
unicode = 014B;
},
{
glyphname = OE;
layers = (
{
layerId = "03879842-7D6D-4B41-A76D-F99E90B677D3";
paths = (
{
closed = 1;
nodes = (
"865 0 LINE",
"1574 0 LINE",
"1574 250 LINE",
"1196 240 LINE",
"1196 506 LINE",
"1466 486 LINE",
"1466 720 LINE",
"1196 720 LINE",
"1196 946 LINE",
"1539 936 LINE",
"1559 1172 LINE",
"865 1172 LINE",
"865 1093 LINE",
"792 1158 OFFCURVE",
"686 1191 OFFCURVE",
"545 1191 CURVE SMOOTH",
"382 1191 OFFCURVE",
"263 1151 OFFCURVE",
"188 1086 CURVE SMOOTH",
"112 1021 OFFCURVE",
"67 910 OFFCURVE",
"51 791 CURVE SMOOTH",
"42 732 OFFCURVE",
"38 662 OFFCURVE",
"38 582 CURVE SMOOTH",
"38 474 OFFCURVE",
"44 394 OFFCURVE",
"61 308 CURVE SMOOTH",
"78 222 OFFCURVE",
"105 161 OFFCURVE",
"153 105 CURVE SMOOTH",
"200 49 OFFCURVE",
"262 14 OFFCURVE",
"351 -6 CURVE SMOOTH",
"395 -16 OFFCURVE",
"445 -21 OFFCURVE",
"500 -21 CURVE SMOOTH",
"664 -21 OFFCURVE",
"786 16 OFFCURVE",
"865 89 CURVE"
);
},
{
closed = 1;
nodes = (
"406 704 LINE SMOOTH",
"406 825 OFFCURVE",
"415 908 OFFCURVE",
"432 954 CURVE SMOOTH",
"449 999 OFFCURVE",
"478 1022 OFFCURVE",
"521 1022 CURVE SMOOTH",
"564 1022 OFFCURVE",
"594 999 OFFCURVE",
"613 952 CURVE SMOOTH",
"632 905 OFFCURVE",
"641 834 OFFCURVE",
"641 739 CURVE SMOOTH",
"641 498 LINE SMOOTH",
"641 400 OFFCURVE",
"637 327 OFFCURVE",
"629 278 CURVE SMOOTH",
"612 180 OFFCURVE",
"584 157 OFFCURVE",
"521 157 CURVE SMOOTH",
"478 157 OFFCURVE",
"449 179 OFFCURVE",
"432 222 CURVE SMOOTH",
"415 265 OFFCURVE",
"406 342 OFFCURVE",
"406 453 CURVE SMOOTH"
);
}
);
width = 1598;
}
);
note = OE;
unicode = 0152;
},
{
glyphname = oe;
layers = (
{
layerId = "03879842-7D6D-4B41-A76D-F99E90B677D3";
paths = (
{
closed = 1;
nodes = (
"419 99 OFFCURVE",
"388 162 OFFCURVE",
"388 288 CURVE SMOOTH",
"388 613 LINE SMOOTH",
"388 698 OFFCURVE",
"422 747 OFFCURVE",
"479 747 CURVE SMOOTH",
"540 747 OFFCURVE",
"571 682 OFFCURVE",
"571 552 CURVE SMOOTH",
"571 236 LINE SMOOTH",
"571 151 OFFCURVE",
"539 99 OFFCURVE",
"480 99 CURVE SMOOTH"
);
},
{
closed = 1;
nodes = (
"934 517 LINE",
"934 527 OFFCURVE",
"934 541 OFFCURVE",
"934 560 CURVE",
"933 579 OFFCURVE",
"933 592 OFFCURVE",
"933 601 CURVE SMOOTH",
"933 701 OFFCURVE",
"950 750 OFFCURVE",
"1026 750 CURVE SMOOTH",
"1049 750 OFFCURVE",
"1065 732 OFFCURVE",
"1074 697 CURVE SMOOTH",
"1083 662 OFFCURVE",
"1087 602 OFFCURVE",
"1087 517 CURVE"
);
},
{
closed = 1;
nodes = (
"1087 -21 OFFCURVE",
"1175 -6 OFFCURVE",
"1271 48 CURVE SMOOTH",
"1318 75 OFFCURVE",
"1354 108 OFFCURVE",
"1379 148 CURVE",
"1320 249 LINE",
"1265 198 OFFCURVE",
"1166 167 OFFCURVE",
"1093 167 CURVE SMOOTH",
"1046 167 OFFCURVE",
"1015 173 OFFCURVE",
"983 197 CURVE SMOOTH",
"950 221 OFFCURVE",
"933 273 OFFCURVE",
"934 350 CURVE SMOOTH",
"934 369 LINE",
"1391 369 LINE",
"1391 480 LINE SMOOTH",
"1391 617 OFFCURVE",
"1366 711 OFFCURVE",
"1307 776 CURVE SMOOTH",
"1248 841 OFFCURVE",
"1157 870 OFFCURVE",
"1024 870 CURVE SMOOTH",
"921 870 OFFCURVE",
"836 849 OFFCURVE",
"767 806 CURVE",
"698 849 OFFCURVE",
"604 870 OFFCURVE",
"486 870 CURVE SMOOTH",
"165 870 OFFCURVE",
"31 716 OFFCURVE",
"31 415 CURVE SMOOTH",
"31 111 OFFCURVE",
"167 -21 OFFCURVE",
"472 -21 CURVE SMOOTH",
"590 -21 OFFCURVE",
"685 0 OFFCURVE",
"758 41 CURVE",
"824 0 OFFCURVE",
"907 -21 OFFCURVE",
"1007 -21 CURVE SMOOTH"
);
}
);
width = 1421;
}
);
note = oe;
unicode = 0153;
},
{
glyphname = uni018F;
layers = (
{
layerId = "03879842-7D6D-4B41-A76D-F99E90B677D3";
paths = (
{
closed = 1;
nodes = (
"581 478 LINE",
"581 465 OFFCURVE",
"581 447 OFFCURVE",
"582 424 CURVE",
"582 401 OFFCURVE",
"582 382 OFFCURVE",
"582 369 CURVE SMOOTH",
"582 341 OFFCURVE",
"582 294 OFFCURVE",
"578 270 CURVE SMOOTH",
"574 245 OFFCURVE",
"569 209 OFFCURVE",
"558 192 CURVE",
"546 175 OFFCURVE",
"532 155 OFFCURVE",
"510 148 CURVE",
"499 144 OFFCURVE",
"486 142 OFFCURVE",
"472 142 CURVE SMOOTH",
"445 142 OFFCURVE",
"426 169 OFFCURVE",
"415 223 CURVE SMOOTH",
"404 276 OFFCURVE",
"399 361 OFFCURVE",
"399 478 CURVE"
);
},
{
closed = 1;
nodes = (
"799 -21 OFFCURVE",
"989 189 OFFCURVE",
"989 596 CURVE SMOOTH",
"989 731 OFFCURVE",
"969 844 OFFCURVE",
"921 945 CURVE SMOOTH",
"872 1046 OFFCURVE",
"799 1117 OFFCURVE",
"687 1158 CURVE SMOOTH",
"630 1179 OFFCURVE",
"566 1189 OFFCURVE",
"494 1189 CURVE SMOOTH",
"426 1189 OFFCURVE",
"348 1174 OFFCURVE",
"263 1141 CURVE SMOOTH",
"178 1108 OFFCURVE",
"96 1043 OFFCURVE",
"52 959 CURVE",
"122 822 LINE",
"187 891 OFFCURVE",
"304 934 OFFCURVE",
"392 934 CURVE SMOOTH",
"436 934 OFFCURVE",
"466 930 OFFCURVE",
"502 910 CURVE SMOOTH",
"537 890 OFFCURVE",
"558 859 OFFCURVE",
"572 796 CURVE SMOOTH",
"579 765 OFFCURVE",
"582 728 OFFCURVE",
"581 685 CURVE SMOOTH",
"581 659 LINE",
"38 659 LINE",
"38 509 LINE SMOOTH",
"38 138 OFFCURVE",
"162 -21 OFFCURVE",
"474 -21 CURVE SMOOTH"
);
}
);
width = 1027;
}
);
note = uni018F;
unicode = 018F;
},
{
glyphname = uni0237;
layers = (
{
layerId = "03879842-7D6D-4B41-A76D-F99E90B677D3";
paths = (
{
closed = 1;
nodes = (
"341 -344 OFFCURVE",
"448 -176 OFFCURVE",
"448 117 CURVE SMOOTH",
"448 850 LINE",
"291 850 LINE",
"61 797 LINE",
"61 690 LINE",
"134 650 LINE",
"134 47 LINE SMOOTH",
"134 -17 OFFCURVE",
"126 -67 OFFCURVE",
"110 -103 CURVE SMOOTH",
"94 -140 OFFCURVE",
"73 -158 OFFCURVE",
"46 -158 CURVE SMOOTH",
"1 -158 OFFCURVE",
"-38 -139 OFFCURVE",
"-71 -100 CURVE",
"-122 -208 LINE",
"-62 -299 OFFCURVE",
"18 -344 OFFCURVE",
"118 -344 CURVE SMOOTH"
);
}
);
width = 541;
}
);
note = uni0237;
unicode = 0237;
},
{
glyphname = uni0259;
layers = (
{
layerId = "03879842-7D6D-4B41-A76D-F99E90B677D3";
paths = (
{
closed = 1;
nodes = (
"488 332 LINE",
"488 322 OFFCURVE",
"488 307 OFFCURVE",
"489 288 CURVE",
"489 268 OFFCURVE",
"489 253 OFFCURVE",
"489 244 CURVE SMOOTH",
"489 224 OFFCURVE",
"487 185 OFFCURVE",
"483 169 CURVE SMOOTH",
"479 153 OFFCURVE",
"469 128 OFFCURVE",
"456 118 CURVE SMOOTH",
"443 108 OFFCURVE",
"423 99 OFFCURVE",
"396 99 CURVE SMOOTH",
"373 99 OFFCURVE",
"357 117 OFFCURVE",
"348 152 CURVE SMOOTH",
"339 187 OFFCURVE",
"335 247 OFFCURVE",
"335 332 CURVE"
);
},
{
closed = 1;
nodes = (
"671 -21 OFFCURVE",
"831 134 OFFCURVE",
"831 433 CURVE SMOOTH",
"831 558 OFFCURVE",
"803 660 OFFCURVE",
"740 741 CURVE SMOOTH",
"676 822 OFFCURVE",
"564 870 OFFCURVE",
"415 870 CURVE SMOOTH",
"335 870 OFFCURVE",
"247 856 OFFCURVE",
"152 802 CURVE SMOOTH",
"104 775 OFFCURVE",
"68 741 OFFCURVE",
"43 701 CURVE",
"102 600 LINE",
"157 651 OFFCURVE",
"256 682 OFFCURVE",
"329 682 CURVE SMOOTH",
"376 682 OFFCURVE",
"407 676 OFFCURVE",
"440 652 CURVE SMOOTH",
"472 628 OFFCURVE",
"489 576 OFFCURVE",
"488 499 CURVE SMOOTH",
"488 480 LINE",
"31 480 LINE",
"31 369 LINE SMOOTH",
"31 96 OFFCURVE",
"135 -21 OFFCURVE",
"398 -21 CURVE SMOOTH"
);
}
);
width = 861;
}
);
note = uni0259;
unicode = 0259;
},
{
glyphname = uni02BB;
layers = (
{
layerId = "03879842-7D6D-4B41-A76D-F99E90B677D3";
paths = (
{
closed = 1;
nodes = (
"221 1280 LINE",
"259 1280 LINE",
"423 1444 LINE",
"423 1479 LINE",
"282 1621 LINE",
"299 1709 OFFCURVE",
"353 1785 OFFCURVE",
"397 1822 CURVE",
"259 1873 LINE",
"167 1793 OFFCURVE",
"99 1684 OFFCURVE",
"71 1597 CURVE SMOOTH",
"57 1554 OFFCURVE",
"50 1514 OFFCURVE",
"50 1479 CURVE SMOOTH",
"50 1444 LINE"
);
}
);
width = 473;
}
);
note = uni02BB;
unicode = 02BB;
},
{
glyphname = uni02BC;
layers = (
{
layerId = "03879842-7D6D-4B41-A76D-F99E90B677D3";
paths = (
{
closed = 1;
nodes = (
"214 1280 LINE",
"350 1397 OFFCURVE",
"423 1562 OFFCURVE",
"423 1674 CURVE SMOOTH",
"423 1709 LINE",
"252 1873 LINE",
"214 1873 LINE",
"50 1709 LINE",
"50 1674 LINE",
"191 1532 LINE",
"174 1444 OFFCURVE",
"120 1368 OFFCURVE",
"76 1331 CURVE"
);
}
);
width = 473;
}
);
note = uni02BC;
unicode = 02BC;
},
{
glyphname = uni02BE;
layers = (
{
layerId = "03879842-7D6D-4B41-A76D-F99E90B677D3";
paths = (
{
closed = 1;
nodes = (
"81 985 LINE SMOOTH",
"216 985 OFFCURVE",
"348 1061 OFFCURVE",
"349 1232 CURVE SMOOTH",
"349 1296 OFFCURVE",
"329 1350 OFFCURVE",
"301 1383 CURVE SMOOTH",
"273 1416 OFFCURVE",
"231 1442 OFFCURVE",
"196 1455 CURVE SMOOTH",
"160 1467 OFFCURVE",
"116 1476 OFFCURVE",
"93 1477 CURVE",
"81 1478 OFFCURVE",
"70 1478 OFFCURVE",
"60 1478 CURVE SMOOTH",
"50 1478 LINE",
"50 1340 LINE",
"63 1341 LINE",
"69 1341 LINE SMOOTH",
"98 1341 OFFCURVE",
"128 1336 OFFCURVE",
"156 1301 CURVE",
"169 1283 OFFCURVE",
"176 1260 OFFCURVE",
"176 1232 CURVE SMOOTH",
"176 1187 OFFCURVE",
"159 1154 OFFCURVE",
"132 1141 CURVE SMOOTH",
"105 1128 OFFCURVE",
"85 1124 OFFCURVE",
"64 1124 CURVE",
"50 1125 LINE",
"50 986 LINE"
);
}
);
width = 399;
}
);
note = uni02BE;
unicode = 02BE;
},
{
glyphname = uni02BF;
layers = (
{
layerId = "03879842-7D6D-4B41-A76D-F99E90B677D3";
paths = (
{
closed = 1;
nodes = (
"349 986 LINE",
"349 1125 LINE",
"345 1124 OFFCURVE",
"340 1124 OFFCURVE",
"335 1124 CURVE SMOOTH",
"314 1124 OFFCURVE",
"294 1128 OFFCURVE",
"267 1141 CURVE SMOOTH",
"240 1154 OFFCURVE",
"223 1187 OFFCURVE",
"223 1232 CURVE SMOOTH",
"223 1288 OFFCURVE",
"257 1325 OFFCURVE",
"286 1334 CURVE SMOOTH",
"301 1339 OFFCURVE",
"315 1341 OFFCURVE",
"330 1341 CURVE SMOOTH",
"336 1341 LINE",
"349 1340 LINE",
"349 1478 LINE",
"339 1478 LINE SMOOTH",
"322 1478 OFFCURVE",
"305 1477 OFFCURVE",
"273 1473 CURVE SMOOTH",
"240 1468 OFFCURVE",
"211 1458 OFFCURVE",
"176 1443 CURVE SMOOTH",
"140 1427 OFFCURVE",
"112 1401 OFFCURVE",
"88 1369 CURVE SMOOTH",
"64 1337 OFFCURVE",
"50 1288 OFFCURVE",
"50 1232 CURVE SMOOTH",
"50 1153 OFFCURVE",
"81 1089 OFFCURVE",
"121 1055 CURVE SMOOTH",
"160 1021 OFFCURVE",
"218 998 OFFCURVE",
"259 991 CURVE SMOOTH",
"280 987 OFFCURVE",
"299 985 OFFCURVE",
"318 985 CURVE SMOOTH"
);
}
);
width = 399;
}
);
note = uni02BF;
unicode = 02BF;
},
{
glyphname = circumflex;
layers = (
{
layerId = "03879842-7D6D-4B41-A76D-F99E90B677D3";
paths = (
{
closed = 1;
nodes = (
"233 966 LINE",
"321 1112 LINE",
"409 966 LINE",
"592 966 LINE",
"398 1296 LINE",
"244 1296 LINE",
"50 966 LINE"
);
}
);
width = 642;
}
);
note = circumflex;
unicode = 02C6;
},
{
glyphname = caron;
layers = (
{
layerId = "03879842-7D6D-4B41-A76D-F99E90B677D3";
paths = (
{
closed = 1;
nodes = (
"244 966 LINE",
"398 966 LINE",
"592 1296 LINE",
"409 1296 LINE",
"321 1150 LINE",
"233 1296 LINE",
"50 1296 LINE"
);
}
);
width = 642;
}
);
note = caron;
unicode = 02C7;
},
{
glyphname = uni02C8;
layers = (
{
layerId = "03879842-7D6D-4B41-A76D-F99E90B677D3";
paths = (
{
closed = 1;
nodes = (
"50 903 LINE",
"255 903 LINE",
"255 1333 LINE",
"50 1333 LINE"
);
}
);
width = 305;
}
);
note = uni02C8;
unicode = 02C8;
},
{
glyphname = uni02CC;
layers = (
{
layerId = "03879842-7D6D-4B41-A76D-F99E90B677D3";
paths = (
{
closed = 1;
nodes = (
"50 -584 LINE",
"255 -584 LINE",
"255 -154 LINE",
"50 -154 LINE"
);
}
);
width = 305;
}
);
note = uni02CC;
unicode = 02CC;
},
{
glyphname = breve;
layers = (
{
layerId = "03879842-7D6D-4B41-A76D-F99E90B677D3";
paths = (
{
closed = 1;
nodes = (
"397 986 OFFCURVE",
"464 1017 OFFCURVE",
"503 1058 CURVE SMOOTH",
"542 1098 OFFCURVE",
"569 1154 OFFCURVE",
"579 1199 CURVE SMOOTH",
"584 1222 OFFCURVE",
"586 1242 OFFCURVE",
"585 1261 CURVE SMOOTH",
"584 1295 LINE",
"445 1295 LINE",
"445 1294 OFFCURVE",
"445 1289 OFFCURVE",
"446 1281 CURVE",
"446 1238 OFFCURVE",
"406 1190 OFFCURVE",
"318 1190 CURVE SMOOTH",
"230 1190 OFFCURVE",
"190 1238 OFFCURVE",
"190 1281 CURVE",
"191 1295 LINE",
"52 1295 LINE",
"51 1261 LINE SMOOTH",
"50 1230 OFFCURVE",
"57 1194 OFFCURVE",
"73 1152 CURVE SMOOTH",
"88 1110 OFFCURVE",
"118 1070 OFFCURVE",
"156 1038 CURVE SMOOTH",
"194 1006 OFFCURVE",
"251 986 OFFCURVE",
"318 986 CURVE SMOOTH"
);
}
);
width = 636;
}
);
note = breve;
unicode = 02D8;
},
{
glyphname = dotaccent;
layers = (
{
layerId = "03879842-7D6D-4B41-A76D-F99E90B677D3";
paths = (
{
closed = 1;
nodes = (
"214 942 LINE",
"252 942 LINE",
"423 1107 LINE",
"423 1142 LINE",
"252 1306 LINE",
"214 1306 LINE",
"50 1142 LINE",
"50 1107 LINE"
);
}
);
width = 473;
}
);
note = dotaccent;
unicode = 02D9;
},
{
glyphname = ring;
layers = (
{
layerId = "03879842-7D6D-4B41-A76D-F99E90B677D3";
paths = (
{
closed = 1;
nodes = (
"205 1089 OFFCURVE",
"154 1140 OFFCURVE",
"154 1203 CURVE SMOOTH",
"154 1264 OFFCURVE",
"205 1319 OFFCURVE",
"268 1319 CURVE SMOOTH",
"329 1319 OFFCURVE",
"382 1264 OFFCURVE",
"382 1203 CURVE SMOOTH",
"382 1142 OFFCURVE",
"332 1089 OFFCURVE",
"268 1089 CURVE SMOOTH"
);
},
{
closed = 1;
nodes = (
"158 1007 OFFCURVE",
"209 986 OFFCURVE",
"268 986 CURVE SMOOTH",
"387 986 OFFCURVE",
"486 1083 OFFCURVE",
"486 1203 CURVE SMOOTH",
"486 1323 OFFCURVE",
"388 1421 OFFCURVE",
"268 1421 CURVE SMOOTH",
"148 1421 OFFCURVE",
"50 1323 OFFCURVE",
"50 1203 CURVE SMOOTH",
"50 1143 OFFCURVE",
"72 1092 OFFCURVE",
"115 1050 CURVE SMOOTH"
);
}
);
width = 536;
}
);
note = ring;
unicode = 02DA;
},
{
glyphname = ogonek;
layers = (
{
layerId = "03879842-7D6D-4B41-A76D-F99E90B677D3";
paths = (
{
closed = 1;
nodes = (
"430 -533 OFFCURVE",
"522 -470 OFFCURVE",
"553 -434 CURVE",
"515 -282 LINE",
"506 -293 OFFCURVE",
"436 -302 OFFCURVE",
"412 -302 CURVE SMOOTH",
"313 -302 OFFCURVE",
"264 -261 OFFCURVE",
"264 -180 CURVE SMOOTH",
"264 -121 OFFCURVE",
"275 -74 OFFCURVE",
"298 -38 CURVE SMOOTH",
"321 -3 OFFCURVE",
"334 11 OFFCURVE",
"361 36 CURVE",
"257 36 LINE",
"133 -44 OFFCURVE",
"50 -163 OFFCURVE",
"50 -296 CURVE SMOOTH",
"50 -352 OFFCURVE",
"74 -408 OFFCURVE",
"119 -455 CURVE SMOOTH",
"164 -502 OFFCURVE",
"242 -533 OFFCURVE",
"334 -533 CURVE SMOOTH"
);
}
);
width = 603;
}
);
note = ogonek;
unicode = 02DB;
},
{
glyphname = hungarumlaut;
layers = (
{
layerId = "03879842-7D6D-4B41-A76D-F99E90B677D3";
paths = (
{
closed = 1;
nodes = (
"298 966 LINE",
"432 966 LINE",
"671 1294 LINE",
"448 1294 LINE"
);
},
{
closed = 1;
nodes = (
"50 966 LINE",
"184 966 LINE",
"383 1294 LINE",
"160 1294 LINE"
);
}
);
width = 721;
}
);
note = hungarumlaut;
unicode = 02DD;
},
{
glyphname = uni0300;
layers = (
{
layerId = "03879842-7D6D-4B41-A76D-F99E90B677D3";
paths = (
{
closed = 1;
nodes = (
"-67 966 LINE",
"97 966 LINE",
"-43 1296 LINE",
"-306 1296 LINE"
);
}
);
width = 0;
}
);
note = uni0300;
unicode = 0300;
},
{
glyphname = uni0301;
layers = (
{
layerId = "03879842-7D6D-4B41-A76D-F99E90B677D3";
paths = (
{
closed = 1;
nodes = (
"-83 966 LINE",
"81 966 LINE",
"320 1296 LINE",
"57 1296 LINE"
);
}
);
width = 0;
}
);
note = uni0301;
unicode = 0301;
},
{
glyphname = uni0302;
layers = (
{
layerId = "03879842-7D6D-4B41-A76D-F99E90B677D3";
paths = (
{
closed = 1;
nodes = (
"-88 966 LINE",
"0 1112 LINE",
"88 966 LINE",
"271 966 LINE",
"77 1296 LINE",
"-77 1296 LINE",
"-271 966 LINE"
);
}
);
width = 0;
}
);
note = uni0302;
unicode = 0302;
},
{
glyphname = uni0303;
layers = (
{
layerId = "03879842-7D6D-4B41-A76D-F99E90B677D3";
paths = (
{
closed = 1;
nodes = (
"-224 977 LINE",
"-224 1004 LINE SMOOTH",
"-224 1051 OFFCURVE",
"-203 1089 OFFCURVE",
"-164 1089 CURVE SMOOTH",
"-142 1089 OFFCURVE",
"-93 1071 OFFCURVE",
"-18 1034 CURVE SMOOTH",
"57 997 OFFCURVE",
"112 978 OFFCURVE",
"147 978 CURVE SMOOTH",
"294 978 OFFCURVE",
"363 1047 OFFCURVE",
"363 1239 CURVE SMOOTH",
"363 1300 LINE",
"226 1300 LINE",
"226 1274 LINE SMOOTH",
"226 1217 OFFCURVE",
"204 1188 OFFCURVE",
"160 1188 CURVE SMOOTH",
"125 1188 OFFCURVE",
"75 1216 OFFCURVE",
"32 1244 CURVE SMOOTH",
"-11 1272 OFFCURVE",
"-80 1300 OFFCURVE",
"-144 1300 CURVE SMOOTH",
"-201 1300 OFFCURVE",
"-248 1285 OFFCURVE",
"-291 1249 CURVE SMOOTH",
"-335 1212 OFFCURVE",
"-361 1139 OFFCURVE",
"-361 1039 CURVE SMOOTH",
"-361 977 LINE"
);
}
);
width = 0;
}
);
note = uni0303;
unicode = 0303;
},
{
glyphname = uni0304;
layers = (
{
layerId = "03879842-7D6D-4B41-A76D-F99E90B677D3";
paths = (
{
closed = 1;
nodes = (
"-297 1026 LINE",
"298 1026 LINE",
"298 1256 LINE",
"-297 1256 LINE"
);
}
);
width = 0;
}
);
note = uni0304;
unicode = 0304;
},
{
glyphname = uni0305;
layers = (
{
layerId = "03879842-7D6D-4B41-A76D-F99E90B677D3";
paths = (
{
closed = 1;
nodes = (
"140 1425 LINE",
"1181 1425 LINE",
"1181 1628 LINE",
"140 1628 LINE"
);
}
);
width = 1321;
}
);
note = uni0305;
unicode = 0305;
},
{
glyphname = uni0306;
layers = (
{
layerId = "03879842-7D6D-4B41-A76D-F99E90B677D3";
paths = (
{
closed = 1;
nodes = (
"-74 993 OFFCURVE",
"-38 986 OFFCURVE",
"1 986 CURVE SMOOTH",
"80 986 OFFCURVE",
"147 1017 OFFCURVE",
"186 1058 CURVE SMOOTH",
"225 1098 OFFCURVE",
"252 1154 OFFCURVE",
"262 1199 CURVE SMOOTH",
"267 1222 OFFCURVE",
"269 1242 OFFCURVE",
"268 1261 CURVE SMOOTH",
"267 1295 LINE",
"128 1295 LINE",
"129 1291 OFFCURVE",
"129 1286 OFFCURVE",
"129 1281 CURVE SMOOTH",
"129 1238 OFFCURVE",
"89 1190 OFFCURVE",
"1 1190 CURVE SMOOTH",
"-87 1190 OFFCURVE",
"-127 1238 OFFCURVE",
"-127 1281 CURVE",
"-126 1295 LINE",
"-265 1295 LINE",
"-266 1261 LINE SMOOTH",
"-267 1224 OFFCURVE",
"-258 1178 OFFCURVE",
"-232 1127 CURVE SMOOTH",
"-206 1075 OFFCURVE",
"-171 1034 OFFCURVE",
"-106 1007 CURVE SMOOTH"
);
}
);
width = 0;
}
);
note = uni0306;
unicode = 0306;
},
{
glyphname = uni0307;
layers = (
{
layerId = "03879842-7D6D-4B41-A76D-F99E90B677D3";
paths = (
{
closed = 1;
nodes = (
"-16 942 LINE",
"22 942 LINE",
"193 1107 LINE",
"193 1142 LINE",
"22 1306 LINE",
"-16 1306 LINE",
"-180 1142 LINE",
"-180 1107 LINE"
);
}
);
width = 0;
}
);
note = uni0307;
unicode = 0307;
},
{
glyphname = uni0308;
layers = (
{
layerId = "03879842-7D6D-4B41-A76D-F99E90B677D3";
paths = (
{
closed = 1;
nodes = (
"-211 977 LINE",
"-178 977 LINE",
"-26 1123 LINE",
"-26 1154 LINE",
"-178 1300 LINE",
"-211 1300 LINE",
"-357 1154 LINE",
"-357 1123 LINE"
);
},
{
closed = 1;
nodes = (
"174 977 LINE",
"208 977 LINE",
"360 1123 LINE",
"360 1154 LINE",
"208 1300 LINE",
"174 1300 LINE",
"28 1154 LINE",
"28 1123 LINE"
);
}
);
width = 0;
}
);
note = uni0308;
unicode = 0308;
},
{
glyphname = uni0309;
layers = (
{
layerId = "03879842-7D6D-4B41-A76D-F99E90B677D3";
paths = (
{
closed = 1;
nodes = (
"-144 976 LINE",
"56 976 OFFCURVE",
"184 1017 OFFCURVE",
"239 1100 CURVE SMOOTH",
"264 1137 OFFCURVE",
"276 1183 OFFCURVE",
"276 1238 CURVE SMOOTH",
"276 1423 OFFCURVE",
"124 1548 OFFCURVE",
"-115 1548 CURVE SMOOTH",
"-162 1548 OFFCURVE",
"-204 1545 OFFCURVE",
"-241 1540 CURVE",
"-241 1441 LINE",
"-162 1428 OFFCURVE",
"-97 1408 OFFCURVE",
"-36 1376 CURVE SMOOTH",
"24 1344 OFFCURVE",
"61 1295 OFFCURVE",
"61 1236 CURVE SMOOTH",
"61 1149 OFFCURVE",
"-14 1099 OFFCURVE",
"-141 1099 CURVE SMOOTH",
"-169 1099 OFFCURVE",
"-190 1100 OFFCURVE",
"-204 1102 CURVE"
);
}
);
width = 0;
}
);
note = uni0309;
unicode = 0309;
},
{
glyphname = uni030A;
layers = (
{
layerId = "03879842-7D6D-4B41-A76D-F99E90B677D3";
paths = (
{
closed = 1;
nodes = (
"-63 1089 OFFCURVE",
"-114 1140 OFFCURVE",
"-114 1203 CURVE SMOOTH",
"-114 1264 OFFCURVE",
"-63 1319 OFFCURVE",
"0 1319 CURVE SMOOTH",
"61 1319 OFFCURVE",
"114 1264 OFFCURVE",
"114 1203 CURVE SMOOTH",
"114 1142 OFFCURVE",
"64 1089 OFFCURVE",
"0 1089 CURVE SMOOTH"
);
},
{
closed = 1;
nodes = (
"-110 1007 OFFCURVE",
"-59 986 OFFCURVE",
"0 986 CURVE SMOOTH",
"119 986 OFFCURVE",
"218 1083 OFFCURVE",
"218 1203 CURVE SMOOTH",
"218 1323 OFFCURVE",
"120 1421 OFFCURVE",
"0 1421 CURVE SMOOTH",
"-120 1421 OFFCURVE",
"-218 1323 OFFCURVE",
"-218 1203 CURVE SMOOTH",
"-218 1143 OFFCURVE",
"-196 1092 OFFCURVE",
"-153 1050 CURVE SMOOTH"
);
}
);
width = 0;
}
);
note = uni030A;
unicode = 030A;
},
{
glyphname = uni030B;
layers = (
{
layerId = "03879842-7D6D-4B41-A76D-F99E90B677D3";
paths = (
{
closed = 1;
nodes = (
"88 966 LINE",
"222 966 LINE",
"461 1294 LINE",
"238 1294 LINE"
);
},
{
closed = 1;
nodes = (
"-260 966 LINE",
"-126 966 LINE",
"73 1294 LINE",
"-150 1294 LINE"
);
}
);
width = 0;
}
);
note = uni030B;
unicode = 030B;
},
{
glyphname = uni030C;
layers = (
{
layerId = "03879842-7D6D-4B41-A76D-F99E90B677D3";
paths = (
{
closed = 1;
nodes = (
"-77 966 LINE",
"77 966 LINE",
"271 1296 LINE",
"88 1296 LINE",
"0 1150 LINE",
"-88 1296 LINE",
"-271 1296 LINE"
);
}
);
width = 0;
}
);
note = uni030C;
unicode = 030C;
},
{
glyphname = uni030F;
layers = (
{
layerId = "03879842-7D6D-4B41-A76D-F99E90B677D3";
paths = (
{
closed = 1;
nodes = (
"-160 966 LINE",
"-26 966 LINE",
"-176 1294 LINE",
"-399 1294 LINE"
);
},
{
closed = 1;
nodes = (
"88 966 LINE",
"222 966 LINE",
"112 1294 LINE",
"-111 1294 LINE"
);
}
);
width = 0;
}
);
note = uni030F;
unicode = 030F;
},
{
glyphname = uni0312;
layers = (
{
layerId = "03879842-7D6D-4B41-A76D-F99E90B677D3";
paths = (
{
closed = 1;
nodes = (
"-32 933 LINE",
"6 933 LINE",
"170 1097 LINE",
"170 1132 LINE",
"29 1274 LINE",
"46 1362 OFFCURVE",
"100 1438 OFFCURVE",
"144 1475 CURVE",
"6 1526 LINE",
"-130 1409 OFFCURVE",
"-203 1244 OFFCURVE",
"-203 1132 CURVE SMOOTH",
"-203 1097 LINE"
);
}
);
width = 0;
}
);
note = uni0312;
unicode = 0312;
},
{
glyphname = uni0313;
layers = (
{
layerId = "03879842-7D6D-4B41-A76D-F99E90B677D3";
paths = (
{
closed = 1;
nodes = (
"-39 1280 LINE",
"97 1397 OFFCURVE",
"170 1562 OFFCURVE",
"170 1674 CURVE SMOOTH",
"170 1709 LINE",
"-1 1873 LINE",
"-39 1873 LINE",
"-203 1709 LINE",
"-203 1674 LINE",
"-62 1532 LINE",
"-79 1444 OFFCURVE",
"-133 1368 OFFCURVE",
"-177 1331 CURVE"
);
}
);
width = 0;
}
);
note = uni0313;
unicode = 0313;
},
{
glyphname = uni0315;
layers = (
{
layerId = "03879842-7D6D-4B41-A76D-F99E90B677D3";
paths = (
{
closed = 1;
nodes = (
"-83 866 LINE",
"81 866 LINE",
"220 1298 LINE",
"-43 1298 LINE"
);
}
);
width = 0;
}
);
note = uni0315;
unicode = 0315;
},
{
glyphname = uni0323;
layers = (
{
layerId = "03879842-7D6D-4B41-A76D-F99E90B677D3";
paths = (
{
closed = 1;
nodes = (
"-21 -454 LINE",
"17 -454 LINE",
"188 -289 LINE",
"188 -254 LINE",
"17 -90 LINE",
"-21 -90 LINE",
"-185 -254 LINE",
"-185 -289 LINE"
);
}
);
width = 0;
}
);
note = uni0323;
unicode = 0323;
},
{
glyphname = uni0324;
layers = (
{
layerId = "03879842-7D6D-4B41-A76D-F99E90B677D3";
paths = (
{
closed = 1;
nodes = (
"-211 -458 LINE",
"-178 -458 LINE",
"-26 -312 LINE",
"-26 -281 LINE",
"-178 -135 LINE",
"-211 -135 LINE",
"-357 -281 LINE",
"-357 -312 LINE"
);
},
{
closed = 1;
nodes = (
"174 -458 LINE",
"208 -458 LINE",
"360 -312 LINE",
"360 -281 LINE",
"208 -135 LINE",
"174 -135 LINE",
"28 -281 LINE",
"28 -312 LINE"
);
}
);
width = 0;
}
);
note = uni0324;
unicode = 0324;
},
{
glyphname = uni0325;
layers = (
{
layerId = "03879842-7D6D-4B41-A76D-F99E90B677D3";
paths = (
{
closed = 1;
nodes = (
"-63 -520 OFFCURVE",
"-114 -469 OFFCURVE",
"-114 -406 CURVE SMOOTH",
"-114 -345 OFFCURVE",
"-63 -290 OFFCURVE",
"0 -290 CURVE SMOOTH",
"61 -290 OFFCURVE",
"114 -345 OFFCURVE",
"114 -406 CURVE SMOOTH",
"114 -467 OFFCURVE",
"64 -520 OFFCURVE",
"0 -520 CURVE SMOOTH"
);
},
{
closed = 1;
nodes = (
"-110 -602 OFFCURVE",
"-59 -623 OFFCURVE",
"0 -623 CURVE SMOOTH",
"119 -623 OFFCURVE",
"218 -526 OFFCURVE",
"218 -406 CURVE SMOOTH",
"218 -286 OFFCURVE",
"120 -188 OFFCURVE",
"0 -188 CURVE SMOOTH",
"-120 -188 OFFCURVE",
"-218 -286 OFFCURVE",
"-218 -406 CURVE SMOOTH",
"-218 -466 OFFCURVE",
"-196 -517 OFFCURVE",
"-153 -559 CURVE SMOOTH"
);
}
);
width = 0;
}
);
note = uni0325;
unicode = 0325;
},
{
glyphname = uni0326;
layers = (
{
layerId = "03879842-7D6D-4B41-A76D-F99E90B677D3";
paths = (
{
closed = 1;
nodes = (
"-39 -713 LINE",
"97 -596 OFFCURVE",
"170 -431 OFFCURVE",
"170 -319 CURVE SMOOTH",
"170 -284 LINE",
"-1 -120 LINE",
"-39 -120 LINE",
"-203 -284 LINE",
"-203 -319 LINE",
"-62 -461 LINE",
"-74 -522 OFFCURVE",
"-110 -587 OFFCURVE",
"-137 -620 CURVE SMOOTH",
"-151 -637 OFFCURVE",
"-164 -651 OFFCURVE",
"-177 -662 CURVE"
);
}
);
width = 0;
}
);
note = uni0326;
unicode = 0326;
},
{
glyphname = uni0327;
layers = (
{
layerId = "03879842-7D6D-4B41-A76D-F99E90B677D3";
paths = (
{
closed = 1;
nodes = (
"6 -534 OFFCURVE",
"89 -512 OFFCURVE",
"147 -447 CURVE SMOOTH",
"176 -414 OFFCURVE",
"190 -374 OFFCURVE",
"190 -326 CURVE SMOOTH",
"190 -301 OFFCURVE",
"186 -277 OFFCURVE",
"183 -260 CURVE",
"181 -251 OFFCURVE",
"178 -242 OFFCURVE",
"173 -233 CURVE SMOOTH",
"168 -224 OFFCURVE",
"164 -217 OFFCURVE",
"162 -212 CURVE",
"159 -207 OFFCURVE",
"154 -200 OFFCURVE",
"147 -193 CURVE",
"139 -186 OFFCURVE",
"134 -181 OFFCURVE",
"132 -178 CURVE",
"127 -173 OFFCURVE",
"100 -154 OFFCURVE",
"96 -152 CURVE SMOOTH",
"92 -150 OFFCURVE",
"60 -132 OFFCURVE",
"59 -131 CURVE",
"107 24 LINE",
"-70 24 LINE",
"-175 -170 LINE",
"-142 -170 LINE",
"-95 -174 OFFCURVE",
"-46 -203 OFFCURVE",
"-46 -252 CURVE SMOOTH",
"-46 -315 OFFCURVE",
"-92 -345 OFFCURVE",
"-159 -345 CURVE SMOOTH",
"-181 -345 OFFCURVE",
"-203 -342 OFFCURVE",
"-225 -335 CURVE",
"-235 -493 LINE",
"-188 -520 OFFCURVE",
"-139 -534 OFFCURVE",
"-86 -534 CURVE SMOOTH"
);
}
);
width = 0;
}
);
note = uni0327;
unicode = 0327;
},
{
glyphname = uni0328;
layers = (
{
layerId = "03879842-7D6D-4B41-A76D-F99E90B677D3";
paths = (
{
closed = 1;
nodes = (
"221 -533 OFFCURVE",
"313 -470 OFFCURVE",
"344 -434 CURVE",
"306 -282 LINE",
"297 -293 OFFCURVE",
"227 -302 OFFCURVE",
"203 -302 CURVE SMOOTH",
"104 -302 OFFCURVE",
"55 -261 OFFCURVE",
"55 -180 CURVE SMOOTH",
"55 -121 OFFCURVE",
"66 -74 OFFCURVE",
"89 -38 CURVE SMOOTH",
"112 -3 OFFCURVE",
"125 11 OFFCURVE",
"152 36 CURVE",
"48 36 LINE",
"-76 -44 OFFCURVE",
"-159 -163 OFFCURVE",
"-159 -296 CURVE SMOOTH",
"-159 -352 OFFCURVE",
"-135 -408 OFFCURVE",
"-90 -455 CURVE SMOOTH",
"-45 -502 OFFCURVE",
"33 -533 OFFCURVE",
"125 -533 CURVE SMOOTH"
);
}
);
width = 0;
}
);
note = uni0328;
unicode = 0328;
},
{
glyphname = uni032E;
layers = (
{
layerId = "03879842-7D6D-4B41-A76D-F99E90B677D3";
paths = (
{
closed = 1;
nodes = (
"-75 -412 OFFCURVE",
"-39 -419 OFFCURVE",
"0 -419 CURVE SMOOTH",
"79 -419 OFFCURVE",
"146 -388 OFFCURVE",
"185 -347 CURVE SMOOTH",
"224 -307 OFFCURVE",
"251 -251 OFFCURVE",
"261 -206 CURVE SMOOTH",
"266 -183 OFFCURVE",
"268 -163 OFFCURVE",
"267 -144 CURVE SMOOTH",
"266 -110 LINE",
"127 -110 LINE",
"127 -111 OFFCURVE",
"127 -116 OFFCURVE",
"128 -124 CURVE",
"128 -167 OFFCURVE",
"88 -215 OFFCURVE",
"0 -215 CURVE SMOOTH",
"-88 -215 OFFCURVE",
"-128 -167 OFFCURVE",
"-128 -124 CURVE",
"-127 -110 LINE",
"-266 -110 LINE",
"-267 -144 LINE SMOOTH",
"-268 -181 OFFCURVE",
"-259 -227 OFFCURVE",
"-233 -278 CURVE SMOOTH",
"-207 -330 OFFCURVE",
"-172 -371 OFFCURVE",
"-107 -398 CURVE SMOOTH"
);
}
);
width = 0;
}
);
note = uni032E;
unicode = 032E;
},
{
glyphname = uni0331;
layers = (
{
layerId = "03879842-7D6D-4B41-A76D-F99E90B677D3";
paths = (
{
closed = 1;
nodes = (
"-297 -370 LINE",
"298 -370 LINE",
"298 -140 LINE",
"-297 -140 LINE"
);
}
);
width = 0;
}
);
note = uni0331;
unicode = 0331;
},
{
glyphname = uni0600;
layers = (
{
layerId = "03879842-7D6D-4B41-A76D-F99E90B677D3";
paths = (
{
closed = 1;
nodes = (
"298 -292 LINE",
"2609 -292 LINE SMOOTH",
"2826 -292 OFFCURVE",
"3002 -116 OFFCURVE",
"3002 101 CURVE SMOOTH",
"3002 437 LINE SMOOTH",
"3002 580 OFFCURVE",
"2886 696 OFFCURVE",
"2743 696 CURVE SMOOTH",
"2560 696 LINE",
"2599 759 OFFCURVE",
"2658 819 OFFCURVE",
"2707 856 CURVE SMOOTH",
"2756 893 OFFCURVE",
"2804 923 OFFCURVE",
"2831 936 CURVE SMOOTH",
"2851 945 LINE",
"2851 1038 LINE",
"2555 1038 LINE SMOOTH",
"2422 1038 OFFCURVE",
"2314 930 OFFCURVE",
"2314 797 CURVE SMOOTH",
"2314 428 LINE SMOOTH",
"2314 367 OFFCURVE",
"2346 312 OFFCURVE",
"2399 282 CURVE SMOOTH",
"2425 267 OFFCURVE",
"2453 259 OFFCURVE",
"2484 259 CURVE SMOOTH",
"2826 259 LINE",
"2825 194 OFFCURVE",
"2770 144 OFFCURVE",
"2641 144 CURVE SMOOTH",
"60 144 LINE"
);
}
);
width = 3083;
}
);
note = uni0600;
unicode = 0600;
},
{
glyphname = uni0601;
layers = (
{
layerId = "03879842-7D6D-4B41-A76D-F99E90B677D3";
paths = (
{
closed = 1;
nodes = (
"784 -313 LINE SMOOTH",
"904 -313 OFFCURVE",
"1008 -231 OFFCURVE",
"1040 -118 CURVE",
"1072 -231 OFFCURVE",
"1175 -313 OFFCURVE",
"1295 -313 CURVE SMOOTH",
"5079 -313 LINE SMOOTH",
"5167 -313 OFFCURVE",
"5235 -282 OFFCURVE",
"5266 -244 CURVE SMOOTH",
"5297 -206 OFFCURVE",
"5316 -165 OFFCURVE",
"5319 -138 CURVE SMOOTH",
"5321 -118 LINE",
"5322 -123 OFFCURVE",
"5323 -130 OFFCURVE",
"5325 -139 CURVE",
"5328 -156 OFFCURVE",
"5347 -210 OFFCURVE",
"5373 -245 CURVE SMOOTH",
"5399 -280 OFFCURVE",
"5454 -313 OFFCURVE",
"5522 -313 CURVE SMOOTH",
"5561 -313 OFFCURVE",
"5596 -297 OFFCURVE",
"5618 -274 CURVE SMOOTH",
"5640 -251 OFFCURVE",
"5659 -223 OFFCURVE",
"5670 -195 CURVE SMOOTH",
"5681 -167 OFFCURVE",
"5687 -144 OFFCURVE",
"5690 -129 CURVE SMOOTH",
"5692 -118 LINE",
"5692 -121 OFFCURVE",
"5692 -124 OFFCURVE",
"5693 -128 CURVE",
"5694 -137 OFFCURVE",
"5700 -167 OFFCURVE",
"5711 -190 CURVE SMOOTH",
"5722 -213 OFFCURVE",
"5744 -244 OFFCURVE",
"5772 -264 CURVE SMOOTH",
"5800 -284 OFFCURVE",
"5847 -300 OFFCURVE",
"5902 -300 CURVE SMOOTH",
"5970 -300 OFFCURVE",
"6027 -274 OFFCURVE",
"6061 -237 CURVE SMOOTH",
"6095 -201 OFFCURVE",
"6119 -150 OFFCURVE",
"6128 -103 CURVE SMOOTH",
"6133 -80 OFFCURVE",
"6135 -56 OFFCURVE",
"6135 -33 CURVE",
"6134 267 LINE",
"6134 302 OFFCURVE",
"6127 341 OFFCURVE",
"6117 372 CURVE SMOOTH",
"6107 403 OFFCURVE",
"6093 435 OFFCURVE",
"6081 457 CURVE SMOOTH",
"6068 479 OFFCURVE",
"6058 497 OFFCURVE",
"6051 506 CURVE SMOOTH",
"6048 510 OFFCURVE",
"6046 512 OFFCURVE",
"6046 512 CURVE",
"5847 356 LINE",
"5926 283 OFFCURVE",
"5958 204 OFFCURVE",
"5930 158 CURVE SMOOTH",
"5915 135 OFFCURVE",
"5887 123 OFFCURVE",
"5845 123 CURVE SMOOTH",
"5808 123 OFFCURVE",
"5782 148 OFFCURVE",
"5774 179 CURVE SMOOTH",
"5765 210 OFFCURVE",
"5761 243 OFFCURVE",
"5764 266 CURVE",
"5765 282 LINE",
"5617 282 LINE",
"5615 278 OFFCURVE",
"5615 264 OFFCURVE",
"5618 241 CURVE SMOOTH",
"5623 193 OFFCURVE",
"5590 123 OFFCURVE",
"5525 123 CURVE SMOOTH",
"5486 123 OFFCURVE",
"5459 148 OFFCURVE",
"5450 179 CURVE SMOOTH",
"5441 210 OFFCURVE",
"5437 243 OFFCURVE",
"5438 266 CURVE SMOOTH",
"5439 282 LINE",
"5292 282 LINE",
"5292 165 LINE SMOOTH",
"5292 137 OFFCURVE",
"5271 123 OFFCURVE",
"5230 123 CURVE SMOOTH",
"1096 123 LINE",
"1071 124 OFFCURVE",
"1059 138 OFFCURVE",
"1059 166 CURVE SMOOTH",
"1059 282 LINE",
"912 282 LINE",
"912 165 LINE SMOOTH",
"912 137 OFFCURVE",
"891 123 OFFCURVE",
"850 123 CURVE SMOOTH",
"706 123 LINE SMOOTH",
"667 123 OFFCURVE",
"638 135 OFFCURVE",
"623 151 CURVE SMOOTH",
"608 167 OFFCURVE",
"600 196 OFFCURVE",
"598 216 CURVE SMOOTH",
"597 226 OFFCURVE",
"596 238 OFFCURVE",
"596 252 CURVE SMOOTH",
"596 481 LINE",
"465 481 OFFCURVE",
"352 436 OFFCURVE",
"282 376 CURVE SMOOTH",
"212 315 OFFCURVE",
"154 230 OFFCURVE",
"126 158 CURVE SMOOTH",
"97 86 OFFCURVE",
"78 11 OFFCURVE",
"74 -22 CURVE",
"71 -39 OFFCURVE",
"70 -49 OFFCURVE",
"70 -52 CURVE",
"99 -226 LINE",
"208 -226 LINE",
"200 -133 OFFCURVE",
"218 -34 OFFCURVE",
"255 44 CURVE SMOOTH",
"291 122 OFFCURVE",
"356 176 OFFCURVE",
"435 176 CURVE",
"435 -46 LINE SMOOTH",
"435 -198 OFFCURVE",
"561 -313 OFFCURVE",
"701 -313 CURVE SMOOTH"
);
}
);
width = 6226;
}
);
note = uni0601;
unicode = 0601;
},
{
glyphname = uni0602;
layers = (
{
layerId = "03879842-7D6D-4B41-A76D-F99E90B677D3";
paths = (
{
closed = 1;
nodes = (
"286 126 LINE",
"289 131 OFFCURVE",
"294 137 OFFCURVE",
"301 144 CURVE",
"314 159 OFFCURVE",
"357 206 OFFCURVE",
"392 236 CURVE SMOOTH",
"427 266 OFFCURVE",
"475 294 OFFCURVE",
"508 294 CURVE SMOOTH",
"561 294 OFFCURVE",
"588 265 OFFCURVE",
"588 206 CURVE SMOOTH",
"588 153 OFFCURVE",
"539 126 OFFCURVE",
"495 126 CURVE SMOOTH"
);
},
{
closed = 1;
nodes = (
"2375 -310 LINE",
"2613 126 LINE",
"716 126 LINE",
"716 198 LINE SMOOTH",
"716 281 OFFCURVE",
"696 347 OFFCURVE",
"653 401 CURVE SMOOTH",
"609 455 OFFCURVE",
"532 485 OFFCURVE",
"429 485 CURVE SMOOTH",
"234 485 OFFCURVE",
"89 320 OFFCURVE",
"89 92 CURVE SMOOTH",
"89 -42 LINE SMOOTH",
"89 -81 OFFCURVE",
"95 -119 OFFCURVE",
"110 -159 CURVE SMOOTH",
"125 -200 OFFCURVE",
"150 -237 OFFCURVE",
"183 -265 CURVE SMOOTH",
"216 -293 OFFCURVE",
"266 -310 OFFCURVE",
"322 -310 CURVE SMOOTH"
);
}
);
width = 2674;
}
);
note = uni0602;
unicode = 0602;
},
{
glyphname = uni0603;
layers = (
{
layerId = "03879842-7D6D-4B41-A76D-F99E90B677D3";
paths = (
{
closed = 1;
nodes = (
"1933 -312 LINE SMOOTH",
"2013 -312 OFFCURVE",
"2087 -277 OFFCURVE",
"2136 -218 CURVE SMOOTH",
"2161 -189 OFFCURVE",
"2178 -155 OFFCURVE",
"2189 -118 CURVE",
"2221 -231 OFFCURVE",
"2324 -312 OFFCURVE",
"2444 -312 CURVE SMOOTH",
"2762 -312 LINE SMOOTH",
"2878 -312 OFFCURVE",
"2962 -283 OFFCURVE",
"3013 -247 CURVE SMOOTH",
"3064 -212 OFFCURVE",
"3106 -123 OFFCURVE",
"3126 -59 CURVE SMOOTH",
"3146 5 OFFCURVE",
"3176 122 OFFCURVE",
"3185 197 CURVE SMOOTH",
"3193 272 OFFCURVE",
"3186 357 OFFCURVE",
"3155 414 CURVE SMOOTH",
"3123 470 OFFCURVE",
"3054 511 OFFCURVE",
"2954 511 CURVE SMOOTH",
"2851 511 OFFCURVE",
"2731 450 OFFCURVE",
"2636 375 CURVE SMOOTH",
"2589 337 OFFCURVE",
"2544 299 OFFCURVE",
"2502 262 CURVE SMOOTH",
"2418 186 OFFCURVE",
"2345 125 OFFCURVE",
"2308 125 CURVE SMOOTH",
"2280 125 OFFCURVE",
"2261 144 OFFCURVE",
"2261 167 CURVE SMOOTH",
"2261 283 LINE",
"2114 283 LINE",
"2114 167 LINE SMOOTH",
"2114 138 OFFCURVE",
"2093 124 OFFCURVE",
"2052 124 CURVE SMOOTH",
"60 124 LINE",
"298 -312 LINE"
);
},
{
closed = 1;
nodes = (
"2520 124 LINE",
"2525 129 OFFCURVE",
"2531 136 OFFCURVE",
"2540 145 CURVE SMOOTH",
"2557 162 OFFCURVE",
"2615 216 OFFCURVE",
"2661 250 CURVE SMOOTH",
"2707 284 OFFCURVE",
"2769 317 OFFCURVE",
"2812 317 CURVE SMOOTH",
"2859 317 OFFCURVE",
"2900 287 OFFCURVE",
"2923 249 CURVE SMOOTH",
"2946 211 OFFCURVE",
"2963 171 OFFCURVE",
"2968 144 CURVE",
"2973 124 LINE"
);
}
);
width = 3278;
}
);
note = uni0603;
unicode = 0603;
},
{
glyphname = uni0608;
layers = (
{
layerId = "03879842-7D6D-4B41-A76D-F99E90B677D3";
paths = (
{
closed = 1;
nodes = (
"1064 -574 OFFCURVE",
"1205 -509 OFFCURVE",
"1286 -379 CURVE SMOOTH",
"1326 -314 OFFCURVE",
"1346 -245 OFFCURVE",
"1346 -170 CURVE SMOOTH",
"1346 0 LINE",
"1608 0 LINE",
"1734 436 LINE",
"1345 436 LINE",
"1332 647 OFFCURVE",
"1190 795 OFFCURVE",
"1006 795 CURVE SMOOTH",
"806 795 OFFCURVE",
"719 680 OFFCURVE",
"719 508 CURVE SMOOTH",
"719 229 LINE SMOOTH",
"719 97 OFFCURVE",
"829 10 OFFCURVE",
"938 10 CURVE SMOOTH",
"1168 10 LINE",
"1142 -85 OFFCURVE",
"1033 -132 OFFCURVE",
"842 -132 CURVE SMOOTH",
"759 -132 OFFCURVE",
"688 -118 OFFCURVE",
"626 -78 CURVE SMOOTH",
"564 -39 OFFCURVE",
"530 16 OFFCURVE",
"539 110 CURVE SMOOTH",
"544 157 OFFCURVE",
"561 209 OFFCURVE",
"590 268 CURVE",
"289 268 LINE",
"116 131 LINE",
"110 -70 LINE",
"362 127 LINE",
"327 19 OFFCURVE",
"320 -93 OFFCURVE",
"340 -197 CURVE SMOOTH",
"360 -301 OFFCURVE",
"417 -395 OFFCURVE",
"499 -463 CURVE SMOOTH",
"581 -532 OFFCURVE",
"709 -574 OFFCURVE",
"861 -574 CURVE SMOOTH"
);
},
{
closed = 1;
nodes = (
"847 575 OFFCURVE",
"874 604 OFFCURVE",
"927 604 CURVE SMOOTH",
"979 604 OFFCURVE",
"1065 534 OFFCURVE",
"1113 478 CURVE SMOOTH",
"1149 436 LINE",
"940 436 LINE SMOOTH",
"896 436 OFFCURVE",
"847 463 OFFCURVE",
"847 516 CURVE SMOOTH"
);
}
);
width = 1843;
}
);
note = uni0608;
unicode = 0608;
},
{
glyphname = uni060B;
layers = (
{
layerId = "03879842-7D6D-4B41-A76D-F99E90B677D3";
paths = (
{
closed = 1;
nodes = (
"602 963 OFFCURVE",
"629 992 OFFCURVE",
"683 992 CURVE SMOOTH",
"735 992 OFFCURVE",
"821 922 OFFCURVE",
"869 866 CURVE SMOOTH",
"905 824 LINE",
"696 824 LINE SMOOTH",
"652 824 OFFCURVE",
"602 851 OFFCURVE",
"602 904 CURVE SMOOTH"
);
},
{
closed = 1;
nodes = (
"258 0 LINE",
"869 0 LINE SMOOTH",
"937 0 OFFCURVE",
"994 26 OFFCURVE",
"1028 63 CURVE SMOOTH",
"1062 99 OFFCURVE",
"1086 150 OFFCURVE",
"1095 198 CURVE SMOOTH",
"1100 221 OFFCURVE",
"1102 245 OFFCURVE",
"1102 268 CURVE SMOOTH",
"1102 790 LINE SMOOTH",
"1102 1018 OFFCURVE",
"957 1183 OFFCURVE",
"762 1183 CURVE SMOOTH",
"562 1183 OFFCURVE",
"475 1069 OFFCURVE",
"475 897 CURVE SMOOTH",
"475 674 LINE SMOOTH",
"475 563 OFFCURVE",
"566 503 OFFCURVE",
"646 503 CURVE SMOOTH",
"893 503 LINE SMOOTH",
"912 503 OFFCURVE",
"927 488 OFFCURVE",
"927 469 CURVE SMOOTH",
"927 450 OFFCURVE",
"912 436 OFFCURVE",
"893 436 CURVE SMOOTH",
"110 436 LINE"
);
}
);
width = 1211;
}
);
note = uni060B;
unicode = 060B;
},
{
glyphname = uni060C;
layers = (
{
layerId = "03879842-7D6D-4B41-A76D-F99E90B677D3";
paths = (
{
closed = 1;
nodes = (
"187 1 LINE",
"225 1 LINE",
"389 165 LINE",
"389 200 LINE",
"248 342 LINE",
"260 403 OFFCURVE",
"296 468 OFFCURVE",
"324 501 CURVE",
"337 518 OFFCURVE",
"350 532 OFFCURVE",
"363 543 CURVE",
"225 594 LINE",
"89 477 OFFCURVE",
"16 312 OFFCURVE",
"16 200 CURVE SMOOTH",
"16 165 LINE"
);
}
);
width = 415;
}
);
note = uni060C;
unicode = 060C;
},
{
glyphname = uni060D;
layers = (
{
layerId = "03879842-7D6D-4B41-A76D-F99E90B677D3";
paths = (
{
closed = 1;
nodes = (
"110 -648 LINE",
"375 -648 LINE",
"695 436 LINE",
"430 436 LINE"
);
}
);
width = 804;
}
);
note = uni060D;
unicode = 060D;
},
{
glyphname = uni060E;
layers = (
{
layerId = "03879842-7D6D-4B41-A76D-F99E90B677D3";
paths = (
{
closed = 1;
nodes = (
"-562 126 LINE",
"-559 131 OFFCURVE",
"-554 137 OFFCURVE",
"-547 144 CURVE",
"-534 159 OFFCURVE",
"-491 206 OFFCURVE",
"-456 236 CURVE SMOOTH",
"-421 266 OFFCURVE",
"-373 294 OFFCURVE",
"-340 294 CURVE SMOOTH",
"-287 294 OFFCURVE",
"-260 265 OFFCURVE",
"-260 206 CURVE SMOOTH",
"-260 153 OFFCURVE",
"-309 126 OFFCURVE",
"-353 126 CURVE SMOOTH"
);
},
{
closed = 1;
nodes = (
"1527 -310 LINE",
"1765 126 LINE",
"-132 126 LINE",
"-132 198 LINE SMOOTH",
"-132 281 OFFCURVE",
"-152 347 OFFCURVE",
"-195 401 CURVE SMOOTH",
"-239 455 OFFCURVE",
"-316 485 OFFCURVE",
"-419 485 CURVE SMOOTH",
"-614 485 OFFCURVE",
"-759 320 OFFCURVE",
"-759 92 CURVE SMOOTH",
"-759 -42 LINE SMOOTH",
"-759 -89 OFFCURVE",
"-751 -135 OFFCURVE",
"-727 -183 CURVE SMOOTH",
"-704 -232 OFFCURVE",
"-673 -269 OFFCURVE",
"-618 -292 CURVE SMOOTH",
"-591 -304 OFFCURVE",
"-560 -310 OFFCURVE",
"-526 -310 CURVE SMOOTH"
);
}
);
width = 1422;
}
);
note = uni060E;
unicode = 060E;
},
{
glyphname = uni060F;
layers = (
{
layerId = "03879842-7D6D-4B41-A76D-F99E90B677D3";
paths = (
{
closed = 1;
nodes = (
"679 -42 OFFCURVE",
"683 -39 OFFCURVE",
"688 -34 CURVE",
"698 -26 OFFCURVE",
"739 1 OFFCURVE",
"783 18 CURVE SMOOTH",
"826 35 OFFCURVE",
"905 52 OFFCURVE",
"986 52 CURVE SMOOTH",
"1125 52 OFFCURVE",
"1210 -22 OFFCURVE",
"1210 -101 CURVE SMOOTH",
"1210 -201 OFFCURVE",
"1122 -283 OFFCURVE",
"963 -283 CURVE SMOOTH",
"871 -283 OFFCURVE",
"797 -250 OFFCURVE",
"754 -200 CURVE SMOOTH",
"710 -150 OFFCURVE",
"688 -101 OFFCURVE",
"676 -45 CURVE"
);
},
{
closed = 1;
nodes = (
"1401 155 OFFCURVE",
"1258 263 OFFCURVE",
"1042 261 CURVE SMOOTH",
"934 260 OFFCURVE",
"820 233 OFFCURVE",
"700 180 CURVE",
"771 340 OFFCURVE",
"949 438 OFFCURVE",
"1221 419 CURVE",
"1329 689 LINE",
"1194 670 OFFCURVE",
"1071 660 OFFCURVE",
"960 660 CURVE SMOOTH",
"879 660 OFFCURVE",
"816 694 OFFCURVE",
"789 736 CURVE SMOOTH",
"761 778 OFFCURVE",
"744 823 OFFCURVE",
"743 852 CURVE SMOOTH",
"742 874 LINE",
"802 935 OFFCURVE",
"893 952 OFFCURVE",
"965 911 CURVE SMOOTH",
"997 892 OFFCURVE",
"1045 840 OFFCURVE",
"1072 804 CURVE SMOOTH",
"1091 778 LINE",
"1313 876 LINE",
"1313 876 OFFCURVE",
"1302 894 OFFCURVE",
"1280 930 CURVE",
"1207 1035 OFFCURVE",
"1125 1101 OFFCURVE",
"1035 1127 CURVE SMOOTH",
"1008 1135 OFFCURVE",
"982 1139 OFFCURVE",
"955 1139 CURVE SMOOTH",
"914 1139 OFFCURVE",
"877 1135 OFFCURVE",
"846 1125 CURVE SMOOTH",
"814 1115 OFFCURVE",
"791 1107 OFFCURVE",
"768 1091 CURVE SMOOTH",
"744 1074 OFFCURVE",
"732 1067 OFFCURVE",
"715 1048 CURVE SMOOTH",
"706 1038 OFFCURVE",
"700 1031 OFFCURVE",
"697 1028 CURVE",
"694 1024 OFFCURVE",
"689 1017 OFFCURVE",
"682 1008 CURVE",
"675 998 OFFCURVE",
"671 993 OFFCURVE",
"670 992 CURVE",
"544 797 LINE SMOOTH",
"485 710 OFFCURVE",
"462 641 OFFCURVE",
"474 593 CURVE SMOOTH",
"486 544 OFFCURVE",
"513 513 OFFCURVE",
"564 482 CURVE",
"321 339 OFFCURVE",
"210 145 OFFCURVE",
"232 -101 CURVE",
"110 -210 LINE",
"110 -534 LINE",
"323 -341 LINE",
"418 -472 OFFCURVE",
"566 -537 OFFCURVE",
"769 -537 CURVE SMOOTH",
"964 -537 OFFCURVE",
"1138 -464 OFFCURVE",
"1240 -363 CURVE SMOOTH",
"1342 -262 OFFCURVE",
"1401 -139 OFFCURVE",
"1401 -28 CURVE SMOOTH"
);
}
);
width = 1510;
}
);
note = uni060F;
unicode = 060F;
},
{
glyphname = uni0610;
layers = (
{
layerId = "03879842-7D6D-4B41-A76D-F99E90B677D3";
paths = (
{
closed = 1;
nodes = (
"147 1791 LINE",
"147 1792 OFFCURVE",
"148 1821 OFFCURVE",
"149 1878 CURVE",
"176 1858 OFFCURVE",
"221 1848 OFFCURVE",
"248 1848 CURVE SMOOTH",
"268 1848 LINE SMOOTH",
"302 1847 OFFCURVE",
"330 1854 OFFCURVE",
"353 1869 CURVE SMOOTH",
"376 1885 OFFCURVE",
"395 1921 OFFCURVE",
"400 1944 CURVE",
"405 1961 LINE",
"414 2010 OFFCURVE",
"420 2060 OFFCURVE",
"396 2095 CURVE SMOOTH",
"371 2130 OFFCURVE",
"302 2131 OFFCURVE",
"251 2099 CURVE",
"226 2082 OFFCURVE",
"201 2059 OFFCURVE",
"177 2029 CURVE SMOOTH",
"164 2013 OFFCURVE",
"154 1998 OFFCURVE",
"145 1984 CURVE",
"142 2018 OFFCURVE",
"139 2047 OFFCURVE",
"136 2070 CURVE SMOOTH",
"133 2093 OFFCURVE",
"130 2107 OFFCURVE",
"128 2113 CURVE",
"124 2122 LINE",
"75 2073 OFFCURVE",
"50 2049 OFFCURVE",
"50 2048 CURVE",
"79 1967 OFFCURVE",
"91 1849 OFFCURVE",
"88 1786 CURVE SMOOTH",
"86 1740 LINE"
);
},
{
closed = 1;
nodes = (
"342 2050 OFFCURVE",
"353 2020 OFFCURVE",
"348 1996 CURVE SMOOTH",
"344 1978 LINE",
"198 1978 LINE",
"221 2007 OFFCURVE",
"230 2021 OFFCURVE",
"259 2038 CURVE",
"274 2046 OFFCURVE",
"289 2050 OFFCURVE",
"306 2050 CURVE SMOOTH"
);
}
);
width = 463;
}
);
note = uni0610;
unicode = 0610;
},
{
glyphname = uni0611;
layers = (
{
layerId = "03879842-7D6D-4B41-A76D-F99E90B677D3";
paths = (
{
closed = 1;
nodes = (
"170 1773 LINE",
"170 1773 OFFCURVE",
"171 1810 OFFCURVE",
"172 1883 CURVE SMOOTH",
"172 1889 OFFCURVE",
"172 1895 OFFCURVE",
"172 1900 CURVE SMOOTH",
"172 1901 OFFCURVE",
"171 1919 OFFCURVE",
"168 1955 CURVE",
"201 1912 OFFCURVE",
"254 1889 OFFCURVE",
"325 1884 CURVE",
"395 1884 LINE",
"425 1958 LINE",
"365 1958 LINE SMOOTH",
"324 1958 OFFCURVE",
"292 1968 OFFCURVE",
"269 1987 CURVE SMOOTH",
"240 2012 OFFCURVE",
"270 2036 OFFCURVE",
"295 2040 CURVE SMOOTH",
"319 2044 OFFCURVE",
"333 2034 OFFCURVE",
"345 2019 CURVE SMOOTH",
"351 2012 OFFCURVE",
"356 2005 OFFCURVE",
"359 1998 CURVE",
"364 1989 LINE",
"440 2023 LINE",
"440 2023 OFFCURVE",
"433 2033 OFFCURVE",
"418 2053 CURVE",
"358 2120 OFFCURVE",
"311 2117 OFFCURVE",
"258 2064 CURVE SMOOTH",
"221 2027 OFFCURVE",
"202 2002 OFFCURVE",
"202 1991 CURVE",
"174 2014 OFFCURVE",
"152 2059 OFFCURVE",
"145 2084 CURVE SMOOTH",
"140 2104 LINE",
"80 2052 OFFCURVE",
"50 2026 OFFCURVE",
"50 2025 CURVE",
"81 1945 OFFCURVE",
"99 1829 OFFCURVE",
"102 1768 CURVE SMOOTH",
"104 1722 LINE"
);
}
);
width = 490;
}
);
note = uni0611;
unicode = 0611;
},
{
glyphname = uni0612;
layers = (
{
layerId = "03879842-7D6D-4B41-A76D-F99E90B677D3";
paths = (
{
closed = 1;
nodes = (
"186 1731 LINE",
"197 1776 OFFCURVE",
"226 1813 OFFCURVE",
"259 1834 CURVE SMOOTH",
"292 1854 OFFCURVE",
"337 1868 OFFCURVE",
"370 1873 CURVE SMOOTH",
"387 1875 OFFCURVE",
"403 1876 OFFCURVE",
"418 1876 CURVE",
"450 1973 LINE",
"415 1973 LINE SMOOTH",
"364 1973 OFFCURVE",
"314 1984 OFFCURVE",
"266 2007 CURVE SMOOTH",
"197 2040 OFFCURVE",
"200 2041 OFFCURVE",
"175 2041 CURVE SMOOTH",
"141 2041 OFFCURVE",
"110 2014 OFFCURVE",
"83 1959 CURVE SMOOTH",
"72 1938 OFFCURVE",
"72 1917 OFFCURVE",
"85 1896 CURVE",
"99 1871 LINE",
"128 1891 LINE",
"128 1891 OFFCURVE",
"126 1896 OFFCURVE",
"122 1907 CURVE",
"120 1925 OFFCURVE",
"133 1934 OFFCURVE",
"161 1935 CURVE",
"162 1935 OFFCURVE",
"163 1935 OFFCURVE",
"164 1935 CURVE SMOOTH",
"185 1935 OFFCURVE",
"225 1921 OFFCURVE",
"248 1910 CURVE SMOOTH",
"266 1901 LINE",
"261 1900 OFFCURVE",
"255 1899 OFFCURVE",
"248 1897 CURVE SMOOTH",
"232 1893 OFFCURVE",
"182 1874 OFFCURVE",
"147 1851 CURVE SMOOTH",
"111 1828 OFFCURVE",
"67 1783 OFFCURVE",
"50 1731 CURVE"
);
}
);
width = 499;
}
);
note = uni0612;
unicode = 0612;
},
{
glyphname = uni0614;
layers = (
{
layerId = "03879842-7D6D-4B41-A76D-F99E90B677D3";
paths = (
{
closed = 1;
nodes = (
"605 1730 OFFCURVE",
"652 1761 OFFCURVE",
"680 1801 CURVE SMOOTH",
"708 1840 OFFCURVE",
"729 1883 OFFCURVE",
"738 1910 CURVE",
"744 1931 LINE",
"691 1931 LINE",
"691 1930 LINE",
"690 1929 OFFCURVE",
"690 1927 OFFCURVE",
"689 1925 CURVE",
"688 1921 OFFCURVE",
"681 1908 OFFCURVE",
"674 1897 CURVE SMOOTH",
"667 1886 OFFCURVE",
"654 1872 OFFCURVE",
"641 1863 CURVE SMOOTH",
"628 1854 OFFCURVE",
"608 1847 OFFCURVE",
"587 1847 CURVE SMOOTH",
"550 1847 OFFCURVE",
"527 1881 OFFCURVE",
"523 1909 CURVE SMOOTH",
"520 1930 LINE",
"468 1930 LINE",
"468 1870 OFFCURVE",
"433 1847 OFFCURVE",
"374 1847 CURVE SMOOTH",
"50 1847 LINE",
"158 1731 LINE",
"418 1730 LINE",
"444 1731 OFFCURVE",
"464 1740 OFFCURVE",
"479 1758 CURVE",
"501 1739 OFFCURVE",
"526 1730 OFFCURVE",
"554 1730 CURVE SMOOTH"
);
}
);
width = 793;
}
);
note = uni0614;
unicode = 0614;
},
{
glyphname = uni0615;
layers = (
{
layerId = "03879842-7D6D-4B41-A76D-F99E90B677D3";
paths = (
{
closed = 1;
nodes = (
"465 2727 LINE",
"319 2727 LINE",
"342 2756 OFFCURVE",
"351 2770 OFFCURVE",
"380 2787 CURVE",
"395 2795 OFFCURVE",
"410 2799 OFFCURVE",
"427 2799 CURVE SMOOTH",
"463 2799 OFFCURVE",
"474 2769 OFFCURVE",
"469 2745 CURVE SMOOTH"
);
},
{
closed = 1;
nodes = (
"197 2605 LINE",
"395 2605 LINE SMOOTH",
"426 2605 OFFCURVE",
"450 2609 OFFCURVE",
"467 2620 CURVE SMOOTH",
"484 2631 OFFCURVE",
"497 2643 OFFCURVE",
"506 2663 CURVE SMOOTH",
"514 2682 OFFCURVE",
"520 2699 OFFCURVE",
"525 2726 CURVE SMOOTH",
"533 2777 OFFCURVE",
"539 2827 OFFCURVE",
"515 2860 CURVE SMOOTH",
"491 2893 OFFCURVE",
"426 2896 OFFCURVE",
"368 2859 CURVE SMOOTH",
"339 2840 OFFCURVE",
"314 2815 OFFCURVE",
"295 2782 CURVE",
"294 2867 LINE",
"323 2886 LINE",
"297 2983 LINE",
"197 2912 LINE",
"211 2728 LINE",
"160 2728 LINE"
);
}
);
width = 0;
}
);
note = uni0615;
unicode = 0615;
},
{
glyphname = uni0616;
layers = (
{
layerId = "03879842-7D6D-4B41-A76D-F99E90B677D3";
paths = (
{
closed = 1;
nodes = (
"509 1730 LINE",
"576 1855 LINE",
"176 1844 LINE",
"153 1845 OFFCURVE",
"128 1858 OFFCURVE",
"112 1877 CURVE SMOOTH",
"104 1886 OFFCURVE",
"100 1896 OFFCURVE",
"100 1906 CURVE SMOOTH",
"100 1938 OFFCURVE",
"124 1956 OFFCURVE",
"156 1956 CURVE SMOOTH",
"238 1956 LINE SMOOTH",
"266 1956 OFFCURVE",
"282 1950 OFFCURVE",
"289 1942 CURVE SMOOTH",
"296 1934 OFFCURVE",
"301 1925 OFFCURVE",
"318 1920 CURVE",
"326 1917 OFFCURVE",
"337 1916 OFFCURVE",
"351 1916 CURVE SMOOTH",
"424 1916 LINE SMOOTH",
"453 1916 OFFCURVE",
"476 1929 OFFCURVE",
"491 1955 CURVE SMOOTH",
"498 1967 OFFCURVE",
"501 1980 OFFCURVE",
"501 1993 CURVE SMOOTH",
"501 2142 LINE",
"530 2162 LINE",
"497 2287 LINE",
"406 2213 LINE SMOOTH",
"393 2203 OFFCURVE",
"390 2191 OFFCURVE",
"397 2176 CURVE",
"405 2157 OFFCURVE",
"421 2121 OFFCURVE",
"444 2068 CURVE",
"451 2050 OFFCURVE",
"444 2041 OFFCURVE",
"421 2041 CURVE SMOOTH",
"213 2041 LINE SMOOTH",
"121 2041 OFFCURVE",
"50 1981 OFFCURVE",
"50 1893 CURVE SMOOTH",
"50 1801 OFFCURVE",
"124 1730 OFFCURVE",
"235 1730 CURVE SMOOTH"
);
},
{
closed = 1;
nodes = (
"580 1916 LINE",
"644 1967 LINE",
"650 2144 LINE",
"676 2162 LINE",
"644 2287 LINE",
"577 2233 LINE SMOOTH",
"561 2220 OFFCURVE",
"554 2204 OFFCURVE",
"556 2184 CURVE SMOOTH"
);
}
);
width = 725;
}
);
note = uni0616;
unicode = 0616;
},
{
glyphname = uni0617;
layers = (
{
layerId = "03879842-7D6D-4B41-A76D-F99E90B677D3";
paths = (
{
closed = 1;
nodes = (
"227 2600 OFFCURVE",
"245 2631 OFFCURVE",
"266 2688 CURVE SMOOTH",
"284 2734 OFFCURVE",
"293 2777 OFFCURVE",
"293 2817 CURVE SMOOTH",
"293 2880 OFFCURVE",
"267 2933 OFFCURVE",
"246 2950 CURVE",
"231 2964 LINE",
"176 2875 LINE",
"176 2875 OFFCURVE",
"187 2864 OFFCURVE",
"208 2842 CURVE SMOOTH",
"225 2823 OFFCURVE",
"233 2808 OFFCURVE",
"234 2797 CURVE",
"234 2765 OFFCURVE",
"122 2699 OFFCURVE",
"50 2684 CURVE",
"50 2654 LINE",
"50 2654 OFFCURVE",
"77 2642 OFFCURVE",
"132 2617 CURVE",
"161 2606 OFFCURVE",
"181 2600 OFFCURVE",
"192 2600 CURVE SMOOTH"
);
},
{
closed = 1;
nodes = (
"225 2998 LINE",
"234 2998 LINE",
"274 3036 LINE",
"274 3044 LINE",
"234 3082 LINE",
"225 3082 LINE",
"187 3044 LINE",
"187 3036 LINE"
);
}
);
width = 343;
}
);
note = uni0617;
unicode = 0617;
},
{
glyphname = uni0618;
layers = (
{
layerId = "03879842-7D6D-4B41-A76D-F99E90B677D3";
paths = (
{
closed = 1;
nodes = (
"334 1730 LINE",
"434 1730 LINE",
"644 2049 LINE",
"464 2049 LINE"
);
}
);
width = 0;
}
);
note = uni0618;
unicode = 0618;
},
{
glyphname = uni0619;
layers = (
{
layerId = "03879842-7D6D-4B41-A76D-F99E90B677D3";
paths = (
{
closed = 1;
nodes = (
"343 1877 OFFCURVE",
"369 1874 OFFCURVE",
"394 1874 CURVE",
"394 1997 LINE",
"363 2004 LINE",
"395 2077 OFFCURVE",
"386 2131 OFFCURVE",
"359 2163 CURVE SMOOTH",
"346 2178 OFFCURVE",
"329 2188 OFFCURVE",
"308 2193 CURVE SMOOTH",
"232 2209 OFFCURVE",
"140 2102 OFFCURVE",
"136 2022 CURVE SMOOTH",
"134 1973 OFFCURVE",
"167 1936 OFFCURVE",
"236 1909 CURVE",
"206 1858 OFFCURVE",
"155 1831 OFFCURVE",
"82 1829 CURVE",
"82 1729 LINE",
"165 1744 OFFCURVE",
"225 1770 OFFCURVE",
"266 1811 CURVE SMOOTH",
"287 1831 OFFCURVE",
"303 1855 OFFCURVE",
"316 1884 CURVE"
);
},
{
closed = 1;
nodes = (
"297 2116 OFFCURVE",
"316 2082 OFFCURVE",
"299 2022 CURVE",
"297 2023 OFFCURVE",
"294 2023 OFFCURVE",
"291 2024 CURVE",
"283 2025 OFFCURVE",
"261 2032 OFFCURVE",
"248 2040 CURVE",
"235 2047 OFFCURVE",
"222 2061 OFFCURVE",
"223 2076 CURVE",
"226 2093 OFFCURVE",
"242 2111 OFFCURVE",
"265 2112 CURVE"
);
}
);
width = 498;
}
);
note = uni0619;
unicode = 0619;
},
{
glyphname = uni061F;
layers = (
{
layerId = "03879842-7D6D-4B41-A76D-F99E90B677D3";
paths = (
{
closed = 1;
nodes = (
"411 -1 LINE",
"449 -1 LINE",
"613 164 LINE",
"613 199 LINE",
"449 363 LINE",
"411 363 LINE",
"240 199 LINE",
"240 164 LINE"
);
},
{
closed = 1;
nodes = (
"517 480 LINE",
"532 507 OFFCURVE",
"539 543 OFFCURVE",
"539 589 CURVE SMOOTH",
"539 613 OFFCURVE",
"521 666 OFFCURVE",
"486 748 CURVE SMOOTH",
"450 830 OFFCURVE",
"432 883 OFFCURVE",
"432 906 CURVE SMOOTH",
"432 979 OFFCURVE",
"473 1013 OFFCURVE",
"537 1013 CURVE SMOOTH",
"585 1013 OFFCURVE",
"635 980 OFFCURVE",
"650 931 CURVE",
"786 1013 LINE",
"761 1066 OFFCURVE",
"729 1107 OFFCURVE",
"676 1146 CURVE SMOOTH",
"623 1185 OFFCURVE",
"543 1207 OFFCURVE",
"444 1207 CURVE SMOOTH",
"208 1207 OFFCURVE",
"90 1113 OFFCURVE",
"90 925 CURVE SMOOTH",
"90 868 OFFCURVE",
"131 797 OFFCURVE",
"183 738 CURVE SMOOTH",
"208 709 OFFCURVE",
"234 680 OFFCURVE",
"260 653 CURVE SMOOTH",
"312 598 OFFCURVE",
"353 544 OFFCURVE",
"353 509 CURVE SMOOTH",
"353 503 OFFCURVE",
"352 497 OFFCURVE",
"350 492 CURVE",
"346 479 LINE"
);
}
);
width = 848;
}
);
note = uni061F;
unicode = 061F;
},
{
glyphname = uni0621;
layers = (
{
layerId = "03879842-7D6D-4B41-A76D-F99E90B677D3";
paths = (
{
closed = 1;
nodes = (
"517 336 LINE",
"517 477 LINE",
"430 462 OFFCURVE",
"344 469 OFFCURVE",
"261 500 CURVE SMOOTH",
"204 521 OFFCURVE",
"177 553 OFFCURVE",
"202 582 CURVE",
"229 610 OFFCURVE",
"272 618 OFFCURVE",
"305 599 CURVE SMOOTH",
"320 591 OFFCURVE",
"344 563 OFFCURVE",
"357 544 CURVE SMOOTH",
"367 530 LINE",
"483 581 LINE",
"481 584 OFFCURVE",
"478 589 OFFCURVE",
"474 595 CURVE",
"466 606 OFFCURVE",
"436 641 OFFCURVE",
"409 662 CURVE SMOOTH",
"381 683 OFFCURVE",
"339 705 OFFCURVE",
"300 705 CURVE SMOOTH",
"267 705 OFFCURVE",
"236 695 OFFCURVE",
"221 688 CURVE SMOOTH",
"205 680 OFFCURVE",
"182 655 OFFCURVE",
"180 652 CURVE",
"179 651 OFFCURVE",
"175 646 OFFCURVE",
"168 637 CURVE",
"72 498 LINE SMOOTH",
"49 466 OFFCURVE",
"47 440 OFFCURVE",
"56 425 CURVE",
"60 417 OFFCURVE",
"67 408 OFFCURVE",
"77 399 CURVE SMOOTH",
"122 356 OFFCURVE",
"182 316 OFFCURVE",
"210 300 CURVE",
"232 289 LINE",
"50 152 LINE",
"50 0 LINE"
);
}
);
width = 567;
}
);
note = uni0621;
unicode = 0621;
},
{
glyphname = uni0640;
layers = (
{
layerId = "03879842-7D6D-4B41-A76D-F99E90B677D3";
paths = (
{
closed = 1;
nodes = (
"4 -20 LINE",
"4 176 LINE",
"-1 78 LINE",
"4 -15 LINE",
"2 -10 LINE",
"-1 68 LINE",
"-1 78 LINE",
"-5 170 LINE",
"-1 68 LINE",
"-5 -17 LINE"
);
}
);
width = 0;
}
);
note = uni0640;
unicode = 0640;
},
{
glyphname = uni064B;
layers = (
{
layerId = "03879842-7D6D-4B41-A76D-F99E90B677D3";
paths = (
{
closed = 1;
nodes = (
"45 1729 LINE",
"356 1953 LINE",
"356 2052 LINE",
"45 1818 LINE"
);
},
{
closed = 1;
nodes = (
"45 1875 LINE",
"356 2109 LINE",
"356 2208 LINE",
"45 1974 LINE"
);
}
);
width = 405;
}
);
note = uni064B;
unicode = 064B;
},
{
glyphname = uni064C;
layers = (
{
layerId = "03879842-7D6D-4B41-A76D-F99E90B677D3";
paths = (
{
closed = 1;
nodes = (
"355 1875 LINE",
"356 1998 LINE",
"354 1998 OFFCURVE",
"351 1999 OFFCURVE",
"346 2000 CURVE SMOOTH",
"341 2001 OFFCURVE",
"336 2002 OFFCURVE",
"331 2003 CURVE",
"325 2005 LINE",
"366 2117 OFFCURVE",
"336 2179 OFFCURVE",
"269 2194 CURVE SMOOTH",
"193 2211 OFFCURVE",
"111 2129 OFFCURVE",
"108 2052 CURVE SMOOTH",
"105 1996 OFFCURVE",
"126 1963 OFFCURVE",
"214 1928 CURVE",
"177 1864 OFFCURVE",
"125 1843 OFFCURVE",
"46 1830 CURVE",
"46 1730 LINE",
"169 1751 OFFCURVE",
"249 1807 OFFCURVE",
"286 1900 CURVE"
);
},
{
closed = 1;
nodes = (
"123 1925 OFFCURVE",
"99 1950 OFFCURVE",
"92 1972 CURVE",
"84 1994 OFFCURVE",
"81 2015 OFFCURVE",
"84 2027 CURVE SMOOTH",
"86 2036 LINE",
"83 2034 OFFCURVE",
"80 2031 OFFCURVE",
"75 2027 CURVE",
"66 2019 OFFCURVE",
"46 1981 OFFCURVE",
"46 1940 CURVE SMOOTH",
"46 1905 OFFCURVE",
"73 1866 OFFCURVE",
"108 1863 CURVE",
"132 1860 OFFCURVE",
"154 1879 OFFCURVE",
"159 1910 CURVE"
);
},
{
closed = 1;
nodes = (
"188 2094 OFFCURVE",
"204 2112 OFFCURVE",
"227 2113 CURVE",
"256 2116 OFFCURVE",
"272 2073 OFFCURVE",
"255 2018 CURVE",
"253 2019 OFFCURVE",
"250 2020 OFFCURVE",
"247 2021 CURVE",
"240 2023 OFFCURVE",
"220 2030 OFFCURVE",
"208 2039 CURVE",
"196 2047 OFFCURVE",
"184 2062 OFFCURVE",
"185 2077 CURVE"
);
}
);
width = 405;
}
);
note = uni064C;
unicode = 064C;
},
{
glyphname = uni064E;
layers = (
{
layerId = "03879842-7D6D-4B41-A76D-F99E90B677D3";
paths = (
{
closed = 1;
nodes = (
"45 1729 LINE",
"356 1953 LINE",
"356 2052 LINE",
"45 1818 LINE"
);
}
);
width = 405;
}
);
note = uni064E;
unicode = 064E;
},
{
glyphname = uni064F;
layers = (
{
layerId = "03879842-7D6D-4B41-A76D-F99E90B677D3";
paths = (
{
closed = 1;
nodes = (
"305 1877 OFFCURVE",
"331 1874 OFFCURVE",
"356 1874 CURVE",
"356 1997 LINE",
"325 2004 LINE",
"348 2057 OFFCURVE",
"350 2104 OFFCURVE",
"337 2135 CURVE SMOOTH",
"324 2166 OFFCURVE",
"300 2186 OFFCURVE",
"269 2193 CURVE SMOOTH",
"193 2209 OFFCURVE",
"101 2102 OFFCURVE",
"97 2022 CURVE SMOOTH",
"95 1974 OFFCURVE",
"129 1936 OFFCURVE",
"198 1909 CURVE",
"169 1868 OFFCURVE",
"118 1842 OFFCURVE",
"45 1829 CURVE",
"45 1729 LINE",
"148 1746 OFFCURVE",
"226 1798 OFFCURVE",
"278 1884 CURVE"
);
},
{
closed = 1;
nodes = (
"259 2116 OFFCURVE",
"278 2082 OFFCURVE",
"261 2022 CURVE",
"259 2023 OFFCURVE",
"256 2023 OFFCURVE",
"253 2024 CURVE",
"245 2025 OFFCURVE",
"223 2032 OFFCURVE",
"210 2040 CURVE",
"197 2047 OFFCURVE",
"184 2061 OFFCURVE",
"185 2076 CURVE",
"188 2093 OFFCURVE",
"204 2111 OFFCURVE",
"227 2112 CURVE"
);
}
);
width = 406;
}
);
note = uni064F;
unicode = 064F;
},
{
glyphname = uni0651;
layers = (
{
layerId = "03879842-7D6D-4B41-A76D-F99E90B677D3";
paths = (
{
closed = 1;
nodes = (
"247 1821 OFFCURVE",
"255 1820 OFFCURVE",
"262 1820 CURVE SMOOTH",
"318 1820 OFFCURVE",
"356 1870 OFFCURVE",
"356 1934 CURVE SMOOTH",
"356 2111 LINE",
"287 2061 LINE",
"287 1983 LINE SMOOTH",
"287 1964 OFFCURVE",
"274 1950 OFFCURVE",
"257 1950 CURVE SMOOTH",
"240 1950 OFFCURVE",
"226 1964 OFFCURVE",
"226 1983 CURVE SMOOTH",
"226 2017 LINE",
"171 1978 LINE",
"171 1894 LINE SMOOTH",
"171 1877 OFFCURVE",
"153 1862 OFFCURVE",
"136 1862 CURVE SMOOTH",
"119 1862 OFFCURVE",
"106 1875 OFFCURVE",
"106 1894 CURVE SMOOTH",
"106 1931 LINE",
"46 1887 LINE",
"46 1847 LINE SMOOTH",
"46 1815 OFFCURVE",
"54 1787 OFFCURVE",
"70 1767 CURVE",
"85 1746 OFFCURVE",
"110 1733 OFFCURVE",
"141 1733 CURVE SMOOTH",
"193 1733 OFFCURVE",
"232 1773 OFFCURVE",
"239 1824 CURVE"
);
}
);
width = 406;
}
);
note = uni0651;
unicode = 0651;
},
{
glyphname = uni0652;
layers = (
{
layerId = "03879842-7D6D-4B41-A76D-F99E90B677D3";
paths = (
{
closed = 1;
nodes = (
"141 1844 LINE SMOOTH",
"113 1844 OFFCURVE",
"115 1870 OFFCURVE",
"129 1905 CURVE SMOOTH",
"136 1922 OFFCURVE",
"146 1931 OFFCURVE",
"161 1931 CURVE SMOOTH",
"205 1931 OFFCURVE",
"254 1887 OFFCURVE",
"245 1844 CURVE"
);
},
{
closed = 1;
nodes = (
"216 1727 LINE SMOOTH",
"271 1727 OFFCURVE",
"304 1748 OFFCURVE",
"316 1789 CURVE",
"319 1798 OFFCURVE",
"320 1806 OFFCURVE",
"320 1815 CURVE SMOOTH",
"320 1847 LINE SMOOTH",
"320 1920 OFFCURVE",
"276 1992 OFFCURVE",
"217 2019 CURVE SMOOTH",
"158 2046 OFFCURVE",
"115 2025 OFFCURVE",
"88 1956 CURVE SMOOTH",
"59 1879 OFFCURVE",
"-11 1727 OFFCURVE",
"153 1727 CURVE SMOOTH"
);
}
);
width = 370;
}
);
note = uni0652;
unicode = 0652;
},
{
glyphname = uni0653;
layers = (
{
layerId = "03879842-7D6D-4B41-A76D-F99E90B677D3";
paths = (
{
closed = 1;
nodes = (
"297 1859 LINE",
"201 1822 OFFCURVE",
"101 1812 OFFCURVE",
"38 1819 CURVE SMOOTH",
"-25 1826 OFFCURVE",
"-96 1853 OFFCURVE",
"-119 1866 CURVE SMOOTH",
"-130 1872 OFFCURVE",
"-142 1879 OFFCURVE",
"-155 1887 CURVE",
"-157 1888 OFFCURVE",
"-158 1889 OFFCURVE",
"-159 1890 CURVE",
"-213 1922 OFFCURVE",
"-263 1904 OFFCURVE",
"-309 1835 CURVE SMOOTH",
"-376 1738 LINE",
"-312 1674 LINE",
"-268 1741 LINE",
"-268 1741 OFFCURVE",
"-249 1731 OFFCURVE",
"-211 1712 CURVE",
"-78 1653 OFFCURVE",
"45 1639 OFFCURVE",
"158 1670 CURVE SMOOTH",
"217 1687 OFFCURVE",
"270 1715 OFFCURVE",
"318 1756 CURVE"
);
}
);
width = 0;
}
);
note = uni0653;
unicode = 0653;
},
{
glyphname = uni0654;
layers = (
{
layerId = "03879842-7D6D-4B41-A76D-F99E90B677D3";
paths = (
{
closed = 1;
nodes = (
"153 1110 LINE",
"153 1209 LINE",
"92 1198 OFFCURVE",
"33 1204 OFFCURVE",
"-26 1225 CURVE SMOOTH",
"-66 1240 OFFCURVE",
"-85 1261 OFFCURVE",
"-68 1282 CURVE",
"-48 1302 OFFCURVE",
"-19 1307 OFFCURVE",
"5 1294 CURVE",
"16 1289 OFFCURVE",
"32 1269 OFFCURVE",
"41 1256 CURVE SMOOTH",
"48 1246 LINE",
"129 1282 LINE",
"128 1284 OFFCURVE",
"126 1287 OFFCURVE",
"123 1291 CURVE SMOOTH",
"117 1299 OFFCURVE",
"96 1323 OFFCURVE",
"77 1338 CURVE SMOOTH",
"58 1353 OFFCURVE",
"28 1368 OFFCURVE",
"1 1368 CURVE SMOOTH",
"-63 1368 OFFCURVE",
"-156 1266 OFFCURVE",
"-156 1207 CURVE SMOOTH",
"-156 1150 OFFCURVE",
"-103 1100 OFFCURVE",
"-60 1084 CURVE",
"-29 1071 LINE",
"-158 974 LINE",
"-157 876 LINE"
);
}
);
width = 0;
}
);
note = uni0654;
unicode = 0654;
},
{
glyphname = uni0658;
layers = (
{
layerId = "03879842-7D6D-4B41-A76D-F99E90B677D3";
paths = (
{
closed = 1;
nodes = (
"193 1730 OFFCURVE",
"233 1748 OFFCURVE",
"252 1771 CURVE SMOOTH",
"271 1794 OFFCURVE",
"283 1818 OFFCURVE",
"284 1834 CURVE",
"286 1846 LINE",
"223 1855 OFFCURVE",
"178 1882 OFFCURVE",
"158 1914 CURVE",
"137 1945 OFFCURVE",
"127 1983 OFFCURVE",
"129 2017 CURVE SMOOTH",
"131 2051 OFFCURVE",
"135 2079 OFFCURVE",
"142 2096 CURVE",
"146 2108 LINE",
"142 2107 OFFCURVE",
"137 2105 OFFCURVE",
"130 2102 CURVE",
"117 2097 OFFCURVE",
"76 2071 OFFCURVE",
"51 2042 CURVE SMOOTH",
"26 2013 OFFCURVE",
"0 1954 OFFCURVE",
"0 1889 CURVE SMOOTH",
"0 1793 OFFCURVE",
"62 1730 OFFCURVE",
"142 1730 CURVE SMOOTH"
);
}
);
width = 195;
}
);
note = uni0658;
unicode = 0658;
},
{
glyphname = uni0659;
layers = (
{
layerId = "03879842-7D6D-4B41-A76D-F99E90B677D3";
paths = (
{
closed = 1;
nodes = (
"160 1730 LINE",
"531 1730 LINE",
"419 1854 LINE",
"50 1854 LINE"
);
}
);
width = 580;
}
);
note = uni0659;
unicode = 0659;
},
{
glyphname = uni065A;
layers = (
{
layerId = "03879842-7D6D-4B41-A76D-F99E90B677D3";
paths = (
{
closed = 1;
nodes = (
"-19 943 LINE",
"25 943 LINE",
"25 943 OFFCURVE",
"27 961 OFFCURVE",
"31 997 CURVE",
"48 1085 OFFCURVE",
"85 1133 OFFCURVE",
"141 1142 CURVE SMOOTH",
"147 1143 OFFCURVE",
"153 1143 OFFCURVE",
"158 1143 CURVE",
"158 1291 LINE",
"101 1291 OFFCURVE",
"57 1267 OFFCURVE",
"37 1238 CURVE SMOOTH",
"17 1209 OFFCURVE",
"4 1178 OFFCURVE",
"3 1158 CURVE SMOOTH",
"2 1142 LINE",
"2 1146 OFFCURVE",
"2 1151 OFFCURVE",
"1 1158 CURVE",
"0 1171 OFFCURVE",
"-12 1214 OFFCURVE",
"-31 1240 CURVE SMOOTH",
"-51 1266 OFFCURVE",
"-95 1291 OFFCURVE",
"-152 1291 CURVE",
"-152 1143 LINE",
"-104 1143 OFFCURVE",
"-66 1112 OFFCURVE",
"-49 1073 CURVE SMOOTH",
"-33 1033 OFFCURVE",
"-23 991 OFFCURVE",
"-20 964 CURVE"
);
}
);
width = 0;
}
);
note = uni065A;
unicode = 065A;
},
{
glyphname = uni065B;
layers = (
{
layerId = "03879842-7D6D-4B41-A76D-F99E90B677D3";
paths = (
{
closed = 1;
nodes = (
"155 1025 LINE",
"107 1025 OFFCURVE",
"69 1056 OFFCURVE",
"53 1096 CURVE SMOOTH",
"36 1135 OFFCURVE",
"25 1177 OFFCURVE",
"24 1204 CURVE",
"22 1225 LINE",
"-22 1225 LINE SMOOTH",
"-22 1225 OFFCURVE",
"-24 1207 OFFCURVE",
"-28 1171 CURVE",
"-45 1083 OFFCURVE",
"-82 1035 OFFCURVE",
"-138 1026 CURVE",
"-143 1025 OFFCURVE",
"-149 1025 OFFCURVE",
"-155 1025 CURVE",
"-155 877 LINE",
"-80 877 OFFCURVE",
"-31 911 OFFCURVE",
"-8 978 CURVE",
"-3 995 OFFCURVE",
"0 1011 OFFCURVE",
"1 1025 CURVE",
"1 1021 OFFCURVE",
"1 1016 OFFCURVE",
"2 1009 CURVE",
"3 996 OFFCURVE",
"15 955 OFFCURVE",
"35 929 CURVE SMOOTH",
"54 903 OFFCURVE",
"98 877 OFFCURVE",
"155 877 CURVE"
);
}
);
width = 0;
}
);
note = uni065B;
unicode = 065B;
},
{
glyphname = uni065D;
layers = (
{
layerId = "03879842-7D6D-4B41-A76D-F99E90B677D3";
paths = (
{
closed = 1;
nodes = (
"197 1997 LINE",
"185 2036 OFFCURVE",
"188 2072 OFFCURVE",
"201 2096 CURVE SMOOTH",
"214 2119 OFFCURVE",
"238 2115 OFFCURVE",
"254 2100 CURVE SMOOTH",
"269 2085 OFFCURVE",
"274 2065 OFFCURVE",
"251 2038 CURVE",
"239 2025 OFFCURVE",
"227 2015 OFFCURVE",
"215 2008 CURVE SMOOTH"
);
},
{
closed = 1;
nodes = (
"407 1829 LINE",
"372 1829 OFFCURVE",
"342 1837 OFFCURVE",
"317 1852 CURVE SMOOTH",
"292 1867 OFFCURVE",
"272 1885 OFFCURVE",
"255 1909 CURVE",
"392 1962 OFFCURVE",
"371 2062 OFFCURVE",
"296 2144 CURVE SMOOTH",
"221 2226 OFFCURVE",
"139 2198 OFFCURVE",
"115 2135 CURVE SMOOTH",
"102 2104 OFFCURVE",
"106 2060 OFFCURVE",
"127 2004 CURVE",
"96 1997 LINE",
"96 1874 LINE",
"121 1874 OFFCURVE",
"147 1877 OFFCURVE",
"174 1884 CURVE",
"206 1791 OFFCURVE",
"275 1752 OFFCURVE",
"407 1729 CURVE"
);
}
);
width = 498;
}
);
note = uni065D;
unicode = 065D;
},
{
glyphname = uni065E;
layers = (
{
layerId = "03879842-7D6D-4B41-A76D-F99E90B677D3";
paths = (
{
closed = 1;
nodes = (
"312 1726 LINE",
"325 1726 LINE",
"385 1783 LINE",
"385 1795 LINE",
"325 1852 LINE",
"312 1852 LINE",
"255 1795 LINE",
"255 1783 LINE"
);
},
{
closed = 1;
nodes = (
"117 1947 LINE",
"130 1947 LINE",
"190 2004 LINE",
"190 2017 LINE",
"130 2074 LINE",
"117 2074 LINE",
"60 2017 LINE",
"60 2004 LINE"
);
}
);
width = 442;
}
);
note = uni065E;
unicode = 065E;
},
{
glyphname = uni065F;
layers = (
{
layerId = "03879842-7D6D-4B41-A76D-F99E90B677D3";
paths = (
{
closed = 1;
nodes = (
"280 -1203 OFFCURVE",
"314 -1171 OFFCURVE",
"334 -1136 CURVE SMOOTH",
"353 -1101 OFFCURVE",
"385 -1062 OFFCURVE",
"414 -1053 CURVE",
"414 -982 LINE",
"364 -991 OFFCURVE",
"316 -987 OFFCURVE",
"269 -970 CURVE SMOOTH",
"234 -957 OFFCURVE",
"220 -942 OFFCURVE",
"227 -927 CURVE",
"228 -924 OFFCURVE",
"229 -922 OFFCURVE",
"232 -919 CURVE SMOOTH",
"251 -899 OFFCURVE",
"270 -895 OFFCURVE",
"291 -908 CURVE SMOOTH",
"299 -913 OFFCURVE",
"313 -930 OFFCURVE",
"321 -942 CURVE",
"327 -950 LINE",
"394 -919 LINE",
"393 -917 OFFCURVE",
"391 -914 OFFCURVE",
"389 -911 CURVE SMOOTH",
"384 -904 OFFCURVE",
"366 -883 OFFCURVE",
"351 -870 CURVE",
"335 -858 OFFCURVE",
"311 -845 OFFCURVE",
"288 -845 CURVE SMOOTH",
"257 -845 OFFCURVE",
"229 -862 OFFCURVE",
"225 -869 CURVE",
"222 -872 OFFCURVE",
"218 -878 OFFCURVE",
"212 -886 CURVE SMOOTH",
"170 -944 LINE",
"147 -973 OFFCURVE",
"158 -1008 OFFCURVE",
"179 -1033 CURVE SMOOTH",
"199 -1058 OFFCURVE",
"240 -1075 OFFCURVE",
"276 -1068 CURVE",
"255 -1109 OFFCURVE",
"229 -1119 OFFCURVE",
"197 -1096 CURVE SMOOTH",
"182 -1085 OFFCURVE",
"167 -1080 OFFCURVE",
"152 -1080 CURVE SMOOTH",
"136 -1080 OFFCURVE",
"117 -1090 OFFCURVE",
"109 -1098 CURVE SMOOTH",
"103 -1104 LINE",
"103 -1181 LINE",
"119 -1171 OFFCURVE",
"134 -1166 OFFCURVE",
"147 -1166 CURVE SMOOTH",
"160 -1166 OFFCURVE",
"170 -1169 OFFCURVE",
"179 -1175 CURVE",
"195 -1187 OFFCURVE",
"221 -1203 OFFCURVE",
"244 -1203 CURVE SMOOTH"
);
}
);
width = 464;
}
);
note = uni065F;
unicode = 065F;
},
{
glyphname = uni0660;
layers = (
{
layerId = "03879842-7D6D-4B41-A76D-F99E90B677D3";
paths = (
{
closed = 1;
nodes = (
"332 161 LINE",
"381 161 LINE",
"600 372 LINE",
"600 417 LINE",
"381 627 LINE",
"332 627 LINE",
"122 417 LINE",
"122 372 LINE"
);
}
);
width = 715;
}
);
note = uni0660;
unicode = 0660;
},
{
glyphname = uni0661;
layers = (
{
layerId = "03879842-7D6D-4B41-A76D-F99E90B677D3";
paths = (
{
closed = 1;
nodes = (
"296 0 LINE",
"520 177 LINE",
"520 177 OFFCURVE",
"523 237 OFFCURVE",
"529 356 CURVE SMOOTH",
"541 738 OFFCURVE",
"513 1045 OFFCURVE",
"445 1276 CURVE SMOOTH",
"436 1307 OFFCURVE",
"427 1335 OFFCURVE",
"417 1362 CURVE",
"110 1094 LINE",
"182 947 OFFCURVE",
"236 724 OFFCURVE",
"259 537 CURVE SMOOTH",
"282 350 OFFCURVE",
"295 174 OFFCURVE",
"296 74 CURVE SMOOTH"
);
}
);
width = 638;
}
);
note = uni0661;
unicode = 0661;
},
{
glyphname = uni0662;
layers = (
{
layerId = "03879842-7D6D-4B41-A76D-F99E90B677D3";
paths = (
{
closed = 1;
nodes = (
"519 177 LINE",
"519 177 OFFCURVE",
"522 270 OFFCURVE",
"528 455 CURVE SMOOTH",
"529 553 OFFCURVE",
"529 638 OFFCURVE",
"527 710 CURVE",
"574 677 OFFCURVE",
"625 661 OFFCURVE",
"678 661 CURVE SMOOTH",
"825 661 OFFCURVE",
"944 781 OFFCURVE",
"944 928 CURVE SMOOTH",
"944 1362 LINE",
"798 1362 LINE",
"798 1288 LINE SMOOTH",
"798 1175 OFFCURVE",
"723 1098 OFFCURVE",
"623 1098 CURVE SMOOTH",
"564 1098 OFFCURVE",
"512 1139 OFFCURVE",
"483 1191 CURVE SMOOTH",
"454 1243 OFFCURVE",
"431 1299 OFFCURVE",
"423 1335 CURVE SMOOTH",
"417 1362 LINE",
"110 1094 LINE",
"181 935 OFFCURVE",
"234 708 OFFCURVE",
"257 524 CURVE SMOOTH",
"280 340 OFFCURVE",
"294 167 OFFCURVE",
"295 72 CURVE SMOOTH",
"296 0 LINE"
);
}
);
width = 1054;
}
);
note = uni0662;
unicode = 0662;
},
{
glyphname = uni0663;
layers = (
{
layerId = "03879842-7D6D-4B41-A76D-F99E90B677D3";
paths = (
{
closed = 1;
nodes = (
"519 177 LINE",
"519 177 OFFCURVE",
"522 276 OFFCURVE",
"527 475 CURVE SMOOTH",
"528 558 OFFCURVE",
"528 630 OFFCURVE",
"527 692 CURVE",
"556 671 OFFCURVE",
"593 661 OFFCURVE",
"636 661 CURVE SMOOTH",
"673 661 OFFCURVE",
"710 676 OFFCURVE",
"731 695 CURVE SMOOTH",
"752 714 OFFCURVE",
"769 734 OFFCURVE",
"776 747 CURVE",
"782 757 LINE",
"783 755 OFFCURVE",
"784 752 OFFCURVE",
"787 749 CURVE",
"791 741 OFFCURVE",
"810 718 OFFCURVE",
"833 704 CURVE SMOOTH",
"856 690 OFFCURVE",
"900 675 OFFCURVE",
"949 675 CURVE SMOOTH",
"1096 675 OFFCURVE",
"1170 777 OFFCURVE",
"1170 982 CURVE SMOOTH",
"1170 1362 LINE",
"1024 1362 LINE",
"1024 1184 LINE SMOOTH",
"1024 1137 OFFCURVE",
"985 1099 OFFCURVE",
"938 1099 CURVE SMOOTH",
"891 1099 OFFCURVE",
"853 1137 OFFCURVE",
"853 1184 CURVE SMOOTH",
"853 1362 LINE",
"710 1362 LINE",
"710 1184 LINE SMOOTH",
"710 1155 OFFCURVE",
"701 1130 OFFCURVE",
"674 1112 CURVE SMOOTH",
"660 1103 OFFCURVE",
"643 1098 OFFCURVE",
"623 1098 CURVE SMOOTH",
"500 1099 OFFCURVE",
"450 1221 OFFCURVE",
"417 1362 CURVE",
"110 1094 LINE",
"183 938 OFFCURVE",
"237 712 OFFCURVE",
"260 528 CURVE SMOOTH",
"283 343 OFFCURVE",
"296 168 OFFCURVE",
"296 72 CURVE SMOOTH",
"296 0 LINE"
);
}
);
width = 1280;
}
);
note = uni0663;
unicode = 0663;
},
{
glyphname = uni0664;
layers = (
{
layerId = "03879842-7D6D-4B41-A76D-F99E90B677D3";
paths = (
{
closed = 1;
nodes = (
"748 1 LINE",
"926 302 LINE",
"846 302 LINE SMOOTH",
"682 301 OFFCURVE",
"557 344 OFFCURVE",
"524 416 CURVE SMOOTH",
"511 443 OFFCURVE",
"513 471 OFFCURVE",
"529 498 CURVE SMOOTH",
"683 770 LINE",
"700 795 OFFCURVE",
"710 816 OFFCURVE",
"715 831 CURVE",
"723 862 OFFCURVE",
"715 882 OFFCURVE",
"692 897 CURVE SMOOTH",
"668 912 OFFCURVE",
"655 914 OFFCURVE",
"596 930 CURVE",
"591 931 OFFCURVE",
"585 933 OFFCURVE",
"578 936 CURVE",
"562 940 OFFCURVE",
"515 958 OFFCURVE",
"485 974 CURVE SMOOTH",
"455 989 OFFCURVE",
"423 1014 OFFCURVE",
"422 1037 CURVE SMOOTH",
"418 1092 OFFCURVE",
"498 1140 OFFCURVE",
"567 1139 CURVE SMOOTH",
"606 1139 OFFCURVE",
"646 1126 OFFCURVE",
"671 1111 CURVE SMOOTH",
"696 1095 OFFCURVE",
"717 1078 OFFCURVE",
"726 1067 CURVE SMOOTH",
"733 1059 LINE",
"887 1265 LINE",
"884 1268 OFFCURVE",
"879 1271 OFFCURVE",
"874 1276 CURVE",
"862 1284 OFFCURVE",
"820 1313 OFFCURVE",
"783 1330 CURVE SMOOTH",
"746 1347 OFFCURVE",
"687 1364 OFFCURVE",
"638 1364 CURVE SMOOTH",
"570 1364 OFFCURVE",
"507 1348 OFFCURVE",
"471 1330 CURVE SMOOTH",
"434 1312 OFFCURVE",
"396 1277 OFFCURVE",
"381 1260 CURVE",
"374 1251 OFFCURVE",
"365 1241 OFFCURVE",
"356 1228 CURVE SMOOTH",
"191 1004 LINE SMOOTH",
"136 931 OFFCURVE",
"118 865 OFFCURVE",
"137 808 CURVE SMOOTH",
"162 731 OFFCURVE",
"251 675 OFFCURVE",
"376 647 CURVE",
"243 411 LINE",
"242 408 OFFCURVE",
"239 403 OFFCURVE",
"236 397 CURVE SMOOTH",
"227 380 OFFCURVE",
"221 368 OFFCURVE",
"217 359 CURVE SMOOTH",
"213 350 OFFCURVE",
"208 339 OFFCURVE",
"202 326 CURVE SMOOTH",
"189 298 OFFCURVE",
"186 286 OFFCURVE",
"182 264 CURVE SMOOTH",
"178 242 OFFCURVE",
"179 224 OFFCURVE",
"186 205 CURVE",
"227 78 OFFCURVE",
"440 27 OFFCURVE",
"561 11 CURVE SMOOTH",
"621 2 OFFCURVE",
"667 -1 OFFCURVE",
"700 0 CURVE SMOOTH"
);
}
);
width = 1036;
}
);
note = uni0664;
unicode = 0664;
},
{
glyphname = uni0665;
layers = (
{
layerId = "03879842-7D6D-4B41-A76D-F99E90B677D3";
paths = (
{
closed = 1;
nodes = (
"352 476 LINE SMOOTH",
"303 476 OFFCURVE",
"277 507 OFFCURVE",
"276 568 CURVE",
"275 575 OFFCURVE",
"275 590 OFFCURVE",
"276 615 CURVE SMOOTH",
"277 640 OFFCURVE",
"279 669 OFFCURVE",
"280 702 CURVE SMOOTH",
"282 768 OFFCURVE",
"297 846 OFFCURVE",
"316 908 CURVE SMOOTH",
"335 970 OFFCURVE",
"373 1014 OFFCURVE",
"420 1014 CURVE SMOOTH",
"471 1014 OFFCURVE",
"518 999 OFFCURVE",
"555 970 CURVE SMOOTH",
"592 941 OFFCURVE",
"598 934 OFFCURVE",
"622 909 CURVE SMOOTH",
"675 852 OFFCURVE",
"717 644 OFFCURVE",
"684 477 CURVE"
);
},
{
closed = 1;
nodes = (
"577 0 LINE SMOOTH",
"752 0 OFFCURVE",
"869 126 OFFCURVE",
"869 290 CURVE SMOOTH",
"869 513 LINE SMOOTH",
"869 854 OFFCURVE",
"791 1123 OFFCURVE",
"695 1235 CURVE SMOOTH",
"631 1308 OFFCURVE",
"535 1362 OFFCURVE",
"452 1362 CURVE SMOOTH",
"399 1362 OFFCURVE",
"353 1337 OFFCURVE",
"321 1301 CURVE SMOOTH",
"288 1264 OFFCURVE",
"258 1202 OFFCURVE",
"238 1146 CURVE SMOOTH",
"228 1118 OFFCURVE",
"218 1086 OFFCURVE",
"208 1049 CURVE SMOOTH",
"135 782 OFFCURVE",
"100 547 OFFCURVE",
"104 407 CURVE SMOOTH",
"108 266 OFFCURVE",
"124 186 OFFCURVE",
"148 145 CURVE SMOOTH",
"203 50 OFFCURVE",
"275 0 OFFCURVE",
"400 0 CURVE SMOOTH"
);
}
);
width = 979;
}
);
note = uni0665;
unicode = 0665;
},
{
glyphname = uni0666;
layers = (
{
layerId = "03879842-7D6D-4B41-A76D-F99E90B677D3";
paths = (
{
closed = 1;
nodes = (
"933 264 LINE",
"796 383 OFFCURVE",
"736 529 OFFCURVE",
"736 673 CURVE SMOOTH",
"736 1362 LINE",
"734 1361 OFFCURVE",
"731 1360 OFFCURVE",
"728 1359 CURVE",
"721 1356 OFFCURVE",
"693 1347 OFFCURVE",
"668 1340 CURVE",
"643 1332 OFFCURVE",
"599 1322 OFFCURVE",
"559 1316 CURVE SMOOTH",
"519 1310 OFFCURVE",
"465 1304 OFFCURVE",
"414 1304 CURVE SMOOTH",
"325 1304 OFFCURVE",
"209 1329 OFFCURVE",
"152 1348 CURVE SMOOTH",
"110 1363 LINE",
"110 995 LINE",
"111 994 OFFCURVE",
"111 994 OFFCURVE",
"112 993 CURVE SMOOTH",
"113 992 OFFCURVE",
"115 991 OFFCURVE",
"118 989 CURVE",
"125 985 OFFCURVE",
"132 981 OFFCURVE",
"145 976 CURVE SMOOTH",
"158 971 OFFCURVE",
"172 966 OFFCURVE",
"193 961 CURVE SMOOTH",
"213 956 OFFCURVE",
"236 953 OFFCURVE",
"265 951 CURVE SMOOTH",
"280 950 OFFCURVE",
"295 949 OFFCURVE",
"311 949 CURVE SMOOTH",
"340 949 OFFCURVE",
"369 950 OFFCURVE",
"390 953 CURVE SMOOTH",
"410 956 OFFCURVE",
"428 959 OFFCURVE",
"440 962 CURVE SMOOTH",
"452 965 OFFCURVE",
"461 968 OFFCURVE",
"465 969 CURVE",
"468 970 LINE",
"468 561 LINE SMOOTH",
"463 354 OFFCURVE",
"537 132 OFFCURVE",
"665 0 CURVE"
);
}
);
width = 1042;
}
);
note = uni0666;
unicode = 0666;
},
{
glyphname = uni0667;
layers = (
{
layerId = "03879842-7D6D-4B41-A76D-F99E90B677D3";
paths = (
{
closed = 1;
nodes = (
"546 0 LINE",
"691 0 LINE",
"691 7 OFFCURVE",
"691 18 OFFCURVE",
"692 31 CURVE",
"693 57 OFFCURVE",
"700 149 OFFCURVE",
"711 226 CURVE SMOOTH",
"722 302 OFFCURVE",
"744 417 OFFCURVE",
"773 506 CURVE SMOOTH",
"801 594 OFFCURVE",
"848 693 OFFCURVE",
"903 757 CURVE SMOOTH",
"958 821 OFFCURVE",
"1038 866 OFFCURVE",
"1127 866 CURVE",
"1127 1362 LINE",
"1083 1362 LINE SMOOTH",
"1043 1362 OFFCURVE",
"1003 1358 OFFCURVE",
"943 1338 CURVE SMOOTH",
"883 1317 OFFCURVE",
"832 1287 OFFCURVE",
"777 1226 CURVE SMOOTH",
"721 1165 OFFCURVE",
"682 1089 OFFCURVE",
"657 969 CURVE SMOOTH",
"644 908 OFFCURVE",
"638 841 OFFCURVE",
"638 768 CURVE SMOOTH",
"638 666 LINE SMOOTH",
"638 655 OFFCURVE",
"630 647 OFFCURVE",
"619 647 CURVE SMOOTH",
"606 647 OFFCURVE",
"600 653 OFFCURVE",
"600 666 CURVE",
"599 768 LINE",
"599 883 OFFCURVE",
"583 985 OFFCURVE",
"557 1059 CURVE SMOOTH",
"531 1133 OFFCURVE",
"492 1195 OFFCURVE",
"452 1236 CURVE SMOOTH",
"412 1276 OFFCURVE",
"363 1310 OFFCURVE",
"322 1327 CURVE SMOOTH",
"281 1344 OFFCURVE",
"232 1356 OFFCURVE",
"200 1360 CURVE",
"184 1361 OFFCURVE",
"169 1362 OFFCURVE",
"154 1362 CURVE SMOOTH",
"110 1362 LINE",
"110 866 LINE",
"199 866 OFFCURVE",
"279 824 OFFCURVE",
"334 757 CURVE SMOOTH",
"389 690 OFFCURVE",
"436 601 OFFCURVE",
"465 505 CURVE SMOOTH",
"493 409 OFFCURVE",
"515 311 OFFCURVE",
"526 224 CURVE SMOOTH",
"537 137 OFFCURVE",
"544 69 OFFCURVE",
"545 30 CURVE SMOOTH"
);
}
);
width = 1237;
}
);
note = uni0667;
unicode = 0667;
},
{
glyphname = uni0668;
layers = (
{
layerId = "03879842-7D6D-4B41-A76D-F99E90B677D3";
paths = (
{
closed = 1;
nodes = (
"154 0 LINE SMOOTH",
"194 0 OFFCURVE",
"233 4 OFFCURVE",
"293 25 CURVE SMOOTH",
"353 45 OFFCURVE",
"405 75 OFFCURVE",
"461 136 CURVE SMOOTH",
"516 197 OFFCURVE",
"555 273 OFFCURVE",
"580 394 CURVE SMOOTH",
"593 454 OFFCURVE",
"599 521 OFFCURVE",
"599 594 CURVE SMOOTH",
"600 696 LINE SMOOTH",
"600 707 OFFCURVE",
"608 715 OFFCURVE",
"619 715 CURVE SMOOTH",
"630 715 OFFCURVE",
"638 707 OFFCURVE",
"638 696 CURVE SMOOTH",
"638 614 LINE SMOOTH",
"638 467 OFFCURVE",
"666 341 OFFCURVE",
"706 259 CURVE SMOOTH",
"745 177 OFFCURVE",
"803 109 OFFCURVE",
"858 73 CURVE SMOOTH",
"913 37 OFFCURVE",
"977 13 OFFCURVE",
"1021 6 CURVE SMOOTH",
"1043 2 OFFCURVE",
"1064 0 OFFCURVE",
"1083 0 CURVE SMOOTH",
"1127 0 LINE",
"1127 496 LINE",
"1038 496 OFFCURVE",
"958 538 OFFCURVE",
"903 605 CURVE SMOOTH",
"848 672 OFFCURVE",
"801 761 OFFCURVE",
"773 857 CURVE SMOOTH",
"744 953 OFFCURVE",
"722 1051 OFFCURVE",
"711 1138 CURVE SMOOTH",
"700 1225 OFFCURVE",
"693 1293 OFFCURVE",
"692 1332 CURVE SMOOTH",
"691 1362 LINE",
"546 1362 LINE",
"546 1355 OFFCURVE",
"546 1345 OFFCURVE",
"545 1332 CURVE",
"544 1306 OFFCURVE",
"537 1213 OFFCURVE",
"526 1137 CURVE SMOOTH",
"515 1060 OFFCURVE",
"493 945 OFFCURVE",
"465 857 CURVE SMOOTH",
"436 768 OFFCURVE",
"389 669 OFFCURVE",
"334 605 CURVE SMOOTH",
"279 541 OFFCURVE",
"199 496 OFFCURVE",
"110 496 CURVE",
"110 0 LINE"
);
}
);
width = 1237;
}
);
note = uni0668;
unicode = 0668;
},
{
glyphname = uni0669;
layers = (
{
layerId = "03879842-7D6D-4B41-A76D-F99E90B677D3";
paths = (
{
closed = 1;
nodes = (
"238 1133 OFFCURVE",
"265 1167 OFFCURVE",
"318 1167 CURVE SMOOTH",
"370 1167 OFFCURVE",
"456 1085 OFFCURVE",
"504 1020 CURVE SMOOTH",
"540 971 LINE",
"331 971 LINE SMOOTH",
"287 971 OFFCURVE",
"238 1001 OFFCURVE",
"238 1064 CURVE SMOOTH"
);
},
{
closed = 1;
nodes = (
"903 264 LINE",
"835 317 OFFCURVE",
"783 390 OFFCURVE",
"756 454 CURVE SMOOTH",
"729 517 OFFCURVE",
"713 600 OFFCURVE",
"709 655 CURVE SMOOTH",
"707 682 OFFCURVE",
"706 712 OFFCURVE",
"706 743 CURVE SMOOTH",
"706 871 LINE SMOOTH",
"706 1104 OFFCURVE",
"661 1232 OFFCURVE",
"563 1305 CURVE SMOOTH",
"514 1342 OFFCURVE",
"458 1360 OFFCURVE",
"397 1360 CURVE SMOOTH",
"197 1360 OFFCURVE",
"110 1244 OFFCURVE",
"110 1072 CURVE SMOOTH",
"110 822 LINE SMOOTH",
"110 703 OFFCURVE",
"207 606 OFFCURVE",
"326 606 CURVE SMOOTH",
"438 606 LINE",
"439 394 OFFCURVE",
"516 123 OFFCURVE",
"635 0 CURVE"
);
}
);
width = 1013;
}
);
note = uni0669;
unicode = 0669;
},
{
glyphname = uni066B;
layers = (
{
layerId = "03879842-7D6D-4B41-A76D-F99E90B677D3";
paths = (
{
closed = 1;
nodes = (
"110 -648 LINE",
"375 -648 LINE",
"695 436 LINE",
"430 436 LINE"
);
}
);
width = 804;
}
);
note = uni066B;
unicode = 066B;
},
{
glyphname = uni066C;
layers = (
{
layerId = "03879842-7D6D-4B41-A76D-F99E90B677D3";
paths = (
{
closed = 1;
nodes = (
"110 436 LINE",
"375 436 LINE",
"626 1289 LINE",
"362 1289 LINE"
);
}
);
width = 736;
}
);
note = uni066C;
unicode = 066C;
},
